<svg width="26" height="20" viewBox="0 0 26 20" fill="none" xmlns="http://www.w3.org/2000/svg">
<path d="M2.84375 0.625C1.5498 0.625 0.5 1.6748 0.5 2.96875C0.5 3.70605 0.84668 4.39941 1.4375 4.84375L12.0625 12.8125C12.6191 13.2275 13.3809 13.2275 13.9375 12.8125L24.5625 4.84375C25.1533 4.39941 25.5 3.70605 25.5 2.96875C25.5 1.6748 24.4502 0.625 23.1562 0.625H2.84375ZM0.5 6.09375V16.25C0.5 17.9736 1.90137 19.375 3.625 19.375H22.375C24.0986 19.375 25.5 17.9736 25.5 16.25V6.09375L14.875 14.0625C13.7617 14.8975 12.2383 14.8975 11.125 14.0625L0.5 6.09375Z" fill="#87600A"/>
</svg>
