<svg width="26" height="26" viewBox="0 0 26 26" fill="none" xmlns="http://www.w3.org/2000/svg">
<path d="M23.7143 0.5H2.28013C1.29799 0.5 0.5 1.30915 0.5 2.30246V23.6975C0.5 24.6908 1.29799 25.5 2.28013 25.5H23.7143C24.6964 25.5 25.5 24.6908 25.5 23.6975V2.30246C25.5 1.30915 24.6964 0.5 23.7143 0.5ZM8.0558 21.9286H4.35045V9.99777H8.06138V21.9286H8.0558ZM6.20313 8.3683C5.01451 8.3683 4.05469 7.4029 4.05469 6.21987C4.05469 5.03683 5.01451 4.07143 6.20313 4.07143C7.38616 4.07143 8.35156 5.03683 8.35156 6.21987C8.35156 7.40848 7.39174 8.3683 6.20313 8.3683ZM21.9453 21.9286H18.24V16.125C18.24 14.7411 18.2121 12.9609 16.3147 12.9609C14.3839 12.9609 14.0882 14.4676 14.0882 16.0246V21.9286H10.3828V9.99777H13.9375V11.6272H13.9877C14.4844 10.6897 15.6953 9.70201 17.4978 9.70201C21.2478 9.70201 21.9453 12.1741 21.9453 15.3884V21.9286Z" fill="#87600A"/>
</svg>
