<svg height="324.098" viewBox="0 0 462.787 324.098" width="462.787" xmlns="http://www.w3.org/2000/svg"><path d="m222.5 0h2 .167.2.188.17.167.2.185.166.169.182.2.17.166l.333.007h.167.168.053l.328.008h.166.167.057.144.019.163.05.116.056.111.059.132.03.164.045.121.055.11.059.12.044l.162.005h.041.123.057.11.058.126.036l.165.006h.033.132.054.111.059.118.046l.163.006h.023l.142.006h.048.119.053l.12.005.034.157.163.007h.02l.145.006h.051.112.061.108.057l.148.007h.014l.161.007h.057l.107.005h.065.1.06l.123.006h.042l.159.008h.053l.109.006h.063l.107.005h.056l.128.007h.035l.161.009h.046l.118.006h.059l.108.006h.057l.123.007h.042l.163.009h.036l.123.007h.063l.1.006h.059l.121.007h.04l.177.079h.03l.132.008h.056l.113.007h.051l.121.007h.046l.162.01h.025l.135.008h.061l.1.007h.062l.107.007h.056l.161.01h.012l.151.01h.051l.114.008h.056l.111.008h.055l.322.022h.052l.114.008h.054l.115.008h.048l.148.011h.015l.164.061h.051l.112.008h.059l.109.008h.056l.128.01h.033l.16.012h.047l.118.009h.054l.113.009h.052l.133.01h.029l.166.034h.029l.136.011h.045l.121.01h.047l.139.011h.023l.169.014h.015l.149.012h.041l.124.01h.047l.129.011h.035l.166.014h.007l.157.013h.041l.122.011h.051l.12.01h.043l.16.014h.014l.15.059h.047l.116.01h.055l.116.011h.047l.155.014h.007l.162.015h.048l.114.011.057.005.111.01h.051l.129.012h.035l.159.015h.046l.115.011.058.006.108.01.057.006.12.012h.041l.159.016h.042l.121.012.054.005.11.011.055.006.12.012h.042l.162.017h.025l.137.014h.048l.118.012.049.005.123.013h.04l.163.017h.02l.141.015.048.005.115.012.052.006.119.013h.044l.162.018h.007l.155.017h.043l.124.014h.044l.126.014h.038l.329.037h.033l.129.015.046.005.121.014.045.005.325.037h.036l.128.015.045.005.123.014h.04l.156.018h.005l.167.02h.026l.138.016h.038l.127.015.042.005.151.018h.009l.17.021h.015l.149.018h.036l.129.016h.04l.141.017h.022l.167.021h.015l.145.018.045.006.117.015.051.006.13.017h.028l.166.021h.013l.149.019.042.005.12.016.047.006.128.017h.033l.328.043h.032l.129.017.045.006.126.017h.035l.33.045h.027l.131.018.047.006.124.017.037.005.327.045h.032l.127.018.051.007.116.016.044.006.145.021h.015l.167.024h.018l.142.02.039.006.132.019h.031l.151.022h.013l.166.024h.021l.14.02.044.006.121.018.042.006.138.02h.022l.168.025.155.023.043.006.122.018.042.006.13.02h.032l.164.025.154.023.046.007.116.018.047.007.123.019.039.006.321.05.04.006.121.019.048.008.12.019.039.006.325.052h.029l.133.021.038.006.13.021.033.005.328.053h.022l.141.023.035.006.134.022h.028l.331.055h.017l.145.024.032.005.136.023.03.005.159.027.171.029.16.027h.028l.136.023.032.005.148.025h.013l.328.057.032.006.133.023.033.006.15.026h.009l.332.058h.026l.136.024.034.006.136.024h.027l.325.058.03.005.133.024.035.006.135.024h.027l.33.06h.014l.146.027.032.006.139.026h.024l.33.061h.014l.145.027.034.006.133.025.029.006.157.03.167.032h.013l.146.028.035.007.13.025.034.007.138.026h.023l.164.031h.01l.15.029.034.007.13.025.033.006.144.028h.017l.325.064.033.007.129.025.037.007.133.026.027.005.323.064.031.006.131.026.034.007.131.026.032.006.322.065.029.006.131.027.039.008.123.025.038.008.323.066h.018l.142.029.031.007.132.027.031.006.323.067h.021l.139.029.035.007.128.027.033.007.324.069h.014l.144.031.035.007.126.027.038.008.147.031h.008l.167.036.159.034.024.005.133.029.036.008.139.03h.019l.322.071.031.007.132.029.032.007.147.033h.009l.33.073h.017l.14.031.032.007.142.032h.016l.328.074h.015l.144.033.028.006.139.032h.021l.325.074h.019l.137.032.038.009.129.03.029.007.325.076h.006l.15.035.032.007.134.031.025.006.483.114.028.007.138.033.023.005.484.116.027.007.135.033.027.007.15.036h.008l.323.078.03.007.133.032.029.007.147.036h.009l.328.081h.014l.148.037h.017l.153.038h.009l.326.082h.016l.145.036.023.006.145.036h.015l.327.083h.009l.148.038.026.007.137.035.024.006.333.368h.017l.141.036.031.008.132.034.027.007.155.04.165.043h.007l.151.039.025.007.135.035.029.008.149.039h.006l.165.043.16.042h.016l.142.038.025.007.484.129h.01l.15.04h.017l.487.132h.008l.148.04.023.006.147.04h.01l.327.09.153.042.022.006.145.04h.013l.483.134.02.006.147.041h.011l.485.136h.015l.148.042h.014l.484.138h.013l.153.044h.008l.489.141h.006l.155.045h.01l.487.142h.007l.153.045h.013l.486.143.155.046h.015l.15.045h.009l.324.1.155.047h.014l.15.045h.01l.482.146h.014l.146.044h.015l.48.147h.013l.159.132.016.005.478.148.016.005.141.044.022.007.638.2h.011l.483.153.153.049h.015l.638.2h.011l.639.207h.011l.155.051.482.158h.009l.642.212c.432.143.861.287 1.291.433l.158.054q2.019.685 4.016 1.406l.634.23h.008l.634.232.635.235q1.674.622 3.332 1.268l.631.247q1.343.528 2.674 1.072l.625.257c.418.172.833.345 1.25.52l.621.262c.416.176.829.352 1.243.53a222.417 222.417 0 0 1 51.735 31.207l.517.418.645.526.386.317.123.1.01.008.506.418.009.007.508.422.508.424.007.006.5.424.008.006.121.1.38.321.5.43h.006l.121.1h.005l.5.43.377.325.124.107.5.434h.005l.5.435.118.1.007.007.369.325.01.008.115.1.008.007.366.324.015.013.1.093.018.016.363.323.009.008.112.1.011.01.366.328.006.005.111.1.016.014.362.326.008.008.109.1.018.016.113.1.244.221.008.007.107.1.021.019.106.1.01.009.243.221.113.1.018.017.106.1.01.009.358.329.017.015.106.1.011.01.357.33.016.015.105.1.012.011.355.33.017.016.1.1.013.012.358.335.006.005.112.105.011.01.113.106.006.005.238.224.012.011.107.1.012.011.115.108.239.226.011.01.106.1.015.014.1.1.016.015.232.221.015.014.1.1.019.018.1.093.019.019.233.223.006.006.106.1.021.02.1.093.019.018.232.223.007.007.108.1.017.016.1.1.019.018.11.107.233.226.016.015.1.1.021.021.1.1.012.012.115.112.007.007.107.1.02.02.09.089.028.028.09.089.021.021.226.222.02.02.091.09.028.027.09.089.021.021.226.223.019.019.092.091.025.025.091.09.022.022.224.222.02.02.09.09.029.029.084.084.027.027.1.1.014.014.113.113.012.012.1.1.028.028.087.087.025.025.1.1.007.007.114.115.012.012.1.1.025.025.09.091.021.021.1.1.015.015.113.115.107.108.025.025.087.088.026.027.09.091.02.021.221.226.022.023.086.088.029.03.081.082.031.032.216.222.025.025.085.088.029.03.085.087.024.024.219.226.024.024.084.087.03.031.08.082.032.033.215.223.022.022.087.09.03.031.079.082.031.032.093.1.014.015.108.113.023.024.083.086.035.036.072.076.037.039.092.1.011.011.109.115.02.021.087.092.032.033.074.078.036.038.081.085.025.026.106.112.019.02.087.092.032.034.073.077.04.042.072.076.032.034.1.11.02.022.086.091.036.038.067.072.042.045.068.073.036.038.209.223.032.034.071.076.041.044.068.073.035.038.088.095.017.018.1.11.034.037.07.075.039.042.071.076.034.037.084.091.021.022.1.111.031.033.073.079.039.042.07.076.033.036.083.091.022.024.1.113.026.029.074.081.043.047.063.069.041.045.068.075.035.039.1.107.043.047.058.064.049.054.057.062.043.048.065.071.039.043.1.107.036.04.065.072.046.051.059.065.044.049.06.067.042.047.1.109.024.027.077.086.041.046.062.069.042.046.063.07.04.044.084.094.034.038.079.089.045.05.057.064.046.051.059.067.04.045.074.084.043.048.08.09.046.052.056.064.045.05.058.066.044.05.065.074.035.039.095.108.041.047.062.07.042.048.058.066.045.051.058.067.043.049.092.105.047.053.053.061.048.055.053.061.048.055.057.065.041.047.09.1.052.06.051.059.05.057.049.057.05.057.051.059.049.057.051.058.091.105.047.055.048.055.054.062.049.057.049.057.05.058.054.063.082.1.054.062.049.056.049.057.051.06.048.056.051.059.053.062.079.092.055.064.05.059.048.056.051.06.049.058.047.055.056.066.074.087.06.07.046.054.052.061.046.055.055.064.046.054.049.058.078.092.061.072.047.056.051.06.051.061.046.054.05.06.048.057.07.084.068.081.05.06.045.053.054.065.043.051.055.066.037.044.059.071.009.011.132.158.041.049.055.066.041.05.052.063.043.052.057.068.005.007.143.172.028.034.06.072.038.045.058.071.031.037.065.079.007.009.14.169.029.036.06.073.034.041.06.073.033.04.063.076.022.027.128.156.026.031.057.07.04.049.055.067.037.046.057.07.039.048.1.123.039.048.055.068.039.048.055.067.04.049.056.069.036.045.2.245.037.046.057.071.033.041.062.077.025.032.213.265.027.033.061.076.033.041.06.075.032.04.059.074.019.023.128.16.029.036.062.078.028.035.063.079.028.035.216.272.02.025.061.077.032.041.061.078.026.033.066.083.006.007.152.193.011.014.069.088.02.025.067.086.024.03.066.084.014.018.136.173.019.025.061.078.031.039.061.078.03.038.06.077.026.034.211.271.023.03.063.081.029.037.063.081.018.024.214.276.026.034.063.081.026.033.063.082.024.031.217.282.015.019.067.087.023.03.064.084.022.029.219.287.013.016.067.088.023.03.063.082.026.034.226.3.07.093.019.025.069.092.013.017.3.4.018.024.067.089.018.023.306.409.009.012.071.095.016.021.071.1.233.313.011.014.068.092.018.025.07.094.227.307.015.02.067.091.018.024.069.094.007.01.23.313.005.007.069.095.017.023.069.094.011.015.228.313.069.1.016.022.067.092.016.022.224.309.065.089.023.032.065.09.014.02.3.418.008.011.071.1.012.016.3.425.076.107.384.54.011.015.383.542.384.548v.006l.383.549.076.11a221.671 221.671 0 0 1 28.852 58.271l-114.2 36.87a102.211 102.211 0 0 0 -97.46-70.858zm0 0v120a102.357 102.357 0 0 0 -97.325 70.149l-113.886-37.814a222.963 222.963 0 0 1 78.017-108.081c.357-.267.712-.531 1.07-.8l.532-.392.009-.007.1-.075.423-.31.01-.007.427-.311.1-.076h.007l.534-.386.009-.007.535-.385.007-.005.537-.383.008-.006.539-.382h.007l.538-.38.011-.007.54-.378h.007l.105-.074.432-.3.009-.007.432-.3h.005l.1-.072.009-.006.105-.073.437-.3h.006l.547-.373h.007l.107-.073.436-.3.013-.009.548-.369.552-.37h.005l.549-.365.012-.008.1-.068.011-.007.433-.286.013-.008.105-.069.324-.213.012-.008.1-.066.016-.011.1-.067.01-.006.327-.213.1-.063.027-.017.095-.061.022-.014.3-.2.022-.014.092-.06.028-.018.093-.06.025-.016.313-.2.01-.006.1-.061.027-.017.1-.061.02-.013.31-.2.019-.012.092-.059.03-.019.091-.058.029-.018.3-.193.018-.012.095-.06.027-.017.1-.061.021-.014.318-.2.009-.006.1-.06.029-.018.089-.056.038-.024.3-.19.014-.009.092-.058.033-.02.091-.057.029-.018.288-.18.041-.026.08-.05.044-.027.082-.051.044-.027.083-.051.017-.01.188-.116.029-.018.087-.054.038-.023.088-.054.034-.021.09-.055.009-.006.2-.121.027-.017.088-.054.036-.022.088-.054.035-.021.305-.186.018-.011.091-.055.034-.021.093-.056.025-.015.312-.189.019-.012.092-.055.033-.02.091-.055.033-.02.093-.056.209-.126.023-.014.09-.054.036-.021.09-.054.034-.02.091-.054.017-.01.189-.113.031-.019.084-.05.045-.027.081-.048.049-.029.081-.048.025-.015.188-.112.023-.014.087-.052.041-.024.086-.051.039-.023.088-.052.021-.013.179-.106.04-.023.084-.049.041-.024.086-.051.041-.024.087-.051.018-.011.185-.108.036-.021.083-.049.044-.026.085-.049.044-.025.083-.048.036-.021.176-.1.029-.017.087-.051.04-.023.086-.05.043-.025.087-.05.017-.01.2-.116.018-.011.09-.052.039-.023.09-.052.033-.019.093-.053.018-.01.188-.108.035-.02.084-.048.043-.025.085-.049.044-.025.085-.048.039-.022.157-.09.047-.027.081-.046.048-.027.084-.048.044-.025.083-.047.045-.026.155-.088.047-.026.077-.044.052-.03.077-.043.057-.032.076-.043.042-.023.169-.095.034-.019.13-.092.047-.026.086-.048.039-.022.089-.05.032-.018.167-.093.047-.026.08-.044.048-.027.083-.046.047-.026.085-.047.027-.015.194-.107.019-.011.089-.049.042-.023.087-.048.042-.023.086-.047.042-.023.169-.093.035-.019.088-.048.041-.022.086-.047.047-.025.086-.047.027-.015.2-.106.02-.011.085-.047.048-.026.083-.045.046-.025.085-.046.039-.021.161-.087.048-.026.082-.044.046-.025.084-.045.051-.027.081-.044.048-.026.154-.083.046-.025.083-.044.049-.026.084-.045.049-.026.079-.043.055-.029.146-.078.051-.027.078-.041.054-.029.075-.04.063-.033.072-.038.056-.03.142-.075.054-.029.076-.04.056-.03.079-.042.054-.029.077-.04.063-.033.117-.061.077-.04.066-.035.067-.035.07-.037.067-.035.068-.036.071-.037.115-.06.07-.037.07-.036.066-.034.07-.036.069-.036.063-.033.082-.043.1-.052.078-.04.07-.036.064-.033.072-.037.065-.033.071-.037.062-.032.128-.066.065-.034.074-.038.059-.03.079-.04.055-.028.078-.04.06-.03.123-.063.075-.038.068-.035.066-.034.072-.037.065-.033.069-.035.081-.041.078-.04.1-.052.068-.034.066-.033.074-.037.065-.033.068-.034.073-.037.117-.059.071-.036.07-.035.065-.033.071-.035.069-.035.067-.033.074-.037.107-.053.078-.039.073-.036.063-.031.075-.037.064-.032.069-.034.073-.036.1-.047.1-.047.063-.031.07-.034.073-.036.066-.033.07-.035.069-.034.118-.058.073-.036.075-.037.06-.03.076-.037.063-.031.071-.035.072-.035.114-.056.077-.037.069-.034.067-.032.072-.035.067-.033.07-.034.066-.032.12-.058.074-.036.071-.034.066-.032.075-.036.061-.03.074-.036.067-.032.107-.051.089-.043.069-.033.066-.031.075-.036.065-.031.071-.034.073-.035.092-.044.1-.046.075-.035.062-.03.076-.036.063-.03.072-.034.073-.034.1-.045.1-.045.065-.03.073-.035.066-.031.079-.037.06-.028.085-.04.056-.026.126-.059.071-.033.066-.031.074-.034.066-.031.071-.033.071-.033.094-.044.1-.047.065-.03.071-.033.071-.033.07-.032.069-.032.077-.036.059-.027.128-.059.068-.031.07-.032.073-.034.067-.031.069-.032.076-.035.095-.043.1-.044.072-.033.063-.029.075-.034.068-.031.07-.032.067-.03.142-.065.054-.025.076-.034.063-.029.079-.036.058-.026.078-.035.062-.028.132-.059.07-.032.073-.033.064-.029.076-.034.067-.03.07-.031.082-.036.056-.025.131-.058.066-.029.073-.033.072-.032.07-.031.066-.029.083-.037.059-.026.13-.058.064-.028.074-.033.069-.03.075-.033.067-.029.079-.035.06-.027.129-.057.067-.029.073-.032.072-.031.07-.031.067-.029.081-.036.061-.026.132-.058.057-.025.064-.035.069-.03.073-.032.068-.03.078-.034.062-.027.13-.056.064-.027.078-.034.067-.029.078-.033.061-.026.088-.038.057-.024.131-.056.062-.026.078-.033.067-.028.081-.035.061-.026.087-.037.055-.023.132-.056.063-.027.079-.034.069-.029.072-.031.068-.029.079-.033.063-.026.133-.056.058-.024.08-.034.07-.029.076-.032.065-.027.086-.036.055-.023.134-.056.06-.025.08-.033.07-.029.074-.031.065-.027.082-.034.062-.026.133-.055.054-.022.086-.035.064-.026.084-.035.059-.024.09-.037.054-.022.134-.055.058-.024.084-.034.068-.028.076-.031.063-.026.089-.036.055-.022.136-.055.054-.022.089-.04.066-.027.081-.033.061-.025.091-.037.052-.021.135-.055.06-.024.082-.033.068-.027.079-.032.061-.025.095-.038.05-.02.138-.055.049-.02.092-.037.063-.025.084-.033.062-.025.084-.033.061-.024.134-.053.056-.022.086-.034.069-.027.074-.029.068-.027.083-.033.06-.024.136-.053.049-.019.093-.036.063-.025.083-.032.062-.024.094-.037.049-.019.139-.054.053-.021.09-.035.065-.025.083-.032.059-.023.1-.037.05-.019.141-.054.039-.015.1-.04.056-.022.092-.035.056-.021.1-.038.045-.017.141-.054.048-.018.1-.037.061-.023.087-.033.057-.022.1-.038.045-.017.144-.054.032-.012.111-.042.058-.022.089-.034.058-.022.1-.036.049-.018.141-.053.045-.017.1-.037.061-.023.088-.033.058-.021.1-.036.052-.019.139-.052.049-.018.095-.035.063-.023.085-.031.061-.023.09-.033.056-.021.138-.051.05-.018.095-.035.066-.024.079-.029.067-.025.084-.031.061-.022.137-.05.05-.018.094-.034.063-.023.086-.031.06-.022.1-.035.049-.018.143-.051.04-.014.106-.038.059-.021.09-.032.057-.02.1-.036.047-.017.145-.052.029-.01.117-.042.051-.018.1-.036.051-.018.106-.038.042-.015.145-.051.034-.012.111-.039.06-.021.088-.031.058-.02.1-.035.047-.017.146-.051.025-.009.119-.041.056-.02.1-.034.05-.017.108-.038.041-.014.146-.051.034-.012.113-.039.054-.019.1-.035.045-.016.115-.039.037-.013.148-.051.023-.008.122-.042.052-.018.1-.035.05-.017.1-.035.046-.016.146-.049.029-.01.119-.04.053-.018.1-.033.05-.017.111-.037.038-.013.151-.051h.008l.137-.046.05-.017.105-.035.045-.015.121-.04.027-.009.154-.051h.01l.136-.045.049-.016.1-.034.047-.016.111-.037.042-.014.148-.049.022-.007.126-.041.049-.016.105-.034.048-.016.109-.036.042-.014.147-.048.03-.01.118-.038.054-.017.1-.032.051-.016.111-.036.039-.013.152-.049.144-.046.05-.016.1-.033.051-.016.106-.034.044-.014.148-.047.026-.008.121-.039.055-.018.1-.031.052-.016.108-.034.044-.014.148-.047.025-.008.122-.039.055-.017.1-.031.054-.017.1-.032.048-.015.148-.046.023-.007.125-.039.055-.017.1-.03.056-.017.1-.032.049-.015.148-.046.02-.006.127-.039.056-.017.1-.03.054-.017.1-.032.047-.014.148-.045.024-.007.124-.038.058-.018.093-.028.057-.017.1-.031.051-.015.147-.044.023-.007.125-.038.054-.016.1-.03.054-.016.1-.03.05-.015.145-.043.034-.01.117-.035.059-.017.092-.027.06-.018.1-.029.047-.027.149-.044h.007l.141-.042.05-.014.1-.03.054-.016.1-.031.046-.014.15-.044h.016l.135-.039.048-.014.107-.031.046-.013.117-.034.037-.011.3-.088.046-.013.109-.031.048-.014.109-.031.044-.013.151-.043h.012l.139-.039.05-.014.1-.029.051-.014.109-.031.044-.012.3-.085.049-.014.107-.03.049-.014.113-.031.04-.011.3-.085.05-.014.105-.029.05-.014.109-.03.046-.013.3-.083.048-.013.109-.03.049-.013.109-.03.046-.012.152-.041h.007l.144-.039.052-.014.1-.028.051-.014.111-.03.043-.012.3-.082.048-.013.108-.029.05-.013.108-.029.048-.013.15-.04h.005l.147-.039.055-.014.1-.026.055-.015.105-.028.049-.013.15-.039.15-.039.054-.014.1-.026.06-.016.1-.025.057-.015.133-.034.027-.007.14-.036.055-.014.1-.025.057-.014.1-.026.052-.013.145-.037h.007l.15-.038.053-.013.1-.026.051-.013.112-.028.042-.011.308-.077.046-.012.111-.028.047-.012.116-.029.04-.01.311-.077.035-.009.124-.031.038-.009.121-.03.038-.009.152-.037.154-.038.047-.011.108-.026.051-.012.112-.027.044-.011.308-.074.046-.011.109-.026.054-.013.108-.026.045-.011.151-.036.154-.037.085-.03.112-.027.047-.011.116-.027.042-.01.15-.035.153-.036.048-.011.111-.026.05-.012.109-.025.048-.011.132-.031.024-.006.151-.035.054-.012.1-.023.06-.014.1-.023.056-.013.14-.032h.011l.154-.035.047-.011.11-.025.053-.012.11-.025.044-.01.153-.035.157-.035.043-.01.115-.026.046-.01.116-.026.044-.01.144-.032h.011l.155-.034.045-.01.112-.025.054-.012.1-.023.053-.012.125-.027.031-.007.151-.033.052-.011.105-.023.054-.012.108-.023.049-.011.309-.066.049-.01.107-.023.056-.012.105-.022.05-.011.137-.029h.019l.154-.033.048-.01.11-.023.051-.011.11-.023.05-.01.15-.032h.016l.154-.032.051-.011.107-.022.056-.012.1-.021.057-.012.123-.025.032-.007.153-.031.048-.01.108-.022.055-.011.105-.021.054-.011.132-.027h.022l.154-.031.048-.01.112-.023.05-.01.112-.023.046-.009.137-.027h.021l.156-.031.045-.009.113-.022.05-.01.112-.022.048-.009.145-.029h.009l.159-.031.038-.007.121-.024.047-.009.113-.022.048-.009.136-.026h.021l.155-.03.049-.009.108-.021.055-.01.107-.02.051-.01.14-.026h.015l.157-.03.045-.008.113-.021.054-.01.11-.021.047-.009.136-.025h.022l.158-.029.038-.007.126-.046.04-.007.125-.023.038-.007.149-.027h.009l.161-.029.036-.007.124-.022.047-.008.116-.021.046-.008.135-.024h.023l.158-.028.039-.007.12-.021.048-.009.116-.021.044-.008.149-.026h.008l.164-.029h.027l.133-.023.041-.007.124-.022.038-.007.149-.026h.01l.163-.028.029-.005.13-.022.044-.008.122-.021.039-.007.156-.045.165-.028h.026l.135-.023.039-.007.124-.021.04-.007.14-.023h.021l.162-.038h.031l.129-.021.045-.007.12-.02.042-.007.156-.025.165-.027h.03l.13-.021.045-.007.12-.019.043-.007.141-.023h.018l.161-.026.037-.006.122-.019.049-.008.113-.018.05-.008.124-.02.035-.005.156-.024.046-.007.114-.018.055-.009.106-.016.055-.009.121-.019.038-.006.157-.024.04-.006.121-.018.049-.007.113-.017.051-.008.135-.02h.021l.16-.024.04-.006.121-.018.049-.007.116-.017.045-.007.14-.021h.02l.161-.024.039-.006.12-.018.051-.007.113-.016.05-.007.134-.019h.024l.162-.023h.03l.131-.019.046-.007.112-.04.053-.007.123-.017.037-.005.157-.022.044-.006.115-.016.055-.008.109-.015.054-.007.129-.018h.028l.16-.022.04-.005.122-.017.05-.007.114-.015.049-.007.131-.018h.035l.157-.021.043-.006.119-.016.05-.007.115-.015.05-.007.126-.017h.035l.158-.021.041-.005.12-.016.054-.007.106-.014.058-.007.12-.015h.038l.159-.02.04-.005.12-.015.054-.007.108-.014.057-.007.125-.016h.032l.161-.02h.036l.125-.015.051-.006.113-.014.048-.006.131-.016h.032l.161-.019h.035l.127-.015.049-.006.116-.014.051-.006.125-.015h.035l.159-.019h.039l.124-.014.051-.006.109-.013.056-.007.119-.014h.041l.159-.018h.04l.12-.014.055-.006.111-.013.053-.006.13-.015h.029l.163-.018h.034l.129-.014.05-.006.112-.012.054-.006.119-.013h.044l.158-.017h.042l.117-.013.058-.006.108-.012.056-.006.116-.012h.045l.157-.017h.043l.121-.013.053-.005.11-.011.056-.006.116-.012h.047l.158-.016h.04l.119-.012.059-.006.105-.011.059-.006.116-.012h.044l.157-.016h.049l.112-.011.062-.006.1-.01.06-.006.115-.011h.047l.157-.015h.045l.116-.108.056-.005.108-.01.059-.005.113-.011h.048l.157-.015h.038l.127-.012h.049l.114-.01h.055l.116-.01h.047l.157-.014h.041l.121-.011h.054l.111-.01h.055l.127-.011h.033l.165-.056h.03l.133-.011h.05l.114-.01h.051l.13-.011h.032l.165-.014h.021l.144-.012h.04l.126-.01h.045l.132-.011h.031l.166-.041h.026l.138-.011h.046l.12-.011h.052l.122-.009h.042l.161-.012h.03l.133-.01h.051l.109-.022h.056l.118-.009h.044l.164-.016h.031l.133-.01h.048l.118-.008h.049l.13-.009h.034l.164-.012h.024l.14-.01h.047l.119-.008h.051l.13-.032h.039l.161-.011h.029l.137-.009h.047l.118-.008h.052l.117-.018h.042l.162-.01h.028l.136-.009h.052l.113-.007h.056l.127-.008h.034l.167-.01h.017l.147-.021h.046l.12-.007h.05l.123-.007h.043l.162-.009h.031l.132-.007h.053l.114-.006h.054l.12-.007h.044l.162-.009h.029l.136-.03h.051l.114-.006h.056l.117-.012h.047l.162-.008h.028l.134-.007h.056l.109-.005h.059l.116-.006h.047l.163-.008h.024l.139-.007h.056.108.059l.116-.005h.048l.162-.007h.022l.141-.006h.053.113.058.116.046l.165-.007h.011l.155-.006h.044.12.053.118.049l.165-.065h.013l.151-.006h.047.119.053.124.041l.164-.006h.023.141.054.11.059.116.049l.162-.005h.02.145.049.117.055.119.046.163.024.142.052.111.062.164.163.017.146.168.056.12.045.165.167.166.177.042.165.164.167.174.211.167.161.171.211.172.166.176.207.17 1.991z" fill="#363739" transform="matrix(.93969262 -.34202014 .34202014 .93969262 -10.609 148.532)"/></svg>