<svg height="500" viewBox="0 0 370 500" width="370" xmlns="http://www.w3.org/2000/svg" xmlns:xlink="http://www.w3.org/1999/xlink"><clipPath id="a"><path d="m0 0h370v500h-370z"/></clipPath><clipPath id="b"><path d="m0 0h500v370h-500z"/></clipPath><g fill="none" stroke="#707070"><g clip-path="url(#a)"><path d="m0 0v500" transform="translate(.5)"/><path d="m0 0v500" transform="translate(41.5)"/><path d="m0 0v500" transform="translate(82.5)"/><path d="m0 0v500" transform="translate(123.5)"/><path d="m0 0v500" transform="translate(164.5)"/><path d="m0 0v500" transform="translate(205.5)"/><path d="m0 0v500" transform="translate(246.5)"/><path d="m0 0v500" transform="translate(287.5)"/><path d="m0 0v500" transform="translate(328.5)"/><path d="m0 0v500" transform="translate(369.5)"/></g><g clip-path="url(#b)" transform="matrix(0 1 -1 0 370 0)"><path d="m0 0v500" transform="translate(.5)"/><path d="m0 0v500" transform="translate(41.5)"/><path d="m0 0v500" transform="translate(82.5)"/><path d="m0 0v500" transform="translate(123.5)"/><path d="m0 0v500" transform="translate(164.5)"/><path d="m0 0v500" transform="translate(205.5)"/><path d="m0 0v500" transform="translate(246.5)"/><path d="m0 0v500" transform="translate(287.5)"/><path d="m0 0v500" transform="translate(328.5)"/><path d="m0 0v500" transform="translate(369.5)"/><path d="m0 0v500" transform="translate(410.5)"/><path d="m0 0v500" transform="translate(451.5)"/><path d="m0 0v500" transform="translate(492.5)"/></g></g></svg>