<svg height="153.477" viewBox="0 0 209.968 153.477" width="209.968" xmlns="http://www.w3.org/2000/svg"><path d="m94.522 0a94.522 94.522 0 0 1 94.522 94.522v.271.033.092s0 .038 0 .06 0 .045 0 .07 0 .054 0 .082 0 .035 0 .054 0 .067 0 .1v.047.105s0 .037 0 .059 0 .06 0 .092 0 .043 0 .069 0 .055 0 .084 0 .043 0 .065 0 .055 0 .087v.059.094.06.09.065.088s0 .044 0 .063v.088.067.086.062.09.063.088.072.079.07.081.069.082.067.084.071.08.071.081.07.081.067.085.068.083.068.083.066.086.064.085.068.084.064.086.067.083.067.083.071.08.07.08.073.079.069.081.071.08.069.081.07.081.069l-.005.081v.071l-.005.079v.069l-.005.081v.07l-.005.08v.07l-.005.079-.005.076-.005.073-.005.075-.005.075-.005.074-.006.075-.005.072-.006.078-.006.073-.006.076-.006.071-.006.08-.005.069-.006.08-.006.069-.007.08-.006.07-.007.08-.006.066-.007.084-.006.067-.007.08-.006.069-.007.08-.006.072-.007.075-.007.074-.007.075-.007.074-.007.076-.007.07-.007.079-.007.07-.008.079-.007.068-.008.082-.007.067-.008.081-.007.068-.008.08-.007.072-.008.075-.007.072-.008.076-.008.073-.008.077-.007.07-.008.077-.008.074-.008.072-.008.075-.008.074-.008.072-.009.077-.008.071-.009.076-.009.075-.008.073-.008.073-.009.076-.009.072-.009.076-.008.071-.009.077-.009.072-.009.076-.009.07-.009.076-.009.072-.01.077-.009.068-.01.078-.009.072-.01.074-.009.073-.01.074-.01.074-.01.074-.009.072-.01.074-.01.076-.01.072-.01.073-.01.074-.01.073-.01.076-.009.068-.011.077-.01.073-.01.074-.01.072-.011.075-.011.074-.011.073-.01.071-.011.076-.01.072-.011.075-.01.07-.011.076-.011.072-.011.075-.01.069-.012.077-.011.072-.011.072-.011.073-.011.074-.011.073-.012.075-.011.068-.012.079-.011.069-.012.076-.011.069-.013.078-.011.069-.013.078-.011.066-.013.078-.012.071-.012.074-.011.069-.013.079-.011.067-.013.078-.011.066-.013.077-.012.07-.013.075-.012.068-.014.078-.012.069-.013.076-.012.068-.013.075-.013.074-.012.067-.014.076-.013.073-.013.071-.014.079-.012.065-.015.08-.012.066-.015.082-.011.061-.016.084-.012.062-.016.085-.011.059-.016.083-.012.063-.016.083-.011.059-.016.084-.012.062-.016.083-.012.059-.017.085-.012.06-.018.088-.011.053-.018.092-.011.054-.019.093-.01.049-.018.087-.012.06-.016.079-.013.063-.017.083-.013.061-.018.088-.011.054-.018.087-.012.059-.019.088-.011.053-.019.091-.012.054-.019.09-.011.052-.018.085-.013.061-.018.082-.013.059-.019.085-.013.059-.019.085-.013.057-.019.084-.013.06-.02.087-.012.054-.02.087-.013.057-.021.094-.011.047-.021.089-.013.055-.019.083-.013.058-.021.09-.012.052-.024.1-.009.039-.024.1-.01.043-.028.118-.005.023-.028.116-.007.027-.06.247-.009.038-.065.264v.019q-.176.71-.362 1.416c-.05.188-.1.371-.149.559l-.005.02-.033.121v.018l-.033.122-.007.025-.032.117-.006.02-.033.119-.01.036-.029.105-.009.033-.03.106-.01.036-.03.106-.009.031-.03.107-.012.044-.028.1-.01.035-.03.1-.011.038-.03.1-.01.035-.03.1-.012.042-.029.1-.009.032-.031.106-.01.035-.031.106-.01.034-.03.1-.014.046-.028.095-.012.041-.029.1-.013.045-.029.1-.013.043-.028.094-.015.048-.028.092-.013.043-.029.1-.013.041-.031.1-.012.039-.03.1-.015.048-.028.091-.015.047-.028.09-.016.05-.028.089-.016.049-.028.087-.016.052-.028.088-.015.047-.029.09-.015.046-.03.094-.013.042-.03.094-.016.05-.029.088-.016.048-.029.09-.015.046-.031.094-.014.043-.031.093-.015.046-.031.095-.013.038-.033.1-.013.04-.033.1-.013.04-.032.094-.017.049-.03.089-.015.045-.031.091-.015.045-.032.093-.015.044-.031.09-.017.049-.032.091-.014.041-.033.094-.015.044-.033.095-.014.04-.033.093-.017.048-.032.089-.016.046-.032.09-.016.046-.033.093-.015.041-.034.094-.016.043-.034.093-.015.041-.034.095-.015.04-.035.1-.016.043-.032.088-.019.051-.032.086-.017.047-.033.089-.016.044-.035.094-.015.041-.034.092-.016.044-.035.093-.015.04-.035.094-.015.041-.036.095-.016.042-.034.09-.017.045-.036.093-.015.039-.036.1-.015.039-.037.1-.015.038-.036.093-.017.043-.036.092-.016.042-.036.093-.016.04-.037.1-.015.039-.036.091-.018.045-.036.09-.016.041-.037.093-.016.04-.038.094-.016.04-.037.091-.017.042-.038.095-.015.036-.039.1-.014.036-.04.1-.014.035-.038.094-.017.041-.039.1-.231.007-.04.1-.015.037-.04.1-.015.037-.039.094-.016.04-.04.1-.014.033-.042.1-.014.033-.041.1-.015.035-.04.094-.017.04-.041.1-.015.034-.041.1-.015.036-.042.1-.014.033-.041.1-.016.038-.042.1-.014.033-.044.1-.013.031-.044.1-.014.032-.042.1-.016.036-.043.1-.014.033-.044.1-.013.029-.046.1-.012.026-.045.1-.013.029-.046.1-.012.028-.047.1-.011.026-.048.106-.011.025-.046.1-.014.03-.047.1-.012.025-.049.107-.01.022-.051.111-.008.019-.05.109-.01.022-.053.115-.006.014-.054.117-.006.013-.054.115-.007.015-.052.111-.009.019-.053.114-.007.015-.055.116-.006.013-.057.121v.008l-.057.121v.009l-.06.126-.183.383v.006q-1.991 4.132-4.362 8.032c-.2.325-.395.645-.6.967-.1.161-.2.319-.3.479l-.228.359-.075.117v.007l-.073.114-.23.356-.232.355-.076.115v.005c-.209.317-.415.626-.627.94v.007l-.076.112-.079.116-.159.233c-.107.156-.212.309-.32.465l-.324.464-.325.461v.007l-.079.111-.081.114-.165.23-.332.458a94.384 94.384 0 0 1 -75.485 38.902l-.987-96.476z" fill="#fff" transform="matrix(.34202014 -.93969262 .93969262 .34202014 -32.329 177.644)"/></svg>