<svg height="500pt" preserveAspectRatio="xMidYMid meet" viewBox="0 0 500 500" width="500pt" xmlns="http://www.w3.org/2000/svg"><g transform="matrix(.1 0 0 -.1 0 500)"><path d="m2340 4981c0-5-8-11-17-15-10-3-25-10-33-15-8-6-32-13-52-16-21-3-50-18-68-35s-37-27-42-24c-21 13-100 4-136-15-20-11-55-22-77-24-40-5-101-25-163-54-26-12-35-13-47-3-18 15-47 6-39-14 3-8 1-17-5-21-6-3-11-17-11-30s-8-29-18-34c-18-9-112-141-112-156 0-5-11-20-24-34-25-27-60-116-51-131 3-5 1-11-5-15-5-3-10-17-10-30 0-22-16-68-41-118-21-41-30-163-18-253 7-49 14-153 15-232 2-78 8-159 12-180 13-56 1-80-37-74-25 3-33-1-51-29-18-29-21-44-16-107 4-47 14-88 30-120 13-26 34-81 46-122s25-79 29-85c4-5 16-32 25-60 10-27 26-57 35-65 37-36 40-50 56-298 2-36 13-82 24-106 18-35 49-126 53-153 1-5 23-35 50-68 26-33 48-70 48-82s3-28 6-36c8-23-76-76-141-89-30-6-55-15-55-19 0-14-61-41-77-35-9 4-38-13-75-44-33-27-69-50-81-50-28 0-186-68-212-90-11-10-45-26-75-36-30-9-68-26-84-37-15-11-54-23-85-27s-46-8-33-9c29-1 20-17-13-24-19-3-25-1-21 9 4 11 2 11-14 1-11-6-20-15-20-18 0-4-10-9-22-12-12-4-20-9-17-12 10-9 157 32 196 55 32 19 37 20 45 6 5-9 18-16 29-16s18 4 14 10c-3 5-12 7-20 3-8-3-15-1-15 5 0 5 9 12 20 15 12 3 18 1 14-5s-1-9 7-6c8 2 20 16 27 31 14 29 66 51 127 53 62 2 76 7 104 34l26 25 3-37c2-21 8-38 14-38 5 0 8-7 4-15-3-9 0-15 10-15 8 0 22-17 30-37 8-21 19-46 24-55 6-10 10-25 10-33s5-15 11-15 8-9 4-20c-5-15-2-20 12-20 15 0 39-38 44-70 0-3 6-11 11-18 9-11 13-11 19 0 7 10 9 10 9 1 0-7 8-13 18-14 12 0 10-3-8-11-21-9-22-12-7-15 9-3 17-11 17-20s6-13 15-9c10 4 15-1 15-15 0-11 11-31 25-45s25-29 25-33c0-5 15-7 33-5 17 1 40 3 50 3 16 1 15 5-8 35-15 19-25 36-24 38 7 7-37 68-48 68-9 0-11 8-7 24 4 18 0 30-15 43-12 9-21 24-21 33 0 8-9 30-20 48s-18 37-15 43c4 5-1 16-9 25-9 9-14 19-11 24 3 4-2 13-10 20s-13 16-10 20c2 4-8 17-23 28-24 19-27 26-24 72 2 27 8 50 13 50s9-4 9-10c0-5 5-10 11-10s8 10 5 23c-3 12 1 8 9-9 8-18 25-40 38-51 13-10 30-29 36-42 10-17 15-20 21-11 11 18 32-23 24-47-5-14-4-15 4-4 8 12 14 7 29-25 10-21 24-45 31-53 7-7 11-20 8-27-3-8 0-14 7-14s21-11 31-25c10-13 22-22 26-20 4 3 10-1 13-9 3-7 19-16 36-19 17-4 40-16 52-28l22-22-7 27c-4 18-2 26 6 26 7 1-8 20-35 45-26 24-47 47-47 51 0 5 17-8 38-28 86-83 276-182 421-219 78-20 157-26 114-9-12 5-27 18-33 29-6 12-18 21-27 21-10 0-14 6-10 19 3 13-5 24-25 36-17 10-26 20-22 24 5 3 14 15 20 26 9 16 8 23-5 33-14 11-13 12 5 3 27-13 39-2 16 15-15 12-13 13 15 9 33-4 83-31 83-46 0-5 7-9 15-9s15 5 15 10c0 6-5 10-11 10-5 0-7 5-4 10 10 16 25 1 25-25 0-13 5-27 12-31 8-5 9-2 5 9s-1 17 8 17c18 0 18 5 5 29-7 14-5 23 10 36 11 10 20 13 20 8 0-6 9-13 20-16 15-4 20 0 21 16 0 12 3 16 6 10 2-7 11-13 18-13s15-4 17-9 12 2 22 17c11 14 14 22 8 18-7-4-12-1-12 7 0 10-7 13-20 10-14-4-20 0-20 10 0 8-6 18-12 21-7 3-1 3 13 0 15-3 30-1 33 5 4 7 1 8-8 5-9-4-16-1-16 6 0 8 8 10 23 6 12-3 28-6 36-6 11 0 11-3 0-17-12-16-12-17 2-5 9 7 25 10 35 7 11-4 6 1-9 10-30 17-27 40 4 32 12-3 19 0 19 9 0 10 12 14 41 14 22 0 38 4 34 9-8 13 15 26 47 26 23 0 27-3 22-20-5-15-1-13 15 8 13 15 30 27 40 27s30 14 44 32c27 32 51 33 26 1-13-16-12-17 3-5 9 8 18 23 20 35s8 22 13 23c23 1 85 39 85 51 0 16 12 17 27 2 8-8 13-7 18 1 4 6 2 17-4 23-9 9-11 7-5-8 6-16 5-18-6-8-12 11-10 17 10 35 14 13 27 22 31 21 3-1 5 9 3 23-1 13 2 22 7 18 8-5 13 9 10 29 0 4 8 7 20 7 11 0 18 4 14 10-8 14 21 79 40 86 8 3 15 15 15 27 0 11 11 34 23 51 29 38 90 162 90 182 0 8 4 14 8 14 6 0 20 44 21 67 0 5 4 15 8 23 7 13 24 149 21 175 0 6-2 66-5 135-2 69-9 138-15 153-6 16-11 39-11 51 0 13-11 44-24 69-14 25-21 47-17 49 5 2 4 32-2 68-14 85-13 113 3 188 7 37 18 62 26 62 7 0 16 10 19 23 4 12 17 33 28 47 12 14 15 19 7 13-8-7-16-13-19-13-4 0-7 35-9 77-2 70-6 107-16 168-2 11-7 45-11 75-3 30-8 57-10 61-3 3-7 42-10 85-6 91-34 254-46 269-4 6-11 31-15 55-4 25-12 52-19 60s-15 27-19 42c-3 14-34 52-69 85-35 32-70 69-77 83-21 41-177 190-199 190-11 0-23 5-26 10-4 6-21 17-38 26-18 8-52 26-77 39s-48 21-52 19c-4-3-21 2-37 11-17 8-39 16-50 18s-24 6-27 10c-4 4-25 7-46 7-23 0-58 10-84 25-49 28-54 29-54 16zm392-681c-4-11 1-10 18 5 16 14 24 16 27 8 3-7 13-13 23-13s21-4 25-10c3-5 13-6 21-3 9 3 21-3 30-16 8-11 22-21 30-21s14-6 13-12c-3-26 1-38 15-38 7 0 19-14 26-31s18-36 24-42c35-36 55-75 49-97-5-19-3-22 11-17 9 4 14 3 11-2s-1-12 5-16 8-10 5-15 1-23 10-40c9-18 18-53 20-78 2-26 10-60 19-77 8-16 12-32 7-35-13-9-22-42-9-34 8 5 9 2 5-10-4-9-3-15 2-12s12-1 15-10c5-12 2-15-11-10-14 6-13 2 5-17 12-13 22-28 22-34 0-5 11-23 24-38 14-16 23-31 21-35-2-3 1-12 7-20 8-12 9-12 4 3-7 23 6 22 21-2 10-16 8-20-11-29-22-10-22-14-14-69 4-32 19-94 32-138s22-96 21-115c-12-133-14-199-5-205 19-12 11-26-8-16-15 8-18 6-18-12 1-12 5-25 10-28 5-4 6-15 2-25-6-16-8-16-16-4-6 8-10 11-10 5 0-5 9-21 19-34 17-22 17-26 4-39-13-14-12-17 14-28 15-7 23-13 16-13-8-1-9-10-3-30 4-15 4-35-1-42-4-8-6-31-2-53 6-36 5-38-15-27-29 16-35 14-29-9 3-11 1-23-4-26-14-8-23 27-12 45 6 9 14 31 18 49 3 18 11 29 16 26 6-4 6-10 0-18-10-12-4-56 8-56 10 0 5 68-6 82-17 22-26 44-10 25 11-13 17-15 22-6 5 7-2 19-16 30-22 17-24 17-30 1-4-9-2-22 3-29 6-8 6-24-2-47-13-42-36-64-36-36 0 10 3 17 7 14 14-8 17 25 4 36-8 6-12 17-9 24s-2 19-11 26c-9 8-15 8-15 2s4-13 10-17c5-3 7-12 3-21-4-11-9-12-19-3-11 9-14 9-14 0 0-7-5-9-12-5s-8 3-4-5c4-6 12-9 17-6 5 4 4-6-3-21-11-24-13-25-16-8-7 33-21 38-28 9-6-25-10-27-49-23-34 4-42 2-42-11 0-9 6-20 13-26 19-15 21-58 4-73-11-10-11-11-1-6 9 5 12 3 7-4-11-18-34-14-40 6-3 9-4 38-2 65 2 26 0 47-5 47s-9 9-9 19c0 11-15 28-35 40-19 11-35 25-35 30 0 15-47 81-75 105-14 12-25 27-25 34s-3 11-7 11c-5-1-23 4-40 11-32 12-41 24-25 33 4 2 1 2-5 1-7-2-13 1-13 6 0 6 5 10 10 10 6 0 10 6 10 12 0 7-10 1-23-12-22-24-26-70-6-70 5 0 9-9 9-21s19-39 45-63c32-29 42-45 36-55-7-11-11-10-19 5-15 26-25 12-13-19 8-22 7-24-10-20-10 3-17 9-14 13 3 5-4 6-15 3-12-3-20 0-20 7 0 10-3 10-14 1s-17-8-29 3c-13 14-16 13-21-7-6-20-7-20-17-5-5 10-19 23-31 29-15 8-19 8-14 0 9-14-17-14-31 0-9 9-20 6-45-9-42-26-111-26-135 0-14 16-13 17 10 12 32-5 49 20 36 53-7 18-5 25 6 29 9 4 15 19 15 36 0 27-2 29-17 17-11-10-14-10-9-1 4 7 1 12-8 12s-16 7-16 16c0 14 3 14 15 4 13-11 13-7-1 31-8 24-17 64-20 89-9 89-11 160-3 160 4 0 4 12 0 28-4 15-4 43 0 62 5 20 4 39-2 47-6 6-9 21-7 32s-6 26-17 35c-18 13-21 12-36-11-16-24-16-24-22-4-3 12-2 19 1 17 4-2 13 3 21 11 11 12 10 15-7 20-26 6-39 35-14 31 13-2 17 4 16 30-2 40 11 42 19 4 3-17 18-37 34-47 15-10 22-12 16-4-15 15-17 49-3 49 5 0 7-6 4-14s-1-16 4-20c5-3 8 5 7 17s3 28 9 36c8 11 8 13-1 8-16-10-22 13-11 43 7 19 7 22-3 13-6-6-18-9-25-6-8 3-14 0-14-6s5-11 10-11c6 0 10-7 10-15 0-23-17-18-24 8-8 31-7 74 2 61 4-7 16-8 27-4 20 7 20 7-1 14-18 5-21 15-21 54 0 26 4 52 9 59 11 14-2 23-28 19-28-5-37 4-22 22 10 12 10 16 1 19-7 3-13 9-13 15 0 7 5 6 14-1 12-10 17-8 25 8 9 15 8 22-2 28-8 4-19 17-25 28s-12 15-12 8-7-10-15-7c-8 4-15 1-15-5 0-7-13-9-35-6-22 2-35 0-35-7s-6-4-13 7c-12 15-12 23 0 47 8 15 18 26 23 23 4-3 6 3 3 14-3 10 0 22 6 25 6 4 11 2 11-5 0-6 8-17 17-24 14-11 20-9 35 10 10 13 18 30 18 38 0 24-11 47-20 42-5-3-12 0-16 6-4 8-3 9 4 5s12-1 12 9c0 9 6 15 13 14 6-1 27-1 46 0 25 1 32 5 28 16-4 8-1 17 5 21 7 4 8 3 4-4s-1-12 8-12c8 0 18 5 21 10 8 13 82 48 109 52 23 3 96 69 90 80-2 4 8 8 23 10 18 2 29 10 31 22 3 11 0 16-7 12-6-4-11-2-11 3 0 13 17 14 24 2 6-9 66 8 66 19 0 3 8 6 19 6 13 0 17-5 13-16zm-472-280c0-5-7-10-16-10-8 0-12 5-9 10 3 6 10 10 16 10 5 0 9-4 9-10zm-80-30c0-5-4-10-10-10-5 0-10 5-10 10 0 6 5 10 10 10 6 0 10-4 10-10zm-26-43c-8-4-14-15-14-22 0-8-4-15-10-15-13 0-13 26 0 51 9 15 13 17 24 7 12-11 12-14 0-21zm33-109c-3-8-6-5-6 6-1 11 2 17 5 13 3-3 4-12 1-19zm-12-177c-3-5 4-16 16-25 20-14 20-16 5-38l-17-23 3 25c2 18-2 25-13 24s-14 5-11 22c2 13 9 24 14 24s7-4 3-9zm55-56c-7-9-15-13-17-11-7 7 7 26 19 26 6 0 6-6-2-15zm50-35c0-5-5-10-11-10-5 0-7 5-4 10 3 6 8 10 11 10 2 0 4-4 4-10zm-85-80c4-11 11-17 17-14 7 4 8 2 4-4-11-18-23-14-29 8-4 14-11 18-24 14-15-5-15-4-3 5 21 15 28 14 35-9zm-168-242c-3-8-6-5-6 6-1 11 2 17 5 13 3-3 4-12 1-19zm1004-622c15-13 25-27 22-30-10-10-23-7-23 5 0 6-10 19-22 30-13 10-19 18-14 19 4 0 21-11 37-24zm-296-45c3-5-4-12-14-16-14-4-21-17-23-43-2-28-7-37-20-36-10 1-21-10-27-27-11-33-25-37-41-11-10 16-10 16-20 0-6-10-21-18-34-18-15 0-26-7-29-20-7-26-83-33-98-9-3 6-8 3-11-9-4-15-12-18-39-14-42 6-54 19-54 59 0 44 25 69 54 54 16-9 26-8 46 5 14 9 25 20 25 24 0 15 53 22 61 8 6-9 12-8 27 5 22 20 36 22 26 5-5-10-4-10 6-1 7 6 18 10 24 9 6-2 8-1 4 1-5 3-8 8-8 13 0 7 13 5 75-10 21-5 29 1 15 11-13 9-13 10 2 6 9-3 19 1 22 9 6 16 22 19 31 5zm473-26c-3-3-9 2-12 12-6 14-5 15 5 6 7-7 10-15 7-18zm-221-57c-3-8-6-5-6 6-1 11 2 17 5 13 3-3 4-12 1-19zm200 15c-4-3 0-15 10-25 20-22 1-24-22-2-13 14-14 19-3 25 16 10 24 12 15 2zm-361-44c1-19 2-38 4-44 4-23-2-110-11-132-5-13-5-23 1-23 5 0 5-12 0-29-7-25-6-29 8-25 16 5 15 4 0-8-15-13-15-18-3-41 10-19 10-27 2-31-9-5-9-8 1-12 22-10 13-21-15-17-23 4-25 2-11-7 16-10 16-13 1-45-10-22-20-32-26-26-5 5-16 7-23 4-8-3-14 0-14 6s5 11 11 11c5 0 7 5 3 11-5 8-9 8-14-1-4-7-13-10-19-6-13 8-83-3-77-13 2-3-6-11-19-17-20-10-22-9-18 10s3 19-7 4c-14-22-40-12-40 16 0 17 2 18 10 6 5-8 10-13 11-10 5 25 4 48-1 45-4-2-5 6-4 18s3 26 3 30c1 5 6 5 11 2 6-3 10-2 10 4 0 5-6 12-12 15-7 3-2 4 12 3 15-2 24-8 22-16-3-12 0-12 12-2 8 6 13 23 11 37-2 19 1 23 16 19 23-8 33 9 19 34-11 21 4 71 22 71 4 0 8 7 8 16 0 14-1 14-16 0-8-9-18-16-22-17-26-3-60-12-120-32-55-18-71-21-80-10-15 16-15 24 0 20 6-1 18 10 25 26 8 15 32 36 53 47s42 24 45 30c10 16 85 51 95 45 6-3 10-1 10 4 0 6 4 10 9 9 12-4 91 44 91 55 0 5 6 7 13 4 6-2 13-19 13-38zm370-37c-9-8-26 10-26 26 1 15 2 15 15-2 8-11 13-21 11-24zm-16-61c0-6-4-13-10-16-5-3-10 1-10 9 0 9 5 16 10 16 6 0 10-4 10-9zm-336-307c11-28 6-38-9-18-8 10-15 22-15 27 0 13 18 7 24-9zm-1434-134c0-5-4-10-10-10-5 0-10 5-10 10 0 6 5 10 10 10 6 0 10-4 10-10zm-305-120c-3-5-12-10-18-10-7 0-6 4 3 10 19 12 23 12 15 0zm1335-140c0-5-2-10-4-10-3 0-8 5-11 10-3 6-1 10 4 10 6 0 11-4 11-10zm-850-300c0-5-4-10-9-10-6 0-13 5-16 10-3 6 1 10 9 10 9 0 16-4 16-10zm-7-35c-3-9-8-14-10-11-3 3-2 9 2 15 9 16 15 13 8-4z"/><path d="m2175 3900c3-5 8-10 11-10 2 0 4 5 4 10 0 6-5 10-11 10-5 0-7-4-4-10z"/><path d="m2376 3663c-6-14-5-15 5-6 7 7 10 15 7 18s-9-2-12-12z"/><path d="m2745 3510c-22-5-55-11-74-15-19-3-39-9-45-13-14-8-21-10-81-21-27-5-51-14-53-20s-11-11-21-11c-9 0-25-14-35-32-18-30-18-31-1-45 18-13 105-10 128 4 5 3 4-4-2-15s-21-24-32-27c-12-4-18-10-13-14 17-12 14-33-5-38-15-4-17-10-11-31 4-15 12-26 19-24 6 1 11-4 11-12 0-17 43-49 85-63 21-7 30-16 29-32 0-11 3-21 8-21s6-4 3-10 1-7 10-4c8 4 21 1 28-5 10-8 14-7 14 4 0 8-5 11-10 8s-8 0-5 8 13 16 23 18c14 2 16-1 11-15-6-18-5-18 7-2 16 20 57 21 50 1-3-7 0-13 6-13s11 5 11 11 8 8 19 4c11-3 22-1 26 5 4 7 13 6 28-2 21-11 21-10 7 7-9 12-10 16-2 11 17-10 55 36 39 46-8 5-5 8 7 8 11 0 16 3 12 7s-25 6-46 4c-47-3-85 23-50 34 11 4 18 10 15 15-11 18 31 35 89 36 34 1 69 2 79 3 21 1 23 21 2 21-8 0-15 3-15 8 0 4-26 17-57 30-32 12-71 27-88 33-16 7-34 13-40 14-27 5-28 8-5 14 14 5 32 4 41 0 8-4 28-6 45-3 16 3 44 6 62 8 31 3 81 36 56 36-6 0-31 13-55 29-35 24-46 27-58 18s-13-9-7 1c5 8-1 12-19 12-17 0-24 4-19 12 4 7 3 8-4 4s-22 0-34 8c-25 17-25 17-83 6zm19-216c3-8 2-12-4-9s-10 10-10 16c0 14 7 11 14-7zm-74-189c0-12-19-12-23 0-4 9-1 12 9 8 7-3 14-7 14-8z"/><path d="m2300 3455c0-8 9-19 20-25 23-12 25-7 10 21-13 22-30 25-30 4z"/><path d="m2934 3225c-10-8-14-15-8-15s17 7 24 15c16 19 9 19-16 0z"/><path d="m2596 3122c-4-7-2-12 4-12s8-4 5-10 1-7 9-4c9 3 16 10 16 16 0 5-4 7-9 4-5-4-11-1-13 6-3 9-6 9-12 0z"/><path d="m2743 3066c-9-11-5-18 17-35 16-11 31-17 33-13 7 10-19 32-28 24-5-4-5 3-2 16 6 25-2 28-20 8z"/><path d="m2667 3041c-3-12-1-21 3-21 15 0 23 21 12 32-6 6-11 2-15-11z"/><path d="m2680 3000c0-5 5-10 10-10 6 0 10 5 10 10 0 6-4 10-10 10-5 0-10-4-10-10z"/><path d="m2478 2799c-33-24-38-47-6-25 12 9 43 16 68 16 44 1 44 1 20 15-34 19-50 18-82-6z"/><path d="m3322 3187c-6-6-14-25-17-40-7-27-6-28 20-25 47 5 59 77 14 78-4 0-11-6-17-13z"/><path d="m3180 2039c0-9 21-22 53-34 28-10 65-27 80-38 26-17 28-24 24-61-2-22-8-52-12-66-6-20-5-23 5-13 7 6 15 40 17 76l6 65-43 31c-27 19-55 31-75 31-17 0-36 5-43 12-9 9-12 9-12-3z"/><path d="m1183 1765c-3-9-3-18-1-21 3-3 8 4 11 16 6 23-1 27-10 5z"/><path d="m2619 1713c-13-16-12-17 4-4s21 21 13 21c-2 0-10-8-17-17z"/><path d="m890 1672c0-5-8-8-18-5-23 6-65-40-69-75l-3-27 30 35c17 19 44 40 61 45 28 10 29 12 15 24-9 8-16 9-16 3z"/><path d="m1100 1650-25-8 28-1c15-1 27 4 27 9 0 6-1 10-2 9-2-1-14-5-28-9z"/><path d="m553 1615c-18-8-33-16-33-19 0-4 31 4 100 27 8 3 4 6-10 6s-40-6-57-14z"/><path d="m640 1610c-9-6-10-10-3-10 6 0 15 5 18 10 8 12 4 12-15 0z"/><path d="m688 1613c7-3 16-2 19 1 4 3-2 6-13 5-11 0-14-3-6-6z"/><path d="m380 1560c-8-5-10-10-5-10 6 0 17 5 25 10s11 10 5 10c-5 0-17-5-25-10z"/><path d="m2250 1560c0-5 4-10 9-10 6 0 13 5 16 10 3 6-1 10-9 10-9 0-16-4-16-10z"/><path d="m500 1550c-7-4-10-12-6-18 3-6 0-13-6-15-8-3-6-6 5-6 10-1 20 5 23 12 2 7 19 14 36 15 53 4 59 17 9 19-26 1-53-2-61-7z"/><path d="m2285 1530c3-5 8-10 11-10 2 0 4 5 4 10 0 6-5 10-11 10-5 0-7-4-4-10z"/><path d="m434 1508c-3-4 4-8 15-8 12 0 21 4 21 8 0 5-7 9-15 9-9 0-18-4-21-9z"/><path d="m327 1494c5-13 2-15-18-9-21 7-22 6-11-8 11-12 19-13 43-5 16 5 27 13 24 18-2 4 7 5 22 2 18-3 24-1 19 7-10 15-53 14-59-1-4-10-6-10-6 0-1 6-5 12-11 12-5 0-7-7-3-16z"/><path d="m200 1470c-23-7-23-8-3-9 12-1 25 4 28 9 3 6 5 10 3 9s-14-5-28-9z"/><path d="m241 1459c-24-19-24-20-5-37 17-16 24-17 67-4 27 8 47 19 47 27 0 9-6 12-15 9-8-4-15-11-15-18 0-6-4-5-9 3-8 12-12 12-26-3-23-22-33-11-12 12 10 10 14 22 10 25-10 10-16 8-42-14z"/><path d="m117 1450c-14-11-29-30-33-42-3-11-24-48-45-81l-39-59 1-121c0-79 4-126 12-136 9-12 9-13 0-7-10 6-13-28-13-157 0-151 2-165 20-182 11-10 20-24 20-30 0-7 12-20 26-30 16-10 23-22 20-32-3-8-3-20 1-26 4-7 9-4 13 7 5 16 8 15 25-5 11-12 14-19 8-15-7 4-13 2-13-3 0-6 8-11 18-11 18-1 62-33 62-47 0-4 10-19 21-33 17-21 19-22 10-3-13 25-14 36-3 30 4-3 7 8 6 24-1 22-13 41-47 72-26 23-47 47-47 52 0 6 5 3 10-5s10-10 10-4-18 24-39 38c-22 15-43 35-47 44-16 37-11 42 14 15 40-41 87-80 77-63-5 8-19 23-32 33s-23 26-23 36c0 9-6 23-12 30-11 11-9 11 10 2 14-8 22-8 22-1 0 5-4 10-8 10-5 0-19 10-31 21-18 17-20 23-10 30 17 10 30 2 23-16-4-10 0-12 15-8 26 7 28 38 4 52-10 5-15 13-11 17 5 4 3 13-3 21-9 10-8 13 0 13s10 8 6 21c-7 20-6 20 25 4 47-24 49-9 5 30-31 27-35 33-17 28 12-3 22-8 22-12 0-13 39-31 45-21 4 6 1 9-6 8-6-2-13 7-14 20-1 12-12 33-25 47s-24 34-25 45c-2 23-4 23 29 10 32-12 35-35 4-27-22 6-22 5-4-8 13-10 24-11 37-4 11 5 19 6 19 1 0-12 64-82 74-82 4 0 4 6-1 13-4 6-8 18-9 25-2 8-20 31-42 52-31 31-38 44-34 65 5 28 21 21 26-11 2-11 12-20 24-22 19-3 26-12 24-32 0-3 8-16 18-30 18-23 18-23 5 25-7 29-24 61-42 79-29 29-53 66-53 82 0 4 9-5 21-20 11-14 24-26 29-26 11 0 0 43-14 53-8 6-7 10 2 14 10 4 10 9-1 27-8 12-18 37-22 56s-13 42-21 50c-7 9-15 34-17 55-2 32-6 39-21 37-14-3-16 1-11 17 8 26 4 26-28 1zm76-313c-3-5-9-3-14 4-4 7-5 17-2 22s9 3 14-4c4-7 5-17 2-22zm-69-23c5-14 4-15-9-4-17 14-19 20-6 20 5 0 12-7 15-16zm34-9c-3-3-9 2-12 12-6 14-5 15 5 6 7-7 10-15 7-18zm19-17c-3-8-6-5-6 6-1 11 2 17 5 13 3-3 4-12 1-19zm83-8c0-5-2-10-4-10-3 0-8 5-11 10-3 6-1 10 4 10 6 0 11-4 11-10zm-129-87c13-16 12-17-3-4-10 7-18 15-18 17 0 8 8 3 21-13zm-41-138c7-9 8-15 2-15-5 0-12 7-16 15-3 8-4 15-2 15s9-7 16-15zm88-320c-3-3-9 2-12 12-6 14-5 15 5 6 7-7 10-15 7-18z"/><path d="m2345 1360c-17-6-15-8 13-12 17-2 32-1 32 3 0 12-24 17-45 9z"/><path d="m2434 1348c-3-4 16-8 42-8s44 3 40 7c-10 10-76 11-82 1z"/><path d="m1864 1305c11-8 27-15 35-15 10 1 7 6-9 15-33 19-50 18-26 0z"/><path d="m1600 1290c-13-8-13-9 0-14 27-8 50-3 50 12 0 11-3 12-14 3-9-8-15-8-18-2-2 7-9 7-18 1z"/><path d="m1618 1253c7-3 16-2 19 1 4 3-2 6-13 5-11 0-14-3-6-6z"/><path d="m1670 1239c0-5 5-7 10-4 6 3 10 8 10 11 0 2-4 4-10 4-5 0-10-5-10-11z"/><path d="m190 891c0-6 5-13 10-16 6-4 7-11 4-17-4-6-2-8 4-4 6 3 12-1 14-11 2-9 13-17 25-18 19-1 21 1 11 14-40 54-68 75-68 52z"/><path d="m295 880c3-5 11-10 16-10 6 0 7 5 4 10-3 6-11 10-16 10-6 0-7-4-4-10z"/><path d="m150 871c0-6 4-13 10-16s7 1 4 9c-7 18-14 21-14 7z"/><path d="m230 745c0-15 18-40 24-34 3 3-1 14-9 25-8 10-14 15-15 9z"/><path d="m284 691c21-23 26-26 26-11 0 5-10 15-22 21-23 12-23 12-4-10z"/><path d="m0 661c0-5 5-13 10-16s10-2 10 4c0 5-4 13-10 16-5 3-10 2-10-4z"/><path d="m0 572c0-14 6-22 18-22 11 0 13-3 5-8s-9-13-3-22c6-8 10-13 11-10 0 3 2 15 4 26 3 13-4 29-15 39-19 17-20 17-20-3z"/><path d="m1080 573c0-9 19-13 60-13 78 0 78 17 0 22-43 2-60-1-60-9z"/><path d="m1225 560c3-5 10-10 16-10 5 0 9 5 9 10 0 6-7 10-16 10-8 0-12-4-9-10z"/><path d="m1263 556c5-14 137-21 137-7 0 6-15 12-32 15-52 7-109 3-105-8z"/><path d="m1450 544c0-14 8-16 53-10 28 3 71 6 95 6 26 0 41 4 37 10-3 6-46 10-96 10-76 0-89-2-89-16z"/><path d="m1702 553c-6-2-10-9-6-14 7-12 94-12 94 1 0 6-11 10-24 10s-30 2-38 4c-7 3-19 2-26-1z"/><path d="m1810 540c0-5 7-10 15-10s15 5 15 10c0 6-7 10-15 10s-15-4-15-10z"/><path d="m1850 541c0-11 5-12 50-14 37-2 25 18-12 21-22 2-38-1-38-7z"/><path d="m2067 534c3-9 24-12 66-10 34 2 88 4 120 4 31 1 57 6 57 10s-56 8-124 8c-96 1-123-2-119-12z"/><path d="m2345 540c3-5 22-10 41-10 21 0 33 4 29 10-3 6-22 10-41 10-21 0-33-4-29-10z"/><path d="m2478 537c24-7 36-7 44 1 9 9 1 12-32 11l-45-1z"/><path d="m2558 543c7-3 16-2 19 1 4 3-2 6-13 5-11 0-14-3-6-6z"/><path d="m1960 530c0-5 5-10 10-10 6 0 10 5 10 10 0 6-4 10-10 10-5 0-10-4-10-10z"/><path d="m1995 530c-3-5 1-10 9-10 9 0 16 5 16 10 0 6-4 10-9 10-6 0-13-4-16-10z"/><path d="m101 506c22-21 102-76 105-73 5 5-47 52-74 66-20 11-40 15-31 7z"/><path d="m0 493c0-9 92-127 102-131 5-2 8-10 8-17s6-15 14-18c26-10 5 31-45 88-27 31-49 60-49 65 0 4-7 10-15 14-8 3-15 2-15-1z"/><path d="m195 410c3-5 8-10 11-10 2 0 4 5 4 10 0 6-5 10-11 10-5 0-7-4-4-10z"/><path d="m200 351c0-17 18-21 24-6 3 9 0 15-9 15-8 0-15-4-15-9z"/><path d="m463 328c15-60 29-207 25-264-3-45 0-64 8-64 28 0 27 148-2 260-8 30-14 62-14 72s-5 18-11 18c-7 0-9-9-6-22z"/><path d="m0 243c0-57 2-61 68-148 103-136 120-121 26 25-51 80-85 150-79 161 3 4 1 10-5 14s-10-15-10-52z"/><path d="m90 296c0-3 8-14 18-24 9-10 22-27 28-37 6-11 15-15 23-11 9 6 9 11 0 22-16 19-69 57-69 50z"/><path d="m340 271c0-6 4-13 10-16s7 1 4 9c-7 18-14 21-14 7z"/><path d="m1097 243c-17-17-5-32 23-30 33 2 36 7 18 25-13 13-31 16-41 5z"/><path d="m908 228c9-9 15-9 24 0s7 12-12 12-21-3-12-12z"/><path d="m1162 228c7-20 68-23 68-4s-26 21-34 4c-5-10-7-10-12 0-3 6-10 12-16 12-5 0-8-6-6-12z"/><path d="m1240 230c0-5 8-13 18-19 22-11 124-12 116 0-3 5 3 10 13 10 24 2-72 17-114 18-18 1-33-3-33-9z"/><path d="m1507 221c-20-5-41-12-45-16s3-5 16-2 37 0 54-7c28-12 29-14 13-29-15-16-15-17 2-19 10 0 25 0 33 1s35 2 58 2c37 0 42 2 32 14-14 17-65 21-55 5 3-5 2-10-4-10-10 0-24 18-27 35-1 6 23 10 56 10 32 0 56-3 54-6-2-4 6-5 18-1 20 5 20 6 2 12-10 4-41 8-69 8-27 1-61 4-75 6s-42 1-63-3z"/><path d="m1844 196c4-17 1-26-12-31-16-7-15-8 3-15 30-13 285-12 285 0 0 7-17 9-45 5-27-3-45-1-45 5 0 5-7 10-15 10s-15-4-15-10c0-5-19-10-42-9-35 0-39 2-23 10 18 8 17 9-5 5-31-5-69 8-52 18s3 36-20 36c-16 0-19-5-14-24z"/><path d="m2018 201c12-7 62-4 62 5 0 2-17 4-37 4-24 0-33-3-25-9z"/><path d="m2142 198c2-6 10-14 18-16 7-3 10 0 6 6-3 6 4 12 16 15 16 3 13 5-10 6-22 1-32-3-30-11z"/><path d="m2220 195c-10-13-9-15 11-15 19 0 21 2 9 10-9 6-10 10-3 10 6 0 15-4 18-10 7-11 68-14 79-3 4 4 22 6 41 5 18-2 36 1 40 7 11 19-180 14-195-4z"/><path d="m2475 200c-4-6 6-10 22-10 22 0 25 2 13 10-19 12-27 12-35 0z"/><path d="m1090 186c0-13 11-16 56-16 34 0 53 4 49 10-3 5-16 10-28 9-12 0-34 3-49 7-22 5-28 3-28-10z"/><path d="m1215 179c-11-16-5-18 90-19 127-2 131-2 119 10-15 15-139 26-130 12 5-9-3-11-27-10-19 2-33 6-30 11 2 4 0 7-6 7-5 0-13-5-16-11z"/><path d="m393 124c6-73 14-105 27-118 18-18 22 2 10 57-6 31-12 68-13 83s-8 29-16 32c-11 4-13-7-8-54z"/><path d="m1490 160c0-5 7-10 15-10s15 5 15 10c0 6-7 10-15 10s-15-4-15-10z"/><path d="m1695 160c3-5 24-10 45-10s42 5 45 10c4 6-13 10-45 10s-49-4-45-10z"/><path d="m2230 160c-19-3-30-8-25-12 15-9 132-9 158 1 46 17-47 25-133 11z"/><path d="m2150 150c19-13 30-13 30 0 0 6-10 10-22 10-19 0-20-2-8-10z"/><path d="m4100 69c-63-4-149-13-190-18-41-6-149-18-240-27-91-8-167-17-169-20-12-12 228-1 366 17 169 22 188 24 312 35 45 3 81 10 81 13 0 9-26 9-160 0z"/></g></svg>