<?xml version="1.0" standalone="no"?>
<!DOCTYPE svg PUBLIC "-//W3C//DTD SVG 20010904//EN"
 "http://www.w3.org/TR/2001/REC-SVG-20010904/DTD/svg10.dtd">
<svg version="1.0" xmlns="http://www.w3.org/2000/svg"
 width="512.000000pt" height="512.000000pt" viewBox="0 0 512.000000 512.000000"
 preserveAspectRatio="xMidYMid meet">
<metadata>
Created by potrace 1.14, written by Peter Selinger 2001-2017
</metadata>
<g transform="translate(0.000000,512.000000) scale(0.100000,-0.100000)"
fill="#000000" stroke="none">
<path d="M2240 4871 c-9 -17 -21 -21 -68 -21 -45 -1 -53 -3 -39 -11 10 -6 25
-8 33 -5 8 3 14 1 14 -3 0 -15 -23 -19 -55 -9 -57 16 -84 10 -121 -27 -48 -49
-72 -62 -124 -70 -25 -4 -53 -16 -63 -26 -10 -11 -33 -20 -55 -20 -24 -1 -29
-3 -14 -6 20 -4 16 -8 -28 -30 -28 -14 -55 -34 -61 -44 -5 -10 -16 -19 -24
-19 -18 0 -65 -41 -69 -60 -4 -21 -16 -52 -28 -74 -7 -13 -6 -21 2 -26 8 -5 3
-10 -14 -14 -16 -4 -32 -19 -41 -39 -8 -17 -23 -43 -34 -57 -14 -17 -26 -60
-38 -129 -15 -97 -15 -106 0 -133 12 -21 14 -35 7 -54 -7 -17 -7 -32 0 -44 7
-13 7 -33 -1 -63 -10 -35 -9 -53 4 -98 9 -29 19 -83 22 -119 7 -73 27 -150 57
-217 12 -28 16 -49 10 -55 -5 -5 -2 -23 9 -46 10 -20 23 -60 29 -87 6 -28 15
-68 20 -90 4 -22 6 -44 3 -48 -3 -5 -7 -43 -9 -85 -2 -42 -6 -87 -9 -99 -3
-14 -1 -23 6 -23 7 0 5 -8 -6 -20 -10 -11 -13 -20 -7 -20 12 0 6 -55 -7 -75
-6 -9 -7 -132 -1 -145 1 -3 3 -25 4 -50 1 -25 8 -71 15 -102 12 -58 9 -84 -11
-72 -7 4 -8 2 -4 -4 4 -7 14 -12 23 -12 13 0 12 -4 -5 -19 -12 -10 -22 -21
-22 -25 0 -10 28 -7 32 5 4 12 38 1 38 -12 0 -5 -7 -9 -15 -9 -8 0 -15 -4 -15
-10 0 -5 4 -10 9 -10 5 0 12 -8 14 -17 4 -17 5 -17 6 0 2 28 16 20 17 -10 1
-16 3 -35 5 -43 2 -8 -2 -14 -8 -12 -7 1 -13 -5 -13 -14 0 -9 5 -13 13 -9 6 4
4 0 -6 -8 -16 -13 -16 -15 -1 -21 9 -3 14 -13 10 -21 -3 -8 0 -14 6 -12 6 1
14 -11 19 -28 10 -35 2 -42 -60 -51 -52 -8 -132 -39 -250 -98 -47 -24 -131
-58 -186 -75 -55 -18 -124 -45 -155 -60 -30 -15 -85 -36 -123 -45 -78 -20
-106 -29 -242 -86 -160 -66 -215 -103 -269 -183 l-46 -70 55 -105 c184 -348
470 -663 800 -884 50 -33 94 -59 99 -58 5 1 12 -3 15 -8 9 -15 133 -83 153
-85 9 -1 15 -4 13 -8 -3 -3 26 -18 63 -33 37 -15 75 -32 84 -36 11 -6 18 -5
21 3 4 7 6 6 6 -4 1 -19 92 -51 119 -43 13 5 14 4 3 -4 -10 -7 4 -15 50 -29
38 -11 67 -15 70 -10 4 5 11 3 15 -6 10 -17 244 -72 274 -64 11 3 18 2 15 -3
-7 -11 201 -31 350 -33 284 -3 544 34 790 112 57 18 60 21 59 50 -1 17 2 31 7
31 5 0 9 -11 9 -25 0 -14 3 -25 8 -25 17 0 102 35 102 42 0 4 9 8 20 8 32 0
89 31 83 46 -3 8 -1 14 5 14 6 0 12 -5 14 -11 5 -15 194 86 190 101 -2 7 3 10
11 7 17 -6 129 64 246 153 312 238 553 529 727 878 l51 104 -26 47 c-53 95
-90 125 -217 174 -214 84 -432 147 -641 186 -62 12 -143 32 -180 45 -205 72
-293 105 -332 124 -25 12 -54 22 -65 22 -12 1 -36 14 -55 30 -26 22 -33 34
-29 54 4 19 1 26 -11 26 -14 0 -14 2 -1 9 8 6 18 7 24 4 5 -3 6 -1 3 4 -4 6 1
28 10 49 9 22 15 49 14 62 -1 13 4 25 14 28 10 4 13 13 10 25 -4 11 -2 19 4
19 6 0 8 6 5 14 -3 8 -1 17 5 21 6 3 11 11 11 16 0 6 -4 8 -9 5 -5 -3 -8 6 -8
19 0 14 4 25 9 25 5 0 7 4 3 9 -3 5 3 12 12 14 15 4 14 5 -3 6 -28 1 -41 18
-47 59 -5 30 -4 32 11 20 13 -11 15 -11 10 3 -3 9 -2 22 3 30 7 12 9 12 9 0 0
-8 2 -12 5 -9 3 2 0 20 -6 38 -11 29 -10 35 6 47 16 11 17 15 5 26 -7 6 -10 7
-7 2 3 -6 -3 -16 -14 -23 -11 -7 -19 -8 -19 -2 0 5 5 10 10 10 6 0 10 5 10 10
0 6 -7 10 -15 10 -8 0 -15 5 -15 11 0 6 7 9 15 5 21 -8 19 11 -2 23 -10 5 -15
13 -11 17 4 4 15 1 24 -7 16 -13 16 -12 7 6 -6 11 -8 26 -6 32 3 7 -2 19 -10
27 -10 11 -13 28 -10 60 4 34 0 54 -15 79 -24 42 -19 84 14 112 31 27 39 81
14 103 -11 8 -17 20 -13 24 3 5 -1 9 -8 7 -29 -3 -39 2 -39 21 0 25 -29 38
-41 19 -6 -10 -9 -2 -9 23 0 20 7 43 15 52 8 8 15 19 15 25 0 6 9 15 20 21 14
7 20 21 20 43 0 18 6 41 13 50 14 19 8 153 -13 292 -7 44 -14 100 -15 125 -4
54 -21 145 -31 161 -3 6 -8 28 -11 48 -12 103 -107 267 -174 300 -19 10 -29
22 -29 37 0 13 -8 24 -20 27 -15 4 -20 14 -20 39 -1 35 -19 68 -39 68 -6 0
-27 16 -47 35 -19 19 -43 35 -54 35 -10 0 -32 8 -49 18 -28 15 -33 15 -41 2
-8 -13 -13 -13 -40 3 -16 10 -30 14 -30 9 0 -5 -14 -6 -32 -2 -18 4 -32 12
-31 18 4 17 -28 31 -99 42 -134 21 -160 28 -167 38 -4 7 -24 14 -44 16 -21 3
-35 1 -32 -3 6 -11 -35 -2 -52 11 -8 6 -15 3 -23 -11z m412 -605 c-2 -10 4
-16 18 -16 31 0 34 -1 49 -13 12 -10 13 -9 6 2 -6 11 -2 12 21 7 16 -4 33 -15
38 -24 5 -9 25 -32 43 -52 21 -20 32 -41 30 -51 -3 -10 0 -16 7 -13 7 2 12
-10 13 -32 1 -23 9 -41 21 -50 12 -8 23 -31 27 -56 4 -24 15 -56 24 -73 8 -16
16 -46 17 -65 3 -99 5 -111 14 -105 6 4 13 -7 16 -24 4 -17 9 -31 13 -31 12 0
91 -128 91 -147 0 -11 3 -23 7 -27 4 -3 8 -12 10 -19 1 -7 12 -52 23 -102 35
-147 41 -212 19 -225 -6 -4 -12 -26 -12 -48 -2 -37 -4 -41 -25 -37 -20 3 -22
1 -16 -18 4 -12 7 -26 6 -32 -5 -45 -10 -91 -11 -95 -1 -2 -6 1 -13 8 -17 17
-38 15 -38 -3 0 -11 -9 -14 -37 -10 -37 5 -37 5 -14 -9 14 -7 26 -24 28 -36 3
-19 1 -21 -11 -10 -9 6 -21 8 -27 4 -8 -4 -9 -3 -5 4 4 7 1 12 -9 12 -9 0 -13
-5 -10 -10 3 -6 -1 -13 -10 -16 -11 -5 -13 -10 -5 -19 14 -16 6 -71 -9 -68 -6
2 -12 -11 -12 -27 -3 -52 -4 -55 -16 -67 -16 -18 -25 -16 -22 5 3 22 -11 91
-23 117 -14 27 -67 75 -87 77 -9 1 -32 2 -51 4 -19 1 -37 3 -40 4 -3 2 -15 4
-28 5 -16 2 -22 -2 -18 -12 4 -11 1 -11 -14 -3 -11 6 -20 16 -20 23 0 8 -3 8
-9 -2 -7 -11 -13 -10 -35 4 -14 10 -35 15 -46 12 -26 -7 -25 -4 10 35 23 25
30 41 28 66 -3 44 -13 49 -16 9 -3 -39 -13 -49 -43 -47 -101 6 -108 5 -142
-28 -37 -35 -80 -42 -113 -17 -23 17 -70 20 -80 4 -3 -6 -18 -9 -33 -6 l-26 5
24 -19 c23 -19 23 -20 5 -40 -24 -27 -101 -72 -114 -67 -7 2 -1 23 15 51 30
58 30 58 5 54 -19 -3 -60 -39 -60 -52 0 -4 -16 -25 -34 -47 -19 -22 -38 -53
-41 -69 -4 -16 -10 -29 -13 -29 -4 0 -7 -33 -7 -74 0 -41 3 -72 8 -69 4 2 7
-1 7 -6 0 -13 -3 -13 -24 -5 -9 3 -16 13 -16 21 0 8 -5 11 -10 8 -18 -11 -23
25 -6 50 21 32 21 32 -13 38 -23 5 -28 10 -24 29 3 14 -4 32 -17 46 -13 13
-16 22 -8 22 17 0 -26 29 -49 33 -10 1 -24 7 -32 11 -10 7 -12 5 -6 -5 6 -11
5 -12 -5 -2 -11 10 -17 9 -32 -4 -10 -9 -18 -12 -19 -7 -5 58 -9 126 -18 339
-10 224 -9 257 6 315 17 67 22 224 8 270 -14 48 -8 156 14 252 20 88 26 100
67 143 34 34 52 45 70 43 14 -2 24 -7 23 -12 -2 -18 23 -22 82 -12 45 7 65 7
79 -2 11 -7 27 -12 35 -12 8 0 15 -5 15 -12 0 -9 3 -9 12 0 14 14 42 16 34 3
-6 -9 22 -5 54 6 8 3 25 5 37 4 11 -1 24 2 27 8 4 6 14 7 22 4 8 -3 25 -1 37
5 12 6 39 13 60 17 20 3 37 10 37 16 0 5 6 9 13 8 19 -4 77 12 77 21 0 8 56
20 98 21 16 1 22 6 18 15 -4 10 3 14 27 14 21 0 38 7 47 20 17 23 36 21 32 -4z
m488 -1227 c0 -6 -4 -7 -10 -4 -5 3 -10 11 -10 16 0 6 5 7 10 4 6 -3 10 -11
10 -16z m-690 -108 c0 -5 -7 -11 -15 -15 -15 -5 -20 5 -8 17 9 10 23 9 23 -2z
m-46 -26 c-4 -8 -10 -12 -15 -9 -11 6 -2 24 11 24 5 0 7 -7 4 -15z m-848 -170
c1 -8 -2 -13 -7 -9 -5 3 -9 12 -9 21 0 19 13 9 16 -12z m1054 -70 c0 -37 -28
-63 -47 -44 -6 6 -14 5 -23 -6 -7 -8 -19 -15 -27 -15 -8 0 -22 -9 -31 -19 -18
-21 -64 -30 -179 -38 -61 -4 -73 -2 -73 11 0 10 -6 13 -16 9 -11 -4 -22 1 -31
13 -8 10 -17 17 -21 14 -4 -3 -9 6 -10 19 -3 16 0 21 8 16 7 -4 16 -1 21 6 6
11 11 11 20 2 10 -10 15 -9 23 3 13 18 67 32 150 39 32 3 63 8 67 11 5 3 14 2
20 -1 21 -14 109 -12 120 1 19 23 29 16 29 -21z m40 15 c0 -5 -4 -10 -10 -10
-5 0 -10 5 -10 10 0 6 5 10 10 10 6 0 10 -4 10 -10z m96 -55 c4 -16 12 -24 23
-23 13 2 15 -4 13 -32 -5 -66 -7 -80 -13 -80 -4 0 -6 -28 -5 -62 1 -46 -2 -66
-14 -76 -11 -9 -12 -12 -1 -10 7 2 16 -3 18 -9 3 -7 -2 -13 -10 -13 -9 0 -18
-13 -22 -30 -7 -34 -8 -34 -35 -18 -15 10 -22 10 -32 0 -9 -9 -9 -12 0 -12 20
0 14 -17 -8 -23 -12 -3 -20 0 -20 7 0 12 -20 17 -71 20 -14 0 -26 6 -26 12 0
6 9 9 19 6 28 -7 21 4 -17 27 -43 25 -47 46 -7 36 64 -17 125 -6 153 28 27 32
23 39 -21 36 -21 -2 -42 0 -46 4 -4 4 6 7 22 7 24 1 26 2 12 11 -21 12 -24 30
-5 26 6 -2 2 1 -11 7 -13 6 -20 16 -17 23 7 18 13 40 8 30 -3 -4 -9 -5 -13 -2
-10 6 -118 -43 -139 -63 -8 -8 -25 -12 -38 -9 -19 3 -21 2 -12 -9 9 -11 7 -14
-9 -14 -12 0 -24 5 -27 10 -3 6 -13 10 -21 10 -8 0 -13 -4 -9 -9 11 -19 -148
-5 -197 17 -26 11 -50 17 -53 12 -6 -10 4 -40 14 -40 4 0 7 -9 8 -21 2 -25 22
-51 34 -43 5 3 9 1 9 -5 0 -5 10 -13 22 -17 21 -6 21 -7 3 -20 -17 -12 -17
-14 -2 -14 9 0 16 -5 15 -12 -2 -7 4 -13 12 -14 8 0 23 -2 34 -2 15 -2 16 -4
6 -17 -7 -9 -20 -13 -29 -10 -14 4 -14 4 -1 -7 9 -7 15 -22 13 -33 -1 -11 0
-14 3 -7 3 6 10 9 16 6 7 -4 6 0 0 13 -10 18 -8 19 20 15 l31 -5 -29 -21 c-15
-11 -40 -22 -54 -23 -17 -1 -20 1 -11 6 9 6 10 10 2 16 -7 4 -18 1 -26 -5 -12
-10 -15 -10 -15 0 0 7 -7 10 -14 7 -10 -4 -13 -1 -10 7 3 8 -5 16 -20 20 -14
3 -26 11 -26 16 0 6 -6 10 -14 10 -8 0 -14 6 -13 13 1 38 -5 57 -18 57 -9 0
-15 9 -15 21 0 15 -5 19 -16 15 -10 -4 -13 -2 -7 7 13 21 14 49 1 41 -7 -5 -8
-3 -3 6 4 7 2 16 -6 21 -10 6 -10 9 -2 9 9 0 10 7 3 25 -5 14 -7 25 -4 25 4 0
1 7 -7 16 -10 13 -10 17 2 25 23 15 49 10 82 -15 42 -30 65 -38 71 -23 2 7 5
4 5 -5 1 -20 16 -24 26 -8 3 6 1 10 -6 10 -32 0 4 11 47 15 144 12 178 16 188
24 14 11 71 24 111 25 30 2 138 50 163 74 20 18 31 15 38 -13z m-56 -234 c0
-9 -88 -13 -93 -3 -3 4 17 8 44 9 27 1 49 -2 49 -6z m-60 -37 c0 -2 -16 -4
-35 -4 -19 0 -35 4 -35 8 0 4 16 6 35 4 19 -2 35 -6 35 -8z m-198 -129 c0 -5
-5 -11 -11 -13 -6 -2 -11 4 -11 13 0 9 5 15 11 13 6 -2 11 -8 11 -13z m109
-44 c6 9 9 10 9 2 0 -21 -20 -25 -47 -8 -14 9 -22 12 -19 6 13 -20 16 -52 4
-45 -5 4 -14 0 -19 -7 -7 -12 -9 -12 -9 0 0 10 -3 11 -13 2 -11 -8 -18 -6 -32
9 -13 15 -22 17 -36 9 -11 -5 -19 -17 -19 -26 0 -26 -11 -8 -15 26 -4 29 15
57 23 33 3 -9 9 -9 23 -2 14 8 19 7 20 -2 0 -9 2 -8 6 2 3 8 12 23 21 32 14
16 17 16 54 -14 32 -25 42 -28 49 -17z m-205 13 c-3 -9 -6 -20 -6 -25 0 -5 -4
-9 -10 -9 -11 0 -14 33 -3 43 12 13 25 7 19 -9z m-105 -51 c-8 -15 -10 -15
-11 -2 0 17 10 32 18 25 2 -3 -1 -13 -7 -23z m1089 -78 c0 -62 -38 -192 -82
-279 -71 -142 -281 -271 -521 -323 -110 -24 -307 -23 -397 1 -36 10 -102 35
-146 56 -153 71 -251 153 -317 263 -33 54 -65 152 -55 163 16 15 53 -29 49
-58 -1 -5 4 -7 10 -5 6 1 14 -4 16 -11 3 -8 -1 -10 -14 -5 -10 4 -3 -6 14 -21
20 -17 40 -25 50 -22 22 7 37 -3 46 -28 5 -11 13 -16 23 -12 8 3 12 2 9 -4
-12 -19 27 -24 41 -5 10 14 17 15 27 7 8 -7 17 -9 20 -5 4 3 7 1 7 -6 0 -7 5
-9 12 -5 8 5 9 2 5 -9 -5 -13 0 -17 22 -17 15 0 36 -9 46 -20 10 -12 26 -18
35 -15 9 3 30 -5 45 -17 16 -13 26 -17 21 -10 -5 8 0 12 14 12 12 0 18 -4 15
-10 -9 -15 4 -12 21 5 11 10 24 13 42 8 15 -4 34 -6 42 -6 49 4 79 11 108 26
17 10 32 16 32 13 0 -2 16 0 34 4 19 4 38 5 41 1 10 -10 29 -8 40 5 12 13 55
25 55 15 0 -4 -5 -12 -12 -19 -7 -7 -8 -12 -4 -12 5 0 14 7 20 15 6 9 24 17
40 19 15 2 31 7 34 13 7 10 65 43 76 43 3 0 3 -8 0 -17 -3 -13 -1 -12 6 2 11
20 53 45 78 45 7 0 11 4 7 9 -3 6 10 21 30 34 19 13 33 26 30 29 -3 3 16 23
42 44 27 21 50 42 51 47 2 4 10 14 19 22 8 8 11 15 6 15 -4 1 6 7 22 14 17 7
37 26 45 42 8 16 23 39 34 52 l21 23 22 -26 c18 -20 23 -38 23 -80z m-1023 73
c-3 -8 -6 -5 -6 6 -1 11 2 17 5 13 3 -3 4 -12 1 -19z m240 -25 c-11 -10 -26 8
-20 23 5 15 7 14 15 -1 6 -9 7 -19 5 -22z m-111 1 c28 -29 28 -31 9 -31 -8 0
-16 6 -19 13 -3 8 -11 12 -18 10 -7 -1 -10 -1 -6 1 4 2 4 11 1 19 -8 22 7 17
33 -12z m-76 -24 c0 -5 -4 -10 -10 -10 -5 0 -10 5 -10 10 0 6 5 10 10 10 6 0
10 -4 10 -10z m-430 -1110 c0 -5 -5 -10 -11 -10 -5 0 -7 5 -4 10 3 6 8 10 11
10 2 0 4 -4 4 -10z m70 -114 c0 -3 -4 -8 -10 -11 -5 -3 -10 -1 -10 4 0 6 5 11
10 11 6 0 10 -2 10 -4z m-80 -56 c0 -5 -4 -10 -10 -10 -5 0 -10 5 -10 10 0 6
5 10 10 10 6 0 10 -4 10 -10z m70 0 c0 -5 -5 -10 -11 -10 -5 0 -7 5 -4 10 3 6
8 10 11 10 2 0 4 -4 4 -10z m-75 -49 c3 -5 1 -12 -5 -16 -5 -3 -10 1 -10 9 0
18 6 21 15 7z m75 -5 c0 -3 -4 -8 -10 -11 -5 -3 -10 -1 -10 4 0 6 5 11 10 11
6 0 10 -2 10 -4z m1460 -36 c0 -5 -5 -10 -11 -10 -5 0 -7 5 -4 10 3 6 8 10 11
10 2 0 4 -4 4 -10z m-1500 -20 c0 -5 -4 -10 -10 -10 -5 0 -10 5 -10 10 0 6 5
10 10 10 6 0 10 -4 10 -10z m65 0 c3 -5 1 -10 -4 -10 -6 0 -11 5 -11 10 0 6 2
10 4 10 3 0 8 -4 11 -10z m105 -4 c0 -3 -4 -8 -10 -11 -5 -3 -10 -1 -10 4 0 6
5 11 10 11 6 0 10 -2 10 -4z m1750 -26 c0 -5 -2 -10 -4 -10 -3 0 -8 5 -11 10
-3 6 -1 10 4 10 6 0 11 -4 11 -10z m237 -6 c-3 -3 -12 -4 -19 -1 -8 3 -5 6 6
6 11 1 17 -2 13 -5z m-1987 -24 c0 -5 -4 -10 -10 -10 -5 0 -10 5 -10 10 0 6 5
10 10 10 6 0 10 -4 10 -10z m1300 -10 c0 -5 -4 -10 -10 -10 -5 0 -10 5 -10 10
0 6 5 10 10 10 6 0 10 -4 10 -10z m420 0 c0 -5 -2 -10 -4 -10 -3 0 -8 5 -11
10 -3 6 -1 10 4 10 6 0 11 -4 11 -10z m0 -40 c0 -5 -5 -10 -11 -10 -5 0 -7 5
-4 10 3 6 8 10 11 10 2 0 4 -4 4 -10z m-520 -50 c0 -5 -2 -10 -4 -10 -3 0 -8
5 -11 10 -3 6 -1 10 4 10 6 0 11 -4 11 -10z m580 0 c0 -5 -4 -10 -10 -10 -5 0
-10 5 -10 10 0 6 5 10 10 10 6 0 10 -4 10 -10z m110 0 c0 -5 -5 -10 -11 -10
-5 0 -7 5 -4 10 3 6 8 10 11 10 2 0 4 -4 4 -10z m-170 -40 c0 -5 -2 -10 -4
-10 -3 0 -8 5 -11 10 -3 6 -1 10 4 10 6 0 11 -4 11 -10z m-2270 -50 c0 -5 -5
-10 -11 -10 -5 0 -7 5 -4 10 3 6 8 10 11 10 2 0 4 -4 4 -10z m290 0 c0 -5 -2
-10 -4 -10 -3 0 -8 5 -11 10 -3 6 -1 10 4 10 6 0 11 -4 11 -10z m70 0 c0 -5
-4 -10 -10 -10 -5 0 -10 5 -10 10 0 6 5 10 10 10 6 0 10 -4 10 -10z m30 0 c0
-5 -4 -10 -10 -10 -5 0 -10 5 -10 10 0 6 5 10 10 10 6 0 10 -4 10 -10z m65 0
c3 -5 1 -10 -4 -10 -6 0 -11 5 -11 10 0 6 2 10 4 10 3 0 8 -4 11 -10z m65 0
c0 -5 -5 -10 -11 -10 -5 0 -7 5 -4 10 3 6 8 10 11 10 2 0 4 -4 4 -10z m1320
-20 c0 -5 -4 -10 -10 -10 -5 0 -10 5 -10 10 0 6 5 10 10 10 6 0 10 -4 10 -10z
m-95 -20 c3 -5 1 -10 -4 -10 -6 0 -11 5 -11 10 0 6 2 10 4 10 3 0 8 -4 11 -10z
m-1715 -4 c0 -3 -4 -8 -10 -11 -5 -3 -10 -1 -10 4 0 6 5 11 10 11 6 0 10 -2
10 -4z m30 -6 c0 -5 -4 -10 -10 -10 -5 0 -10 5 -10 10 0 6 5 10 10 10 6 0 10
-4 10 -10z m460 0 c0 -5 -4 -10 -10 -10 -5 0 -10 5 -10 10 0 6 5 10 10 10 6 0
10 -4 10 -10z m300 -20 c0 -5 -5 -10 -11 -10 -5 0 -7 5 -4 10 3 6 8 10 11 10
2 0 4 -4 4 -10z m65 0 c3 -5 1 -10 -4 -10 -6 0 -11 5 -11 10 0 6 2 10 4 10 3
0 8 -4 11 -10z m75 6 c0 -3 -4 -8 -10 -11 -5 -3 -10 -1 -10 4 0 6 5 11 10 11
6 0 10 -2 10 -4z m-875 -26 c3 -5 1 -10 -4 -10 -6 0 -11 5 -11 10 0 6 2 10 4
10 3 0 8 -4 11 -10z m95 0 c0 -5 -2 -10 -4 -10 -3 0 -8 5 -11 10 -3 6 -1 10 4
10 6 0 11 -4 11 -10z m270 -4 c0 -3 -4 -8 -10 -11 -5 -3 -10 -1 -10 4 0 6 5
11 10 11 6 0 10 -2 10 -4z m30 -6 c0 -5 -4 -10 -10 -10 -5 0 -10 5 -10 10 0 6
5 10 10 10 6 0 10 -4 10 -10z m40 6 c0 -3 -4 -8 -10 -11 -5 -3 -10 -1 -10 4 0
6 5 11 10 11 6 0 10 -2 10 -4z m440 -26 c0 -5 -5 -10 -11 -10 -5 0 -7 5 -4 10
3 6 8 10 11 10 2 0 4 -4 4 -10z m1000 -21 c0 -5 -4 -9 -10 -9 -5 0 -10 7 -10
16 0 8 5 12 10 9 6 -3 10 -10 10 -16z m-1750 1 c0 -5 -4 -10 -10 -10 -5 0 -10
5 -10 10 0 6 5 10 10 10 6 0 10 -4 10 -10z m130 0 c0 -5 -5 -10 -11 -10 -5 0
-7 5 -4 10 3 6 8 10 11 10 2 0 4 -4 4 -10z m100 0 c0 -5 -5 -10 -11 -10 -5 0
-7 5 -4 10 3 6 8 10 11 10 2 0 4 -4 4 -10z m70 0 c0 -5 -5 -10 -11 -10 -5 0
-7 5 -4 10 3 6 8 10 11 10 2 0 4 -4 4 -10z m1320 0 c0 -5 -4 -10 -10 -10 -5 0
-10 5 -10 10 0 6 5 10 10 10 6 0 10 -4 10 -10z m60 0 c0 -5 -4 -10 -10 -10 -5
0 -10 5 -10 10 0 6 5 10 10 10 6 0 10 -4 10 -10z m40 0 c0 -5 -4 -10 -10 -10
-5 0 -10 5 -10 10 0 6 5 10 10 10 6 0 10 -4 10 -10z m100 0 c0 -5 -4 -10 -10
-10 -5 0 -10 5 -10 10 0 6 5 10 10 10 6 0 10 -4 10 -10z m-1255 -40 c3 -5 -1
-10 -10 -10 -9 0 -13 5 -10 10 3 6 8 10 10 10 2 0 7 -4 10 -10z m35 0 c0 -5
-4 -10 -10 -10 -5 0 -10 5 -10 10 0 6 5 10 10 10 6 0 10 -4 10 -10z m150 6 c0
-3 -4 -8 -10 -11 -5 -3 -10 -1 -10 4 0 6 5 11 10 11 6 0 10 -2 10 -4z m-520
-16 c0 -5 -5 -10 -11 -10 -5 0 -7 5 -4 10 3 6 8 10 11 10 2 0 4 -4 4 -10z m57
-12 c-3 -8 -6 -5 -6 6 -1 11 2 17 5 13 3 -3 4 -12 1 -19z m43 12 c0 -5 -5 -10
-11 -10 -5 0 -7 5 -4 10 3 6 8 10 11 10 2 0 4 -4 4 -10z m1320 -10 c0 -5 -4
-10 -10 -10 -5 0 -10 5 -10 10 0 6 5 10 10 10 6 0 10 -4 10 -10z m-905 -30 c3
-5 1 -10 -4 -10 -6 0 -11 5 -11 10 0 6 2 10 4 10 3 0 8 -4 11 -10z m35 0 c0
-5 -4 -10 -10 -10 -5 0 -10 5 -10 10 0 6 5 10 10 10 6 0 10 -4 10 -10z m-660
-10 c0 -5 -2 -10 -4 -10 -3 0 -8 5 -11 10 -3 6 -1 10 4 10 6 0 11 -4 11 -10z
m210 0 c0 -5 -4 -10 -10 -10 -5 0 -10 5 -10 10 0 6 5 10 10 10 6 0 10 -4 10
-10z m310 6 c0 -3 -4 -8 -10 -11 -5 -3 -10 -1 -10 4 0 6 5 11 10 11 6 0 10 -2
10 -4z m290 -36 c0 -5 -4 -10 -10 -10 -5 0 -10 5 -10 10 0 6 5 10 10 10 6 0
10 -4 10 -10z m30 0 c0 -5 -5 -10 -11 -10 -5 0 -7 5 -4 10 3 6 8 10 11 10 2 0
4 -4 4 -10z m40 0 c0 -5 -4 -10 -10 -10 -5 0 -10 5 -10 10 0 6 5 10 10 10 6 0
10 -4 10 -10z m40 6 c0 -3 -4 -8 -10 -11 -5 -3 -10 -1 -10 4 0 6 5 11 10 11 6
0 10 -2 10 -4z m30 -6 c0 -5 -4 -10 -10 -10 -5 0 -10 5 -10 10 0 6 5 10 10 10
6 0 10 -4 10 -10z m110 0 c0 -5 -5 -10 -11 -10 -5 0 -7 5 -4 10 3 6 8 10 11
10 2 0 4 -4 4 -10z m-400 -9 c0 -6 -4 -13 -10 -16 -5 -3 -10 1 -10 9 0 9 5 16
10 16 6 0 10 -4 10 -9z m-490 -5 c0 -3 -4 -8 -10 -11 -5 -3 -10 -1 -10 4 0 6
5 11 10 11 6 0 10 -2 10 -4z m270 -6 c0 -5 -4 -10 -10 -10 -5 0 -10 5 -10 10
0 6 5 10 10 10 6 0 10 -4 10 -10z m70 0 c0 -5 -5 -10 -11 -10 -5 0 -7 5 -4 10
3 6 8 10 11 10 2 0 4 -4 4 -10z m80 6 c0 -3 -4 -8 -10 -11 -5 -3 -10 -1 -10 4
0 6 5 11 10 11 6 0 10 -2 10 -4z m30 -58 c0 -16 -3 -19 -11 -11 -6 6 -8 16 -5
22 11 17 16 13 16 -11z m220 12 c0 -5 -4 -10 -10 -10 -5 0 -10 5 -10 10 0 6 5
10 10 10 6 0 10 -4 10 -10z m180 0 c0 -5 -2 -10 -4 -10 -3 0 -8 5 -11 10 -3 6
-1 10 4 10 6 0 11 -4 11 -10z m40 0 c0 -5 -4 -10 -10 -10 -5 0 -10 5 -10 10 0
6 5 10 10 10 6 0 10 -4 10 -10z m-590 -10 c0 -5 -5 -10 -11 -10 -5 0 -7 5 -4
10 3 6 8 10 11 10 2 0 4 -4 4 -10z m110 0 c0 -5 -2 -10 -4 -10 -3 0 -8 5 -11
10 -3 6 -1 10 4 10 6 0 11 -4 11 -10z m70 0 c0 -5 -2 -10 -4 -10 -3 0 -8 5
-11 10 -3 6 -1 10 4 10 6 0 11 -4 11 -10z"/>
<path d="M2620 3601 c-70 -20 -154 -48 -182 -62 -10 -5 -24 -9 -32 -9 -7 0
-25 -15 -40 -34 -28 -37 -25 -44 28 -71 24 -13 24 -20 3 -88 -15 -46 -14 -49
6 -68 12 -11 23 -15 25 -10 2 7 11 7 25 -1 14 -7 22 -7 24 -1 3 7 16 8 41 1
109 -27 177 -39 205 -35 53 8 78 19 73 33 -3 7 3 15 12 17 15 4 14 5 -2 6 -25
1 74 69 130 88 41 14 51 33 19 33 -9 0 -12 6 -9 15 4 8 1 16 -5 16 -6 1 -14 2
-18 3 -5 2 -29 6 -55 10 -26 5 -46 12 -43 16 2 4 -37 7 -88 8 -124 1 -123 0
-111 12 14 14 81 23 89 10 3 -5 11 -10 16 -10 6 0 7 5 4 10 -7 12 17 9 26 -2
3 -4 19 -4 37 1 22 7 32 6 32 -1 0 -6 3 -8 7 -5 3 4 17 0 31 -9 13 -9 21 -11
18 -5 -4 7 -1 9 8 5 8 -3 24 0 36 6 17 9 19 14 10 25 -7 8 -9 18 -6 24 9 13
-75 60 -131 72 -83 19 -116 19 -183 0z m-200 -172 c0 -6 -4 -7 -10 -4 -5 3
-10 11 -10 16 0 6 5 7 10 4 6 -3 10 -11 10 -16z m183 -59 c4 -16 0 -20 -17
-20 -29 0 -39 10 -25 27 16 19 36 16 42 -7z m-128 -31 c-7 -20 -8 -21 -17 -4
-8 12 -7 20 3 26 18 11 22 5 14 -22z m38 -26 c-7 -2 -19 -2 -25 0 -7 3 -2 5
12 5 14 0 19 -2 13 -5z m58 -51 c-7 -2 -18 1 -23 6 -8 8 -4 9 13 5 13 -4 18
-8 10 -11z"/>
<path d="M1915 3512 c-76 -6 -98 -16 -155 -63 -57 -47 -61 -53 -58 -90 2 -35
5 -40 22 -35 12 3 27 6 34 6 6 0 11 6 10 12 -2 7 7 14 20 16 12 2 22 8 22 14
0 6 9 8 20 5 11 -3 18 -1 15 3 -6 10 14 17 71 25 29 4 45 1 53 -9 10 -12 2
-15 -47 -21 -41 -5 -67 -14 -87 -31 -15 -13 -33 -24 -40 -24 -7 0 -20 -9 -30
-20 -10 -11 -24 -20 -31 -20 -7 0 -11 -6 -8 -13 3 -8 -5 -18 -18 -24 -19 -9
-9 -12 57 -12 146 -2 248 -15 253 -31 5 -13 3 -13 -13 0 -13 10 -16 11 -11 2
6 -10 2 -13 -15 -10 -13 2 -26 5 -29 8 -3 3 -27 2 -55 -1 -27 -3 -40 -7 -29
-7 14 -1 21 -8 20 -19 0 -10 5 -17 12 -15 6 1 12 -2 12 -7 0 -13 78 -1 138 21
28 11 52 25 52 32 0 6 11 13 25 14 18 1 23 -2 19 -13 -4 -8 -1 -15 5 -15 7 0
14 7 17 15 4 8 10 13 14 10 5 -3 14 11 20 30 9 27 9 47 0 84 -13 56 -18 81
-19 98 -2 27 -47 53 -115 67 -91 19 -114 22 -151 18z m175 -203 c0 -5 -4 -9
-10 -9 -5 0 -10 7 -10 16 0 8 5 12 10 9 6 -3 10 -10 10 -16z m-10 -89 c0 -5
-12 -10 -27 -9 -25 0 -26 1 -8 9 27 12 35 12 35 0z"/>
<path d="M2925 3460 c-3 -5 -2 -10 4 -10 5 0 13 5 16 10 3 6 2 10 -4 10 -5 0
-13 -4 -16 -10z"/>
<path d="M2439 3123 c-13 -16 -12 -17 3 -5 14 11 18 10 28 -7 6 -12 16 -21 22
-21 6 0 20 -7 30 -17 16 -14 18 -14 18 -1 0 18 -24 41 -33 31 -4 -3 -18 4 -31
16 -22 21 -24 21 -37 4z"/>
<path d="M2111 3052 c-6 -11 -13 -39 -15 -63 -3 -24 -3 -35 0 -24 3 11 12 37
20 59 16 41 13 61 -5 28z"/>
<path d="M3095 3009 c-4 -6 -5 -12 -2 -15 2 -3 7 2 10 11 7 17 1 20 -8 4z"/>
<path d="M2650 2970 c0 -5 7 -10 16 -10 8 0 12 5 9 10 -3 6 -10 10 -16 10 -5
0 -9 -4 -9 -10z"/>
<path d="M2725 2570 c-3 -5 -1 -10 4 -10 6 0 11 5 11 10 0 6 -2 10 -4 10 -3 0
-8 -4 -11 -10z"/>
<path d="M3080 4509 c0 -5 5 -7 10 -4 6 3 10 8 10 11 0 2 -4 4 -10 4 -5 0 -10
-5 -10 -11z"/>
<path d="M3356 3521 c-11 -12 -13 -21 -7 -25 6 -4 15 -25 21 -47 6 -22 17 -42
25 -45 8 -3 12 -11 9 -17 -2 -7 0 -25 5 -42 l9 -30 2 35 c1 19 1 49 0 65 -1
17 -3 50 -4 75 -1 37 -5 46 -22 48 -11 2 -28 -6 -38 -17z"/>
<path d="M1472 3298 c5 -24 13 -50 16 -58 3 -8 7 -19 8 -25 14 -70 34 -64 34
11 0 41 -6 62 -22 84 -33 45 -48 39 -36 -12z"/>
<path d="M3387 3152 c-19 -21 -22 -42 -6 -42 5 0 7 -5 3 -12 -4 -7 -3 -8 5 -4
6 4 9 11 6 16 -3 5 -1 19 5 31 15 27 7 34 -13 11z"/>
<path d="M1555 2350 c-3 -5 -1 -10 4 -10 6 0 11 5 11 10 0 6 -2 10 -4 10 -3 0
-8 -4 -11 -10z"/>
</g>
</svg>
