<?xml version="1.0" standalone="no"?>
<!DOCTYPE svg PUBLIC "-//W3C//DTD SVG 20010904//EN"
 "http://www.w3.org/TR/2001/REC-SVG-20010904/DTD/svg10.dtd">
<svg version="1.0" xmlns="http://www.w3.org/2000/svg"
 width="1000.000000pt" height="1000.000000pt" viewBox="0 0 1000.000000 1000.000000"
 preserveAspectRatio="xMidYMid meet">
<metadata>
Created by potrace 1.14, written by Peter Selinger 2001-2017
</metadata>
<g transform="translate(0.000000,1000.000000) scale(0.100000,-0.100000)"
fill="#000000" stroke="none">
<path d="M4610 9705 c0 -21 -5 -25 -31 -25 -27 0 -59 -19 -59 -35 0 -22 -34
-35 -94 -35 -37 0 -66 -4 -66 -10 0 -5 -16 -10 -35 -10 -24 0 -35 -5 -35 -15
0 -8 -7 -15 -15 -15 -8 0 -15 -4 -15 -10 0 -5 -9 -10 -20 -10 -11 0 -20 -4
-20 -10 0 -5 -7 -10 -15 -10 -8 0 -15 -7 -15 -15 0 -8 -4 -15 -10 -15 -5 0
-10 -9 -10 -20 0 -15 -7 -20 -25 -20 -14 0 -25 5 -25 10 0 6 -20 10 -45 10
-25 0 -45 5 -45 10 0 6 -7 10 -15 10 -8 0 -15 -4 -15 -10 0 -6 -30 -10 -70
-10 -40 0 -70 -4 -70 -10 0 -5 -9 -10 -20 -10 -11 0 -20 -7 -20 -15 0 -9 -9
-15 -23 -15 -12 0 -29 -9 -37 -20 -16 -23 -75 -28 -83 -7 -4 10 -6 10 -6 0 -1
-9 -20 -13 -61 -13 -47 0 -60 -3 -60 -15 0 -10 -11 -15 -35 -15 -19 0 -35 -4
-35 -10 0 -5 -11 -10 -25 -10 -14 0 -25 -4 -25 -10 0 -5 -18 -10 -40 -10 -29
0 -40 -4 -40 -15 0 -9 -9 -15 -25 -15 -14 0 -25 -4 -25 -10 0 -5 -14 -10 -31
-10 -30 0 -59 -19 -59 -39 0 -6 -16 -11 -35 -11 -19 0 -35 5 -35 11 0 20 -29
39 -60 39 -31 0 -60 -19 -60 -39 0 -6 5 -11 10 -11 19 0 11 -59 -10 -72 -16
-10 -20 -24 -20 -65 0 -40 -4 -53 -15 -53 -8 0 -15 -4 -15 -8 0 -5 -16 -14
-35 -22 -19 -8 -35 -20 -35 -27 0 -7 -4 -13 -10 -13 -5 0 -10 -9 -10 -20 0
-11 -4 -20 -10 -20 -5 0 -10 -7 -10 -15 0 -8 -7 -15 -15 -15 -8 0 -15 -9 -15
-20 0 -11 -4 -20 -10 -20 -5 0 -10 -7 -10 -15 0 -8 -4 -15 -10 -15 -5 0 -10
-9 -10 -20 0 -11 -7 -20 -15 -20 -8 0 -15 -6 -15 -13 0 -7 -9 -19 -20 -27 -11
-8 -20 -25 -20 -37 0 -14 -6 -23 -15 -23 -10 0 -15 -10 -15 -27 0 -29 -39 -83
-59 -83 -6 0 -11 -6 -11 -13 0 -7 -9 -19 -20 -27 -13 -9 -20 -26 -20 -47 0
-25 -4 -31 -15 -27 -12 5 -15 -2 -15 -30 0 -20 -4 -36 -10 -36 -5 0 -10 -18
-10 -40 0 -22 -4 -40 -10 -40 -5 0 -10 -11 -10 -25 0 -14 5 -25 10 -25 21 0 9
-17 -27 -38 -21 -12 -32 -22 -25 -22 15 0 17 -96 2 -105 -6 -3 -10 -19 -10
-36 0 -16 -4 -29 -10 -29 -5 0 -10 -11 -10 -25 0 -16 -6 -25 -15 -25 -11 0
-15 -12 -15 -45 0 -25 -4 -45 -10 -45 -5 0 -10 -7 -10 -15 0 -8 -4 -15 -10
-15 -5 0 -10 -20 -10 -45 0 -33 -4 -45 -15 -45 -12 0 -15 -17 -16 -87 -1 -49
-1 -91 0 -95 0 -5 -3 -8 -9 -8 -6 0 -10 -42 -10 -106 0 -67 4 -103 10 -99 6 4
10 -33 10 -104 0 -84 3 -110 13 -108 8 1 13 -19 15 -70 2 -40 7 -73 12 -73 6
0 10 -47 10 -111 0 -71 -4 -108 -10 -104 -5 3 -10 1 -10 -4 0 -6 5 -11 10 -11
15 0 13 -255 -2 -281 -10 -17 -10 -23 0 -26 8 -3 12 -27 12 -69 0 -36 4 -64
10 -64 6 0 10 -22 10 -50 0 -41 3 -50 18 -50 16 -1 16 -1 -1 -14 -10 -8 -17
-26 -17 -45 0 -17 -4 -31 -10 -31 -5 0 -10 -7 -10 -15 0 -8 -4 -15 -10 -15 -5
0 -10 7 -10 15 0 12 -13 15 -55 15 -42 0 -55 -3 -55 -15 0 -8 -7 -15 -15 -15
-8 0 -15 -4 -15 -10 0 -5 -7 -10 -15 -10 -8 0 -15 -9 -15 -19 0 -11 -4 -23
-10 -26 -5 -3 -10 -15 -10 -26 0 -10 -4 -19 -10 -19 -13 0 -13 -237 0 -245 6
-3 10 -33 10 -65 0 -32 5 -62 10 -65 6 -3 10 -17 10 -31 0 -15 6 -24 15 -24 8
0 15 -9 15 -20 0 -11 5 -20 10 -20 6 0 10 -11 10 -25 0 -14 5 -25 10 -25 6 0
10 -11 10 -25 0 -16 6 -25 15 -25 10 0 15 -11 15 -35 0 -19 5 -35 10 -35 6 0
10 -15 10 -34 0 -19 5 -38 10 -41 6 -3 10 -24 10 -45 0 -31 3 -38 15 -34 12 5
15 -3 15 -35 0 -23 5 -41 10 -41 6 0 10 -13 10 -30 0 -16 5 -30 10 -30 6 0 10
-6 10 -14 0 -8 7 -16 15 -20 9 -3 15 -18 15 -36 0 -16 5 -30 10 -30 6 0 10
-16 10 -35 0 -19 5 -35 10 -35 6 0 10 -11 10 -25 0 -16 6 -25 15 -25 10 0 15
-10 15 -33 0 -21 7 -38 20 -47 11 -8 20 -20 20 -27 0 -7 11 -13 25 -13 21 0
25 -5 25 -31 0 -33 23 -64 40 -54 7 5 10 -33 9 -115 -1 -78 3 -125 10 -129 7
-4 11 -69 12 -184 0 -102 5 -175 10 -171 5 3 9 0 9 -5 0 -6 -4 -11 -10 -11
-13 0 -13 -47 0 -55 6 -3 10 -24 10 -46 0 -28 4 -39 15 -39 10 0 15 -11 15
-35 0 -19 5 -35 10 -35 6 0 10 -9 10 -21 0 -22 22 -49 39 -49 6 0 11 -16 11
-36 0 -21 4 -33 10 -29 6 4 10 -13 10 -44 0 -28 5 -51 10 -51 6 0 10 -16 10
-35 0 -24 5 -35 15 -35 10 0 15 -10 15 -29 0 -16 6 -32 13 -34 9 -4 9 -6 0 -6
-7 -1 -13 -4 -13 -8 0 -13 47 -63 59 -63 6 0 11 -7 11 -15 0 -8 5 -15 10 -15
6 0 10 -9 10 -20 0 -11 5 -20 10 -20 6 0 10 -7 10 -15 0 -8 5 -15 11 -15 14 0
39 -25 39 -39 0 -6 5 -11 10 -11 6 0 10 -9 10 -20 0 -11 7 -20 15 -20 8 0 15
-7 15 -15 0 -8 5 -15 10 -15 6 0 10 -30 10 -70 0 -50 4 -70 13 -70 7 0 13 -9
14 -20 1 -11 -4 -20 -13 -20 -8 0 -14 -5 -14 -11 0 -18 -27 -39 -50 -39 -12 0
-18 -4 -15 -10 3 -5 -1 -10 -9 -10 -9 0 -16 -6 -16 -13 0 -7 -16 -19 -35 -27
-19 -8 -35 -17 -35 -22 0 -4 -14 -8 -30 -8 -19 0 -29 -5 -28 -12 2 -8 -11 -14
-32 -16 -19 -2 -39 -8 -45 -13 -5 -5 -19 -9 -32 -9 -18 0 -23 -6 -23 -25 0
-14 -4 -25 -10 -25 -5 0 -10 -18 -10 -40 0 -22 -4 -40 -10 -40 -5 0 -10 -11
-10 -24 0 -14 5 -28 10 -31 6 -3 10 -24 10 -46 0 -21 5 -39 10 -39 6 0 10 -9
10 -20 0 -11 5 -20 10 -20 6 0 10 -11 10 -25 0 -16 6 -25 15 -25 8 0 15 -9 15
-20 0 -11 5 -20 10 -20 6 0 10 -9 10 -20 0 -11 5 -20 10 -20 6 0 10 -12 10
-27 0 -20 3 -24 9 -14 7 11 10 9 16 -8 3 -11 11 -21 16 -21 5 0 9 -9 9 -21 0
-22 22 -49 39 -49 6 0 11 -8 11 -18 0 -10 9 -28 20 -40 11 -12 20 -29 20 -38
0 -10 5 -14 15 -10 11 4 15 -1 15 -17 0 -12 9 -29 20 -37 11 -8 20 -20 20 -27
0 -7 7 -13 15 -13 8 0 15 -9 15 -20 0 -11 7 -20 16 -20 8 0 12 -5 9 -10 -3 -5
1 -10 9 -10 9 0 16 -5 16 -10 0 -14 46 -60 60 -60 5 0 10 -5 10 -10 0 -11 45
-60 55 -60 3 0 16 -11 29 -25 13 -14 29 -25 35 -25 13 0 41 -24 41 -35 0 -10
28 -35 39 -35 6 0 11 -4 11 -10 0 -5 9 -10 20 -10 11 0 20 -7 20 -15 0 -8 8
-15 18 -15 10 0 28 -9 40 -20 12 -11 27 -20 34 -20 7 0 22 -12 34 -26 12 -14
31 -26 42 -27 11 0 28 -11 38 -24 9 -13 25 -23 35 -23 11 0 19 -4 19 -10 0 -5
11 -10 25 -10 14 0 25 -4 25 -10 0 -5 11 -10 24 -10 14 0 31 -7 40 -15 8 -8
22 -15 30 -15 9 0 16 -4 16 -10 0 -5 9 -10 20 -10 11 0 20 -4 20 -10 0 -5 14
-10 30 -10 20 0 30 -5 30 -15 0 -9 10 -15 26 -15 14 0 23 -4 19 -10 -4 -6 10
-10 34 -10 23 0 41 -4 41 -9 0 -6 17 -11 38 -13 23 -2 36 -8 34 -15 -1 -9 11
-13 39 -13 24 0 38 -4 34 -10 -4 -6 8 -10 29 -10 19 0 38 5 41 10 4 6 -7 10
-24 10 -21 0 -31 5 -31 15 0 9 -9 15 -25 15 -14 0 -25 5 -25 10 0 6 -3 9 -7 9
-23 -4 -43 2 -38 11 3 5 2 10 -4 10 -6 0 -8 7 -5 15 4 10 0 15 -15 15 -12 0
-24 7 -27 15 -4 8 -11 12 -18 8 -6 -4 -5 1 3 10 12 15 11 17 -13 17 -14 0 -26
5 -26 10 0 6 15 10 33 10 25 0 36 6 50 29 23 39 22 41 -13 41 -28 0 -30 2 -30
41 0 25 -4 38 -10 34 -6 -4 -20 5 -31 19 -11 15 -25 24 -30 21 -5 -4 -9 1 -9
9 0 18 -21 21 -37 5 -8 -8 -16 -8 -30 0 -17 10 -17 10 3 11 12 0 24 6 27 14 7
18 -3 59 -17 68 -6 4 4 8 22 8 17 0 32 5 32 10 0 6 -4 10 -10 10 -13 0 -13 36
0 60 6 11 17 17 24 14 8 -3 17 -1 21 5 4 7 -3 11 -17 11 -23 0 -23 0 3 14 38
20 77 27 84 16 8 -13 45 -13 45 0 0 19 -42 52 -61 47 -25 -7 -80 13 -108 40
-29 27 -22 39 21 38 153 -5 181 -7 171 -12 -7 -2 -13 -9 -13 -14 0 -6 4 -7 10
-4 6 3 10 1 10 -6 0 -7 11 -9 34 -5 28 5 34 3 39 -14 4 -15 13 -20 41 -20 28
0 36 -4 36 -19 0 -14 6 -17 25 -13 14 2 25 11 25 18 0 8 10 14 25 14 14 0 25
-4 25 -10 0 -5 5 -10 10 -10 6 0 10 8 8 18 -4 20 38 30 55 13 6 -6 21 -11 34
-11 27 0 31 -16 6 -23 -17 -4 -17 -5 0 -6 10 0 20 7 24 17 3 9 11 23 17 31 15
19 14 71 -1 71 -7 0 -13 5 -13 10 0 14 87 13 92 -1 2 -7 25 -11 56 -11 53 2
98 -20 85 -41 -4 -6 2 -8 14 -5 13 4 27 -2 37 -13 19 -23 36 -25 36 -4 0 13
18 20 42 16 15 -2 -4 27 -25 38 -19 10 -18 11 13 5 19 -3 54 -8 78 -11 27 -3
42 -10 42 -19 0 -8 9 -14 20 -14 16 0 20 7 20 35 0 31 3 35 25 35 14 0 25 6
25 13 0 9 12 14 32 15 18 0 34 6 36 11 2 6 15 11 28 11 14 0 23 5 22 13 -2 7
11 13 32 15 18 2 42 13 52 24 12 15 26 19 48 16 24 -4 30 -1 30 14 0 14 8 18
35 18 24 0 35 -5 35 -15 0 -10 11 -15 35 -15 24 0 35 5 35 15 0 21 40 19 56
-2 12 -16 13 -15 14 10 0 21 5 27 21 27 26 0 49 23 49 49 0 17 6 21 31 21 30
0 59 19 59 39 0 6 12 11 28 12 15 0 21 3 15 6 -22 8 12 33 46 33 31 0 42 14
19 23 -7 3 -3 6 10 6 13 1 20 5 17 11 -4 6 10 10 35 10 40 0 70 17 70 39 0 6
5 11 10 11 6 0 10 9 10 20 0 11 7 20 15 20 8 0 15 -4 15 -10 0 -5 9 -10 20
-10 16 0 20 7 20 35 0 19 5 35 11 35 14 0 39 25 39 39 0 6 9 11 20 11 11 0 23
7 26 15 4 10 13 13 25 10 22 -7 28 20 7 28 -10 4 -10 6 0 6 6 1 12 8 12 16 0
8 7 15 15 15 10 0 15 10 15 28 0 16 9 38 20 50 11 12 20 30 20 42 0 22 15 27
23 8 3 -7 6 3 6 22 1 26 4 31 11 20 8 -13 10 -12 10 3 0 10 8 17 20 17 11 0
20 3 21 8 0 4 2 18 5 31 3 18 1 22 -11 17 -8 -3 -15 -1 -15 4 0 6 7 10 16 10
8 0 12 5 9 10 -3 6 1 10 9 10 9 0 16 7 16 16 0 8 5 12 10 9 6 -3 10 4 10 17 0
13 9 29 20 36 11 7 20 19 20 27 0 8 7 15 16 15 8 0 12 5 9 10 -3 6 3 10 14 10
18 0 21 6 21 45 0 25 5 45 10 45 6 0 10 7 10 15 0 8 5 15 10 15 6 0 10 11 10
25 0 14 5 25 10 25 20 0 60 49 60 74 0 18 4 24 15 20 11 -5 15 1 15 20 0 14 5
26 10 26 6 0 10 18 10 41 0 24 4 38 10 34 6 -3 10 3 10 14 0 12 7 21 15 21 8
0 15 7 15 15 0 8 5 15 10 15 6 0 10 9 10 20 0 11 5 20 10 20 6 0 10 18 10 39
0 29 5 41 18 44 16 4 16 5 0 6 -29 2 -22 31 7 31 22 0 25 4 25 35 0 19 5 35
10 35 6 0 10 16 10 35 0 24 5 35 15 35 8 0 15 5 15 10 0 6 -7 10 -15 10 -9 0
-15 9 -15 25 0 14 5 25 11 25 20 0 39 29 39 59 0 18 7 34 18 40 16 10 16 10 0
11 -16 0 -18 10 -18 75 0 60 3 75 15 75 12 0 15 14 15 68 0 40 5 73 12 80 9 9
9 12 0 12 -8 0 -12 17 -12 45 0 33 -4 45 -15 45 -9 0 -15 9 -15 25 0 16 6 25
15 25 9 0 15 9 15 25 0 16 -6 25 -15 25 -11 0 -15 12 -15 50 0 28 -4 50 -10
50 -5 0 -10 9 -10 20 0 11 4 20 9 20 6 0 9 22 9 50 -1 27 -5 47 -10 44 -4 -3
-8 2 -8 11 0 10 5 13 12 9 8 -5 9 0 3 17 -11 37 -14 89 -4 89 12 0 11 57 -1
65 -5 3 -10 19 -10 36 0 19 -5 29 -15 29 -9 0 -15 9 -15 25 0 14 -4 25 -10 25
-5 0 -10 9 -10 21 0 11 5 17 10 14 6 -3 10 3 10 14 0 12 -4 21 -10 21 -5 0
-10 15 -10 33 -1 17 -7 43 -14 56 -8 14 -12 31 -9 38 3 7 -2 13 -11 13 -9 0
-16 8 -16 20 0 11 -4 20 -10 20 -5 0 -10 9 -10 20 0 11 -4 20 -10 20 -12 0
-13 -67 -1 -74 5 -3 11 -18 13 -34 4 -26 2 -28 -24 -24 l-28 4 0 -61 c0 -48 3
-61 15 -61 8 0 15 -4 15 -10 0 -5 -7 -10 -15 -10 -11 0 -14 -9 -10 -35 2 -22
-1 -40 -10 -49 -17 -16 -20 -36 -6 -36 5 0 17 -3 27 -7 13 -5 15 -3 9 7 -5 8
-3 11 6 8 8 -3 15 -22 17 -45 2 -37 1 -41 -18 -36 -12 3 -20 0 -20 -6 0 -7 4
-9 10 -6 6 3 10 -1 10 -9 0 -9 5 -16 10 -16 6 0 10 -7 10 -15 0 -9 -9 -15 -25
-15 -23 0 -25 3 -25 50 0 65 -15 65 -17 0 -1 -28 2 -50 7 -50 6 0 10 -7 10
-15 0 -9 6 -12 15 -9 11 5 15 -1 15 -20 0 -30 -7 -32 -32 -9 -17 15 -18 15
-18 -1 0 -9 5 -14 10 -11 14 9 13 -68 -2 -83 -9 -9 -9 -12 0 -12 8 0 12 -17
12 -45 0 -25 5 -45 11 -45 5 0 7 5 3 12 -4 7 -3 8 4 4 7 -4 12 -20 12 -36 0
-15 6 -31 13 -33 9 -4 8 -8 -3 -16 -12 -9 -13 -14 -2 -31 14 -24 16 -140 2
-140 -5 0 -10 -11 -10 -24 0 -16 8 -26 23 -31 l22 -8 -22 -4 c-30 -6 -31 -48
-3 -65 11 -7 20 -16 20 -20 0 -5 -9 -8 -20 -8 -11 0 -20 -7 -20 -15 0 -8 5
-15 10 -15 6 0 10 -9 10 -20 0 -15 -7 -20 -25 -20 -16 0 -25 -6 -25 -15 0 -8
5 -15 11 -15 12 0 39 -25 39 -35 0 -4 -17 -5 -38 -3 -32 3 -38 0 -34 -14 2 -9
15 -19 28 -22 19 -5 24 -13 24 -36 0 -20 -5 -30 -15 -30 -9 0 -14 -9 -13 -24
2 -16 7 -22 16 -18 10 3 13 0 10 -9 -6 -17 -53 -19 -53 -2 0 6 -3 15 -7 19
-12 11 -10 26 2 19 6 -3 10 -1 10 4 0 6 -4 11 -10 11 -5 0 -10 7 -10 15 0 8
-7 15 -15 15 -8 0 -15 5 -15 12 0 6 -7 3 -15 -8 -19 -25 -19 -34 0 -34 19 0
19 -7 1 -26 -20 -19 -26 -18 -26 6 0 11 -7 20 -15 20 -10 0 -15 -10 -15 -34 0
-27 5 -35 23 -40 12 -3 23 -2 25 2 2 8 72 3 72 -5 0 -12 -40 -44 -49 -39 -5 4
-12 2 -15 -3 -4 -5 -2 -12 4 -16 5 -3 10 -17 10 -31 0 -14 -4 -22 -10 -19 -6
4 -10 -10 -10 -35 0 -27 -4 -39 -11 -35 -6 4 -5 -2 2 -13 15 -23 0 -44 -40
-57 -18 -6 -21 -9 -10 -16 11 -7 10 -9 -3 -9 -10 0 -18 -4 -18 -10 0 -5 5 -10
11 -10 6 0 8 -7 5 -16 -3 -8 -2 -12 4 -9 6 3 10 -1 10 -10 0 -9 -4 -14 -9 -10
-5 3 -21 -6 -35 -20 -32 -32 -46 -32 -46 0 0 14 -4 25 -9 25 -4 0 -8 9 -7 20
0 11 6 20 11 19 6 0 15 17 21 38 10 35 14 38 42 35 18 -1 32 3 32 9 0 5 -5 7
-11 3 -8 -4 -9 0 -4 15 4 15 2 21 -8 21 -9 0 -18 -6 -20 -12 -3 -7 -3 2 0 20
4 25 2 32 -10 32 -14 0 -16 12 -16 70 1 53 4 70 15 70 16 0 19 38 4 60 -8 13
-11 11 -16 -7 -4 -14 -14 -23 -25 -23 -15 0 -19 7 -19 33 0 24 3 28 10 17 7
-11 10 -7 11 20 1 19 1 43 0 53 -1 9 3 17 8 17 7 0 11 35 11 95 0 57 -4 95
-10 95 -5 0 -10 9 -10 20 0 11 -4 20 -10 20 -5 0 -10 10 -11 23 0 12 -3 16 -6
10 -2 -7 -13 -13 -24 -13 -21 0 -26 -15 -6 -24 10 -5 10 -7 0 -12 -7 -3 -13
-12 -13 -19 0 -8 -10 -15 -22 -17 -29 -4 -35 -34 -9 -41 11 -3 22 0 25 7 2 6
5 1 5 -11 1 -18 -5 -23 -24 -23 -14 0 -25 5 -25 11 0 26 -36 43 -81 40 -20 -1
-20 -38 1 -52 11 -8 12 -12 3 -16 -7 -2 -13 -18 -13 -34 0 -27 2 -29 28 -24
25 6 26 5 9 -8 -18 -15 -18 -15 0 -20 12 -3 9 -5 -9 -6 -18 -1 -28 -7 -28 -16
0 -8 -4 -15 -10 -15 -5 0 -10 7 -10 15 0 8 -8 15 -17 15 -9 0 -25 7 -35 17
-17 15 -18 14 -18 -15 0 -22 5 -32 16 -32 8 0 12 -5 8 -11 -3 -6 0 -15 7 -20
10 -6 6 -9 -13 -9 -21 0 -25 -4 -21 -20 3 -11 9 -20 14 -20 5 0 9 -7 9 -15 0
-8 5 -15 10 -15 6 0 10 -9 10 -20 0 -25 -9 -25 -26 -3 -12 16 -13 16 -14 -8 0
-16 -6 -26 -15 -26 -8 0 -15 7 -15 15 0 7 -6 12 -12 9 -7 -2 -12 -11 -10 -21
2 -9 -2 -16 -8 -16 -5 0 -10 -11 -10 -25 0 -14 -8 -29 -19 -35 -31 -16 -35
-12 -10 11 13 11 18 18 12 14 -9 -4 -13 2 -14 17 0 18 -2 20 -7 6 -5 -13 -11
-15 -22 -8 -10 7 -11 10 -2 10 6 0 12 7 12 16 0 8 -4 12 -10 9 -6 -4 -10 18
-10 59 0 44 -4 65 -11 63 -6 -1 -14 4 -16 11 -3 6 2 12 11 12 9 0 16 4 16 10
0 5 -6 9 -12 7 -9 -1 -15 21 -18 78 -3 44 -10 86 -14 94 -6 10 -5 12 2 7 7 -4
12 -2 12 3 0 6 -7 11 -16 11 -8 0 -12 5 -9 10 3 6 1 10 -4 10 -6 0 -11 7 -11
15 0 8 -6 15 -13 15 -7 0 -19 9 -27 20 -8 11 -20 20 -28 20 -7 0 -11 4 -8 9 3
4 -6 13 -19 19 -14 7 -25 18 -25 27 0 8 -3 14 -7 14 -22 -4 -35 2 -30 14 7 20
-25 52 -55 55 -16 1 -28 -1 -28 -5 0 -9 48 -33 65 -33 7 0 9 -14 7 -36 -3 -25
-7 -32 -13 -23 -6 9 -9 2 -9 -22 0 -25 -4 -36 -15 -36 -10 0 -15 11 -15 34 0
26 -4 33 -20 33 -11 0 -20 5 -20 10 0 6 -7 10 -15 10 -8 0 -15 9 -15 21 0 12
-4 17 -11 13 -6 -3 -9 -21 -7 -39 3 -23 0 -31 -9 -28 -7 3 -12 8 -11 11 3 29
-6 49 -27 59 -14 6 -25 7 -25 2 0 -5 -4 -9 -10 -9 -5 0 -10 9 -10 20 0 11 -7
20 -15 20 -8 0 -15 5 -15 10 0 6 -4 10 -8 10 -5 0 -9 -7 -9 -15 0 -8 4 -12 9
-9 4 3 8 -12 8 -33 0 -27 7 -45 25 -62 14 -13 22 -28 18 -35 -5 -7 -9 -5 -11
7 -2 11 -13 17 -32 17 -16 0 -32 5 -35 10 -3 6 -17 10 -31 10 -13 0 -24 5 -24
10 0 6 -11 10 -25 10 -16 0 -25 6 -25 15 0 8 -4 15 -10 15 -5 0 -10 -6 -10
-14 0 -8 5 -18 10 -21 6 -3 10 -19 10 -36 0 -16 -4 -29 -10 -29 -5 0 -10 5
-10 11 0 19 -28 38 -58 41 -25 2 -29 6 -27 25 2 19 -2 23 -28 23 -26 0 -29 -3
-25 -24 3 -15 0 -27 -8 -30 -8 -3 -14 1 -14 9 0 8 -12 15 -27 17 -23 2 -27 7
-25 26 3 20 -1 22 -42 22 -25 0 -46 4 -46 10 0 5 -8 9 -17 8 -37 -3 -53 3 -53
18 0 12 -10 14 -47 12 -42 -3 -48 -6 -51 -27 -3 -19 -6 -21 -13 -10 -7 11 -9
9 -9 -8 0 -19 -6 -23 -32 -24 -26 0 -29 -2 -14 -8 18 -7 18 -8 2 -14 -10 -4
-31 -7 -47 -7 -16 0 -29 -4 -29 -8 0 -5 -21 -9 -46 -11 -30 -1 -44 2 -39 8 3
7 -3 11 -14 11 -12 0 -20 6 -18 12 1 7 -8 14 -20 16 -13 2 -23 8 -23 13 0 5
-7 9 -15 9 -8 0 -15 5 -15 10 0 6 -7 10 -15 10 -15 0 -28 34 -25 66 4 37 0 54
-12 51 -8 -1 -14 11 -16 31 -2 17 -7 32 -13 32 -5 0 -9 49 -9 113 0 72 4 107
9 97 7 -10 11 -1 13 30 3 41 6 45 33 50 25 4 30 10 32 35 l2 30 -9 -30 c-5
-19 -8 40 -9 153 -1 124 -4 181 -11 177 -8 -5 -11 44 -10 152 2 273 2 273 -15
273 -10 0 -15 11 -16 33 -1 31 -1 31 -10 7 -6 -19 -8 -12 -5 27 4 61 -12 83
-60 83 -31 1 -64 20 -64 39 0 6 -7 11 -15 11 -8 0 -15 5 -15 10 0 6 -10 10
-22 10 -19 0 -20 2 -8 10 13 9 13 10 0 11 -8 1 -19 1 -24 0 -5 -1 -6 4 -3 12
3 10 -12 17 -56 27 -58 13 -68 17 -101 47 -8 7 -28 14 -45 15 -17 1 -31 6 -31
10 0 4 -3 7 -7 7 -5 -1 -23 2 -40 6 -23 5 -33 13 -33 26 0 14 -8 19 -32 20
-18 1 -25 3 -15 6 21 6 22 17 2 33 -8 7 -15 21 -15 31 0 11 -7 19 -15 19 -12
0 -15 13 -13 63 1 34 -4 72 -10 84 -14 26 -15 33 -3 33 5 0 13 -9 16 -20 3
-11 13 -20 21 -20 23 0 28 28 9 56 -14 21 -19 24 -27 13 -6 -9 -7 0 -3 29 6
34 4 42 -9 42 -12 0 -15 -9 -13 -40 3 -32 0 -40 -14 -40 -14 0 -16 10 -15 70
1 60 3 70 19 70 10 0 16 4 12 10 -3 5 11 18 32 29 33 18 36 21 18 26 -28 8
-50 44 -36 58 8 8 11 8 11 -1 0 -7 4 -12 9 -12 5 0 3 14 -5 30 -9 17 -20 30
-25 30 -5 0 -9 6 -9 14 0 8 -10 18 -22 22 -12 3 -28 13 -36 20 -7 8 -22 14
-33 14 -17 0 -20 6 -19 33 2 40 -9 79 -21 71 -14 -8 -7 45 15 114 6 16 3 22
-8 22 -10 0 -16 9 -16 25 0 14 5 25 10 25 6 0 10 15 10 33 0 24 -3 28 -10 17
-8 -13 -10 -13 -10 2 0 9 -8 24 -17 33 -13 14 -14 21 -5 36 15 24 15 44 0 86
-10 28 -10 36 2 43 12 7 12 12 2 22 -9 9 -12 9 -12 -5 0 -9 -4 -17 -10 -17 -5
0 -10 11 -10 25 0 14 -5 25 -10 25 -12 0 -9 78 3 98 5 7 3 12 -5 13 -7 0 -4 4
7 9 17 7 17 9 3 9 -23 1 -24 41 -2 41 8 0 13 4 10 9 -10 15 22 33 66 36 24 2
49 4 56 4 6 1 12 8 12 16 0 28 50 50 110 47 42 -2 51 0 40 8 -11 8 13 10 93 8
87 -2 110 0 118 12 8 13 12 12 24 -5 13 -17 18 -18 36 -7 11 7 24 10 29 7 6
-4 10 -3 10 2 1 24 17 33 44 24 21 -9 30 -7 45 8 26 26 52 17 71 -22 19 -40
41 -48 34 -13 -4 25 -3 26 45 26 27 0 53 5 56 10 3 6 27 10 53 10 34 0 43 3
32 10 -12 8 -8 10 15 11 17 1 22 3 13 6 -10 2 -18 9 -18 15 0 6 11 3 25 -6 23
-15 25 -15 36 5 8 16 8 23 -1 29 -14 9 16 50 37 50 17 0 17 -17 1 -23 -7 -3 8
-6 35 -6 36 -1 47 3 47 15 0 8 5 12 10 9 6 -3 10 1 10 9 0 10 9 16 25 16 15 0
25 -6 25 -14 0 -16 31 -31 39 -18 3 5 23 15 44 22 35 11 38 15 35 43 -2 25 -8
33 -29 37 -39 7 -23 45 20 48 29 2 31 0 21 -17 -15 -28 -13 -30 15 -18 30 15
35 57 6 57 -14 0 -17 6 -14 25 4 20 11 24 39 23 18 -1 31 -5 28 -10 -3 -4 11
-8 31 -8 30 0 36 3 31 16 -3 9 -6 20 -6 26 0 6 -9 8 -20 5 -11 -3 -20 -2 -20
3 0 11 38 20 88 20 25 0 41 -4 37 -9 -3 -6 4 -15 15 -21 17 -9 20 -8 20 10 0
11 5 20 10 20 6 0 10 5 10 11 0 5 -4 8 -9 5 -5 -3 -14 1 -21 9 -11 13 -7 15
21 15 23 0 30 3 20 9 -11 7 -11 10 0 17 28 17 51 14 56 -6 3 -11 9 -20 14 -20
12 0 11 7 -1 31 -7 13 -7 19 0 19 5 0 10 -4 10 -10 0 -5 7 -10 15 -10 8 0 15
-7 15 -15 0 -8 9 -15 20 -15 18 0 19 3 10 21 -12 21 -4 42 8 23 14 -22 80 -5
66 17 -9 16 27 10 43 -7 14 -13 14 -17 3 -24 -8 -5 -17 -7 -21 -4 -7 4 -19
-19 -19 -37 0 -5 7 -9 15 -9 8 0 15 5 15 10 0 7 6 7 19 0 25 -13 91 -13 91 0
0 6 25 10 58 9 31 0 51 -3 45 -6 -7 -2 -13 -9 -13 -15 0 -6 7 -8 15 -4 10 4
15 -1 15 -15 0 -19 21 -49 35 -49 10 0 35 -28 35 -39 0 -6 9 -11 21 -11 25 0
44 -17 54 -49 6 -18 9 -21 16 -10 6 10 9 8 9 -8 0 -16 6 -23 20 -23 11 0 20
-6 20 -13 0 -7 -9 -19 -20 -27 -11 -8 -20 -18 -20 -22 0 -12 38 -10 45 2 12
20 25 9 25 -20 0 -16 5 -30 10 -30 6 0 10 -13 10 -30 0 -16 5 -30 10 -30 6 0
10 -9 10 -20 0 -12 7 -20 18 -21 14 0 14 -2 -3 -9 l-20 -9 20 -1 c11 -2 23 -2
28 -1 7 1 11 -14 8 -36 -1 -7 3 -13 9 -13 5 0 10 -7 10 -15 0 -21 18 -19 23 3
4 16 5 16 6 0 0 -10 7 -18 15 -18 10 0 12 -7 8 -22 -3 -14 -2 -19 6 -14 9 5
12 -7 13 -41 1 -26 3 -40 6 -30 2 9 13 17 24 17 14 0 19 -7 19 -27 0 -22 -2
-25 -10 -13 -8 13 -10 12 -10 -2 0 -10 5 -18 10 -18 6 0 10 -7 10 -15 0 -8 5
-15 10 -15 6 0 10 -7 10 -15 0 -8 7 -15 15 -15 12 0 22 -33 13 -42 -7 -7 45
-68 58 -68 10 0 14 -13 14 -50 0 -54 7 -61 35 -30 24 27 35 25 35 -6 0 -14 5
-35 11 -46 8 -14 8 -23 0 -31 -8 -8 -11 -8 -11 1 0 7 -7 12 -15 12 -8 0 -15 7
-15 15 0 8 -4 15 -10 15 -5 0 -10 -9 -10 -20 0 -11 5 -20 10 -20 6 0 10 -10
10 -22 0 -18 2 -20 9 -9 8 12 11 9 16 -11 8 -32 4 -59 -10 -59 -14 0 -27 -27
-20 -39 3 -6 13 -10 21 -10 9 0 14 -11 14 -30 0 -20 -5 -30 -15 -30 -8 0 -15
-7 -15 -15 0 -9 7 -18 15 -21 20 -8 19 -44 -1 -44 -12 0 -14 -9 -12 -37 4 -45
21 -50 28 -8 4 21 11 29 23 27 13 -2 17 4 17 28 0 16 -4 30 -10 30 -5 0 -10
14 -10 30 0 17 5 30 10 30 6 0 10 18 10 39 0 22 5 43 10 46 6 3 10 1 10 -6 0
-7 7 -4 15 7 13 17 14 14 15 -37 0 -55 1 -56 26 -51 l25 5 -2 -94 c-2 -101 -6
-129 -20 -129 -5 0 -8 3 -6 8 1 4 -1 8 -6 10 -4 1 -7 -1 -6 -4 0 -3 -8 -12
-18 -20 -17 -14 -17 -14 2 -12 15 2 21 -4 23 -24 4 -34 34 -39 32 -5 -3 37 -1
49 10 42 11 -7 12 0 10 70 -2 60 13 105 35 105 8 0 15 5 15 10 0 6 -7 10 -15
10 -17 0 -20 25 -5 35 6 3 13 -2 17 -12 4 -10 11 -21 17 -25 6 -4 6 -16 -3
-35 -9 -19 -9 -29 -2 -31 6 -2 11 -15 11 -28 0 -17 -6 -24 -19 -24 -11 0 -23
-4 -26 -10 -4 -6 5 -10 19 -10 27 0 36 -24 14 -33 -10 -4 -10 -6 0 -6 9 -1 12
-29 12 -103 1 -102 11 -138 39 -138 6 0 11 -9 11 -20 0 -11 5 -20 10 -20 6 0
10 7 10 15 0 8 5 15 10 15 6 0 10 -28 10 -65 0 -59 11 -84 23 -52 3 6 6 -16 6
-50 1 -58 -11 -89 -22 -61 -3 7 -6 1 -6 -14 -1 -19 4 -28 14 -28 9 0 15 -9 15
-25 0 -14 5 -25 10 -25 6 0 10 11 10 25 0 14 5 25 10 25 6 0 10 11 10 25 0 16
6 25 15 25 12 0 15 19 15 114 0 82 4 116 13 120 10 5 10 7 0 12 -9 4 -13 36
-13 110 0 86 -3 104 -15 104 -8 0 -15 7 -15 15 0 8 7 15 15 15 8 0 15 7 15 15
0 14 -11 19 -37 16 -8 -1 -13 9 -13 24 0 14 5 25 10 25 6 0 10 9 10 20 0 11
-4 20 -10 20 -5 0 -10 9 -10 21 0 11 5 17 10 14 6 -3 10 3 10 14 0 12 -4 21
-10 21 -5 0 -10 20 -10 45 0 25 -4 45 -10 45 -5 0 -10 7 -10 16 0 8 5 12 10 9
6 -4 10 5 10 19 0 14 -4 26 -10 26 -5 0 -10 23 -10 51 0 36 -5 55 -16 64 -12
9 -16 27 -15 79 0 42 -3 65 -9 61 -6 -4 -10 7 -10 24 0 17 5 31 10 31 6 0 10
7 10 15 0 8 -4 15 -10 15 -6 0 -10 47 -10 120 0 73 -4 120 -10 120 -6 0 -10
26 -10 59 0 43 -4 60 -15 65 -11 4 -15 21 -15 61 0 30 -4 55 -10 55 -6 0 -10
26 -10 58 0 49 -3 60 -25 76 -19 14 -25 28 -25 57 0 20 -5 39 -12 41 -14 5
-12 101 2 106 17 6 11 20 -10 27 -11 3 -20 13 -20 21 0 8 -5 14 -11 14 -22 0
-39 30 -39 69 0 23 -4 41 -10 41 -5 0 -10 11 -10 25 0 14 -5 25 -11 25 -11 0
-39 25 -39 35 0 4 -6 13 -14 21 -8 8 -17 14 -21 14 -8 0 -35 27 -35 35 0 4 -6
13 -14 21 -8 8 -17 14 -21 14 -9 0 -35 27 -35 36 0 10 -33 33 -48 34 -16 0
-42 24 -42 39 0 6 -4 11 -9 11 -11 0 -41 56 -41 77 0 7 -4 13 -10 13 -5 0 -10
11 -10 25 0 14 -5 25 -10 25 -14 0 -60 46 -60 60 0 5 -5 10 -10 10 -14 0 -60
46 -60 60 0 5 -7 10 -15 10 -8 0 -15 5 -15 10 0 6 -9 10 -20 10 -11 0 -20 5
-20 10 0 6 -7 10 -15 10 -8 0 -15 7 -15 15 0 8 -4 15 -10 15 -5 0 -10 7 -10
15 0 8 -7 15 -15 15 -8 0 -15 8 -15 18 0 10 -9 24 -20 32 -11 8 -20 20 -20 27
0 7 -6 13 -13 13 -7 0 -19 9 -27 20 -12 16 -26 20 -72 20 -37 0 -58 4 -58 11
0 16 -54 61 -58 49 -2 -5 -10 -3 -19 5 -8 8 -19 13 -24 9 -5 -3 -8 0 -7 8 2 7
-8 14 -21 16 -13 2 -31 10 -38 18 -8 8 -19 11 -25 8 -7 -4 -8 -2 -4 4 4 7 2
12 -3 12 -6 0 -11 8 -11 18 0 12 -3 13 -8 5 -6 -9 -12 -7 -22 7 -9 13 -26 20
-47 20 -18 0 -33 5 -33 10 0 6 -11 10 -25 10 -16 0 -25 6 -25 15 0 8 -4 15
-10 15 -5 0 -10 -7 -10 -15 0 -9 -9 -15 -25 -15 -15 0 -24 5 -23 13 2 7 -9 13
-24 15 -16 2 -28 8 -28 13 0 5 -9 9 -20 9 -11 0 -20 5 -20 10 0 6 -16 10 -35
10 -24 0 -35 5 -35 15 0 8 -7 15 -15 15 -8 0 -15 -7 -15 -15 0 -8 -4 -15 -10
-15 -5 0 -10 5 -10 11 0 30 -29 39 -134 39 -64 0 -106 4 -106 10 0 6 -13 10
-29 10 -22 0 -30 6 -35 25 -5 20 -13 25 -37 25 -30 0 -59 19 -59 39 0 6 -11
11 -25 11 -20 0 -25 -5 -25 -25z m1340 -1160 c0 -8 -7 -15 -15 -15 -8 0 -15 7
-15 15 0 8 7 15 15 15 8 0 15 -7 15 -15z m-70 -45 c0 -5 -12 -10 -27 -10 -22
0 -25 2 -13 10 20 13 40 13 40 0z m260 -21 c0 -5 -4 -7 -10 -4 -5 3 -10 1 -10
-6 0 -7 -3 -10 -6 -6 -8 7 4 27 17 27 5 0 9 -5 9 -11z m-406 -171 c-3 -4 -9
-8 -15 -8 -5 0 -9 4 -9 8 0 5 7 9 15 9 8 0 12 -4 9 -9z m26 -18 c0 -5 -4 -10
-10 -10 -5 0 -10 5 -10 10 0 6 5 10 10 10 6 0 10 -4 10 -10z m-457 -97 c-7 -2
-19 -2 -25 0 -7 3 -2 5 12 5 14 0 19 -2 13 -5z m-263 -23 c0 -5 -7 -10 -16
-10 -8 0 -12 5 -9 10 3 6 10 10 16 10 5 0 9 -4 9 -10z m1260 -134 c0 -3 -4 -8
-10 -11 -5 -3 -10 -1 -10 4 0 6 5 11 10 11 6 0 10 -2 10 -4z m-1340 -56 c0 -5
-2 -10 -4 -10 -3 0 -8 5 -11 10 -3 6 -1 10 4 10 6 0 11 -4 11 -10z m80 -45 c0
-8 -7 -15 -15 -15 -8 0 -15 7 -15 15 0 8 7 15 15 15 8 0 15 -7 15 -15z m-3
-31 c-3 -3 -12 -4 -19 -1 -8 3 -5 6 6 6 11 1 17 -2 13 -5z m-480 -130 c-3 -3
-12 -4 -19 -1 -8 3 -5 6 6 6 11 1 17 -2 13 -5z m33 -4 c0 -5 -4 -10 -10 -10
-5 0 -10 5 -10 10 0 6 5 10 10 10 6 0 10 -4 10 -10z m-310 -20 c0 -5 -2 -10
-4 -10 -3 0 -8 5 -11 10 -3 6 -1 10 4 10 6 0 11 -4 11 -10z m-163 -16 c-3 -3
-12 -4 -19 -1 -8 3 -5 6 6 6 11 1 17 -2 13 -5z m2393 -104 c0 -5 -4 -10 -10
-10 -5 0 -10 5 -10 10 0 6 5 10 10 10 6 0 10 -4 10 -10z m-177 -37 c-7 -2 -13
-9 -13 -14 0 -6 5 -7 10 -4 6 3 10 1 10 -4 0 -15 -15 -14 -29 3 -12 14 -2 24
24 24 6 0 4 -2 -2 -5z m37 -84 c0 -24 -4 -38 -10 -34 -5 3 -10 1 -10 -4 0 -17
-27 -13 -34 5 -4 11 1 18 14 21 13 3 20 14 20 29 0 13 5 24 10 24 6 0 10 -18
10 -41z m17 9 c-3 -8 -6 -5 -6 6 -1 11 2 17 5 13 3 -3 4 -12 1 -19z m168 -10
c6 -4 2 -8 -7 -8 -10 0 -18 7 -18 17 0 9 3 12 8 7 4 -5 12 -12 17 -16z m-104
-65 c-10 -17 -10 -16 -11 3 0 23 13 41 18 25 2 -6 -1 -18 -7 -28z m109 0 c0
-7 -7 -13 -15 -13 -8 0 -15 -4 -15 -10 0 -5 -4 -10 -10 -10 -5 0 -10 15 -10
34 0 33 1 34 25 23 14 -7 25 -18 25 -24z m-70 -103 c0 -11 -7 -20 -15 -20 -8
0 -15 9 -15 20 0 11 7 20 15 20 8 0 15 -9 15 -20z m70 -80 c0 -5 -7 -10 -15
-10 -8 0 -15 5 -15 10 0 6 7 10 15 10 8 0 15 -4 15 -10z m-6 -101 c-3 -5 -10
-7 -15 -3 -5 3 -7 10 -3 15 3 5 10 7 15 3 5 -3 7 -10 3 -15z m41 -38 c-9 -8
-36 -10 -30 -2 2 4 11 8 20 8 8 0 13 -3 10 -6z m98 -11 c3 -11 1 -20 -4 -20
-5 0 -9 9 -9 20 0 11 2 20 4 20 2 0 6 -9 9 -20z m-133 -27 c0 -24 -25 -9 -28
17 -3 21 -2 22 12 11 9 -7 16 -20 16 -28z m-2804 -69 c-4 -9 -9 -15 -11 -12
-3 3 -3 13 1 22 4 9 9 15 11 12 3 -3 3 -13 -1 -22z m3045 -4 c5 0 9 -10 9 -22
l0 -22 -20 20 c-15 14 -18 26 -13 40 7 17 8 17 11 2 2 -10 8 -18 13 -18z
m-151 -21 c0 -6 -4 -7 -10 -4 -5 3 -10 11 -10 16 0 6 5 7 10 4 6 -3 10 -11 10
-16z m120 -166 c0 -22 -2 -23 -15 -9 -8 8 -15 22 -15 30 0 10 6 13 15 10 8 -4
15 -17 15 -31z m0 -58 c0 -18 -4 -23 -15 -19 -25 10 -19 33 13 43 1 1 2 -10 2
-24z m-2867 -42 c-7 -2 -19 -2 -25 0 -7 3 -2 5 12 5 14 0 19 -2 13 -5z m-43
-7 c0 -3 -4 -8 -10 -11 -5 -3 -10 -1 -10 4 0 6 5 11 10 11 6 0 10 -2 10 -4z
m2907 -28 c-3 -8 -6 -5 -6 6 -1 11 2 17 5 13 3 -3 4 -12 1 -19z m-2899 -36 c2
-7 -3 -12 -12 -12 -9 0 -16 7 -16 16 0 17 22 14 28 -4z m2949 -4 c-3 -8 -6 -5
-6 6 -1 11 2 17 5 13 3 -3 4 -12 1 -19z m-2896 -490 c-9 -9 -12 -9 -7 -1 3 6
2 14 -4 18 -5 3 -10 11 -10 18 0 6 7 4 17 -6 14 -14 15 -19 4 -29z m-317 -374
c3 -8 2 -12 -4 -9 -6 3 -10 10 -10 16 0 14 7 11 14 -7z m426 -75 c0 -12 4 -17
11 -13 8 4 9 -1 4 -15 -5 -18 -2 -24 14 -28 35 -9 23 -23 -19 -23 l-40 0 2 40
c1 22 6 40 12 40 6 0 4 5 -4 10 -13 8 -12 10 3 10 11 0 17 -8 17 -21z m-140
-44 c0 -24 -5 -35 -15 -35 -10 0 -15 11 -15 35 0 24 5 35 15 35 10 0 15 -11
15 -35z m130 -51 c0 -2 -9 -4 -21 -4 -11 0 -18 4 -14 10 5 8 35 3 35 -6z m540
-204 c0 -5 -4 -10 -10 -10 -5 0 -10 5 -10 10 0 6 5 10 10 10 6 0 10 -4 10 -10z
m-1147 -60 c-3 -13 -14 -20 -29 -20 -30 0 -31 12 -1 26 32 17 36 16 30 -6z
m-126 -62 c-3 -7 -5 -2 -5 12 0 14 2 19 5 13 2 -7 2 -19 0 -25z m256 -5 c-3
-10 -13 -24 -22 -31 -9 -7 -16 -18 -16 -25 0 -7 -6 -12 -14 -12 -8 0 -15 13
-16 33 -2 29 0 32 27 32 17 0 27 4 23 10 -3 6 1 10 9 10 10 0 13 -6 9 -17z
m3288 -12 c6 10 9 6 9 -13 0 -18 -5 -28 -15 -28 -10 0 -15 9 -14 28 0 15 3 21
6 13 5 -11 7 -11 14 0z m-41 -45 c0 -3 -4 -8 -10 -11 -5 -3 -10 -1 -10 4 0 6
5 11 10 11 6 0 10 -2 10 -4z m-3350 -66 c0 -36 -3 -40 -24 -40 -16 0 -27 7
-31 19 -8 25 14 61 37 61 14 0 18 -8 18 -40z m158 -19 c-15 -5 -19 4 -11 24 6
18 7 18 13 -1 4 -10 3 -21 -2 -23z m-78 -6 c-10 -12 -9 -15 9 -15 27 0 51 -22
51 -46 0 -13 6 -16 33 -11 17 3 40 8 50 12 27 11 21 -14 -7 -26 -19 -9 -26
-24 -35 -70 -12 -58 -26 -74 -37 -44 -9 23 -37 19 -31 -5 4 -17 0 -20 -24 -20
-32 0 -38 14 -12 29 17 9 17 11 -1 29 -11 13 -16 28 -12 41 19 65 20 61 -23
61 -23 0 -41 4 -41 9 0 15 57 23 79 11 15 -7 21 -7 21 0 0 6 -11 15 -25 20
-30 11 -31 18 -7 40 20 20 30 7 12 -15z m197 -37 c-3 -8 -6 -5 -6 6 -1 11 2
17 5 13 3 -3 4 -12 1 -19z m3063 12 c-13 -9 -13 -11 0 -19 8 -6 11 -13 7 -17
-4 -4 -15 0 -25 9 -15 16 -15 19 -2 27 8 5 20 10 25 10 6 0 3 -5 -5 -10z
m-3393 -26 c-3 -3 -12 -4 -19 -1 -8 3 -5 6 6 6 11 1 17 -2 13 -5z m330 -36
c-3 -8 -6 -5 -6 6 -1 11 2 17 5 13 3 -3 4 -12 1 -19z m106 -15 c-4 -11 -3 -14
5 -9 8 5 12 0 12 -13 0 -12 -5 -21 -11 -21 -6 0 -9 -9 -6 -19 6 -23 -15 -35
-32 -18 -16 16 -14 34 5 41 13 5 14 9 4 21 -13 16 -5 35 15 35 9 0 12 -6 8
-17z m67 -2 c0 -6 -4 -13 -10 -16 -5 -3 -10 1 -10 9 0 9 5 16 10 16 6 0 10 -4
10 -9z m-453 -43 c-3 -7 -5 -2 -5 12 0 14 2 19 5 13 2 -7 2 -19 0 -25z m3436
16 c-4 -10 1 -17 16 -21 11 -3 21 -12 21 -19 0 -24 -24 -15 -37 13 -16 32 -16
43 -3 43 5 0 7 -7 3 -16z m-3149 0 c16 -6 23 -54 8 -54 -5 0 -14 11 -20 25
-17 38 -16 40 12 29z m-29 -74 c3 -5 1 -10 -4 -10 -6 0 -11 5 -11 10 0 6 2 10
4 10 3 0 8 -4 11 -10z m115 -9 c0 -5 -10 -12 -22 -16 l-23 -8 23 -4 c24 -5 25
-28 1 -28 -15 0 -41 44 -33 57 7 11 54 10 54 -1z m-107 -59 c39 -3 47 -6 47
-23 0 -23 0 -23 36 -4 46 24 57 20 51 -19 -4 -25 -1 -39 12 -50 22 -20 41 -21
41 -1 0 8 -9 15 -21 15 -32 0 -22 52 11 60 21 5 24 11 22 35 -2 23 -1 27 7 15
6 -8 11 -12 11 -7 0 4 16 -7 35 -24 34 -31 46 -59 25 -59 -6 0 -6 -9 -1 -22
13 -36 -6 -78 -36 -78 -16 0 -27 -7 -30 -20 -6 -23 -23 -27 -23 -5 0 8 -6 15
-14 15 -23 0 -11 -35 13 -38 12 -2 19 -8 16 -13 -4 -5 -1 -9 4 -9 29 0 -16
-59 -46 -60 -7 0 -17 -8 -23 -17 -8 -13 -13 -14 -16 -5 -8 17 -34 15 -34 -4 0
-11 -6 -14 -20 -9 -17 5 -20 2 -20 -24 0 -24 4 -31 20 -31 14 0 20 -6 19 -22
0 -22 -1 -22 -9 -3 -5 11 -9 15 -9 10 -1 -6 -13 -11 -28 -10 -24 0 -29 -5 -37
-42 -5 -24 -14 -43 -20 -43 -6 -1 0 -7 14 -15 25 -14 25 -14 3 -15 -13 0 -23
-4 -23 -10 0 -5 -5 -10 -11 -10 -17 0 -39 -27 -39 -49 0 -12 -5 -21 -11 -21
-5 0 -8 -4 -5 -9 3 -5 -9 -12 -27 -16 -17 -4 -26 -9 -19 -12 15 -6 17 -103 2
-103 -5 0 -10 -23 -10 -51 0 -29 -4 -48 -10 -44 -5 3 -10 -32 -12 -91 -3 -109
-18 -131 -38 -59 -9 32 -18 45 -31 45 -10 0 -21 5 -25 12 -4 7 -3 8 4 4 8 -5
12 2 12 19 0 15 -4 24 -10 20 -11 -7 -14 22 -10 100 1 29 8 53 16 58 7 4 16
23 20 43 6 32 9 35 35 29 26 -6 29 -4 29 19 0 27 -15 43 -25 26 -3 -5 -10 -10
-16 -10 -12 0 -12 37 1 45 6 3 10 15 10 26 0 15 7 19 34 19 19 0 37 -6 39 -12
4 -10 8 -9 16 2 6 8 11 20 11 25 0 6 -5 3 -10 -5 -8 -13 -10 -12 -10 3 0 11
-9 21 -20 24 -19 5 -29 43 -11 43 4 0 12 15 17 33 7 22 17 33 32 35 19 3 22
10 22 48 0 29 -5 47 -14 50 -8 3 -12 13 -9 25 5 18 2 19 -23 13 -23 -5 -27 -4
-17 6 7 8 9 20 3 35 -11 28 -6 33 25 27 16 -3 25 -11 25 -23 0 -11 7 -19 15
-19 9 0 12 -6 9 -15 -5 -11 3 -17 25 -21 22 -5 30 -11 27 -21 -9 -23 42 -10
60 15 17 24 15 50 -4 71 -10 10 -12 27 -7 58 5 37 4 43 -12 44 -17 1 -17 2 0
6 40 10 13 29 -36 25 -17 -2 -17 -1 -3 14 22 21 20 27 -4 14 -24 -13 -41 -5
-34 15 4 8 -1 18 -10 21 -9 4 -16 17 -16 33 l0 26 13 -25 c10 -21 21 -26 60
-28z m-133 28 c0 -5 -5 -10 -11 -10 -5 0 -7 5 -4 10 3 6 8 10 11 10 2 0 4 -4
4 -10z m10 -130 c0 -5 -4 -10 -10 -10 -5 0 -10 5 -10 10 0 6 5 10 10 10 6 0
10 -4 10 -10z m3210 -21 c0 -10 -4 -19 -10 -19 -5 0 -10 12 -10 26 0 14 4 23
10 19 6 -3 10 -15 10 -26z m-3055 2 c3 -5 1 -12 -5 -16 -5 -3 -10 1 -10 9 0
18 6 21 15 7z m-48 -53 c-3 -7 -5 -2 -5 12 0 14 2 19 5 13 2 -7 2 -19 0 -25z
m260 -44 c-3 -3 -12 -4 -19 -1 -8 3 -5 6 6 6 11 1 17 -2 13 -5z m-207 -25 c0
-5 -4 -9 -10 -9 -5 0 -10 7 -10 16 0 8 5 12 10 9 6 -3 10 -10 10 -16z m587
-37 c-1 -13 -10 -19 -31 -20 l-31 -2 30 19 c17 11 31 20 32 20 1 1 1 -7 0 -17z
m28 8 c3 -5 1 -10 -4 -10 -6 0 -11 5 -11 10 0 6 2 10 4 10 3 0 8 -4 11 -10z
m1298 -177 c-7 -2 -19 -2 -25 0 -7 3 -2 5 12 5 14 0 19 -2 13 -5z m221 -52 c4
-5 3 -17 0 -26 -5 -13 -8 -14 -15 -3 -5 7 -9 19 -9 26 0 14 16 16 24 3z
m-2387 -63 c-3 -8 -6 -5 -6 6 -1 11 2 17 5 13 3 -3 4 -12 1 -19z m2993 -58 c0
-5 -7 -10 -16 -10 -8 0 -12 5 -9 10 3 6 10 10 16 10 5 0 9 -4 9 -10z m-950
-45 c0 -19 5 -35 10 -35 15 0 12 -30 -2 -31 -10 0 -10 -2 0 -6 6 -2 12 -11 12
-19 0 -8 10 -14 25 -14 16 0 25 -6 25 -15 0 -10 -11 -15 -35 -15 -21 0 -35 -5
-36 -12 -1 -7 -1 -28 -1 -46 0 -23 -4 -30 -11 -23 -19 19 -35 -10 -53 -99 -7
-32 -45 -52 -62 -34 -7 7 -12 18 -12 24 0 5 -7 10 -15 10 -10 0 -15 -11 -15
-35 0 -19 -4 -35 -10 -35 -5 0 -10 -11 -10 -25 0 -20 5 -25 25 -25 14 0 25 5
25 10 0 6 10 10 23 11 12 0 16 3 10 6 -23 9 -14 19 19 21 18 2 37 7 42 12 6 6
18 10 28 10 10 0 18 6 19 13 0 9 2 9 6 0 3 -10 8 -10 19 1 8 8 14 19 14 25 0
6 16 11 35 11 19 0 35 5 35 10 0 6 6 10 13 10 7 0 19 9 27 20 10 14 16 16 22
7 5 -7 8 -2 8 16 0 20 5 27 19 27 45 0 51 -9 51 -76 0 -50 3 -64 15 -64 8 0
15 -7 15 -15 0 -8 -6 -15 -12 -15 -9 0 -10 -3 -2 -8 6 -4 12 -38 13 -76 2 -58
0 -68 -13 -63 -13 5 -16 -3 -16 -53 0 -41 -4 -60 -12 -61 -10 0 -10 -2 0 -6 6
-2 12 -16 12 -29 0 -15 6 -24 15 -24 8 0 15 -4 15 -10 0 -5 -11 -10 -25 -10
-18 0 -25 -5 -25 -20 0 -11 6 -20 13 -20 8 0 7 -4 -3 -11 -11 -8 -12 -12 -2
-16 6 -2 10 -8 7 -13 -2 -4 4 -15 15 -25 11 -10 20 -31 20 -47 0 -17 4 -27 10
-23 6 3 10 0 10 -8 0 -10 -7 -13 -20 -10 -11 3 -20 9 -20 12 0 4 -7 8 -15 8
-8 0 -15 -4 -15 -9 0 -4 5 -8 10 -8 6 0 10 -7 10 -15 0 -8 10 -20 22 -26 34
-18 48 -35 48 -58 0 -12 -3 -21 -6 -21 -10 0 -34 28 -34 39 0 6 -11 11 -25 11
-21 0 -25 -5 -25 -27 0 -22 2 -25 10 -13 8 12 10 9 10 -13 0 -19 -4 -26 -12
-22 -7 4 -1 -5 15 -19 30 -28 35 -46 12 -46 -8 0 -15 -7 -15 -15 0 -13 11 -15
57 -13 37 2 58 8 61 17 3 8 0 11 -7 7 -6 -4 -11 -5 -11 -2 0 3 9 10 20 16 18
9 20 8 20 -15 0 -15 -5 -24 -12 -22 -8 1 -12 -7 -11 -20 2 -13 -2 -23 -7 -23
-6 0 -10 5 -10 10 0 6 -7 10 -15 10 -9 0 -15 -9 -15 -25 0 -14 5 -24 11 -22 6
1 14 -4 16 -11 4 -12 1 -12 -18 -1 -13 7 -29 19 -36 28 -11 14 -12 14 -13 -1
0 -10 4 -18 9 -18 5 0 11 -9 14 -20 3 -11 14 -20 25 -20 13 0 21 -8 24 -25 4
-19 1 -25 -13 -25 -9 0 -19 5 -21 12 -6 18 -38 1 -38 -21 0 -14 5 -18 20 -14
14 4 20 0 20 -11 0 -9 7 -16 15 -16 8 0 15 -7 15 -16 0 -10 -6 -14 -15 -10 -8
3 -15 1 -15 -4 0 -23 -19 -8 -22 18 l-4 27 -14 -28 c-13 -26 -14 -27 -24 -9
-8 14 -16 17 -31 11 -19 -7 -19 -8 3 -8 19 -1 22 -6 22 -46 0 -25 -4 -45 -10
-45 -5 0 -10 -7 -10 -15 0 -9 -9 -15 -25 -15 -14 0 -25 -4 -25 -10 0 -5 -4
-10 -10 -10 -5 0 -10 11 -10 25 0 19 -5 25 -22 25 -19 0 -20 2 -8 10 11 7 5
10 -22 10 -27 0 -38 4 -38 15 0 10 -6 12 -17 8 -16 -6 -16 -5 -4 10 12 15 11
17 -3 17 -9 0 -19 7 -22 15 -8 21 -26 19 -22 -2 3 -21 -9 -43 -23 -43 -5 0 -9
7 -9 16 0 8 -5 12 -10 9 -6 -4 -8 -15 -5 -26 4 -13 2 -19 -8 -19 -10 0 -14 -7
-10 -22 3 -17 2 -19 -5 -9 -12 17 -32 6 -32 -19 0 -10 -4 -22 -10 -25 -6 -4
-10 8 -10 30 0 22 4 34 10 30 6 -3 10 -1 10 4 0 6 -7 11 -16 11 -8 0 -12 5 -9
10 3 6 1 10 -4 10 -6 0 -11 -4 -11 -10 0 -5 -7 -10 -15 -10 -9 0 -15 -9 -15
-25 0 -14 -4 -25 -10 -25 -5 0 -10 6 -10 14 0 8 -6 16 -12 19 -10 3 -10 8 2
21 13 16 12 18 -10 14 -19 -2 -26 -11 -30 -33 -5 -30 -40 -50 -40 -22 0 16
-47 21 -56 6 -3 -5 -1 -9 5 -9 6 0 8 -7 5 -15 -4 -8 -10 -15 -16 -15 -5 0 -6
5 -3 10 4 6 -7 10 -24 10 -21 0 -31 5 -31 15 0 15 -11 19 -39 16 -7 -2 -10 2
-6 8 8 14 42 14 50 1 3 -5 19 -10 36 -10 16 0 29 5 29 10 0 6 -12 10 -27 10
-31 1 -63 21 -63 39 0 7 -4 10 -9 6 -5 -3 -12 -1 -15 4 -9 13 4 41 18 41 8 0
11 12 8 35 -3 29 -8 35 -28 35 -13 0 -24 5 -24 10 0 6 5 10 10 10 6 0 10 11
10 25 0 14 -3 25 -7 25 -5 0 -13 11 -20 25 -10 22 -9 25 8 25 10 0 19 -4 19
-10 0 -5 7 -10 15 -10 8 0 15 -7 15 -16 0 -8 4 -13 8 -10 4 2 9 -9 10 -27 2
-17 4 -32 6 -34 9 -9 46 -11 46 -2 0 5 -7 9 -15 9 -12 0 -15 14 -15 70 0 40
-4 70 -10 70 -5 0 -10 7 -10 15 0 8 -4 15 -9 15 -5 0 -11 11 -13 25 -4 19 -1
25 13 25 13 0 17 -5 13 -17 -5 -17 -5 -17 6 0 6 9 8 23 4 30 -6 9 -4 9 7 1 22
-18 139 -18 139 0 0 7 7 19 15 26 17 14 20 30 5 30 -6 0 -14 -8 -18 -18 -5
-13 -14 -17 -31 -12 l-25 6 24 22 c13 12 32 22 41 22 10 0 20 6 23 13 5 10 7
10 12 0 3 -7 21 -13 40 -13 29 0 34 3 34 24 0 14 -4 28 -10 31 -5 3 -10 15
-10 26 0 10 -7 19 -15 19 -8 0 -15 6 -15 14 0 8 -2 20 -3 28 -2 7 -2 10 0 6
11 -18 33 -6 33 17 0 14 -5 25 -11 25 -14 0 -39 -25 -39 -39 0 -6 -4 -11 -10
-11 -5 0 -10 7 -10 15 0 9 -9 15 -24 15 -13 0 -27 6 -29 13 -4 9 -8 9 -15 -2
-5 -7 -14 -11 -20 -7 -12 7 -101 -4 -100 -13 3 -28 -4 -41 -24 -41 -19 0 -20
2 -8 10 13 8 12 10 -2 10 -10 0 -18 -6 -18 -14 0 -8 8 -17 18 -19 10 -3 6 -5
-10 -6 -16 0 -28 4 -28 9 0 6 -17 10 -39 10 -33 0 -38 -3 -37 -22 0 -11 -5
-23 -13 -26 -10 -3 -12 0 -8 12 5 11 1 16 -13 16 -11 0 -20 5 -20 10 0 6 -15
10 -34 10 -34 0 -35 -1 -29 -35 4 -23 2 -35 -6 -35 -6 0 -11 5 -11 10 0 6 -7
10 -16 10 -8 0 -13 4 -9 9 11 19 -26 41 -68 39 l-42 -1 45 -7 45 -7 -41 -1
c-26 -1 -46 4 -54 13 -8 10 -9 15 -2 15 18 0 52 42 52 64 0 20 2 19 20 -4 l20
-25 0 23 c0 19 4 22 20 17 15 -5 23 0 32 22 11 26 12 27 15 6 3 -15 9 -20 20
-16 11 4 14 2 9 -5 -4 -7 -2 -12 3 -12 6 0 12 9 12 20 5 69 3 80 -10 80 -20 0
5 27 42 47 23 12 27 17 16 24 -9 6 7 9 46 9 45 0 56 3 45 11 -12 9 -11 10 8 6
12 -3 22 -1 22 5 0 6 6 8 14 5 8 -3 22 1 33 8 10 8 28 15 41 15 13 0 29 6 36
13 12 10 10 14 -8 25 -21 13 -21 13 3 6 16 -4 21 -3 17 5 -5 8 11 11 49 11 41
0 56 3 53 13 -3 6 -13 14 -23 16 -22 4 -39 19 -48 44 -3 9 -11 17 -17 17 -6 0
-8 -4 -5 -10 3 -5 0 -10 -7 -10 -8 0 -20 -9 -28 -20 -8 -11 -25 -20 -37 -20
-14 0 -23 -6 -23 -15 0 -9 -9 -15 -25 -15 -16 0 -25 6 -25 15 0 8 -4 15 -10
15 -5 0 -10 -22 -10 -50 0 -47 -2 -50 -25 -50 -14 0 -25 -4 -25 -10 0 -6 -38
-10 -95 -10 -95 0 -95 0 -95 25 0 14 -4 25 -10 25 -5 0 -10 -9 -10 -21 0 -36
-24 -49 -89 -49 -33 0 -63 5 -66 10 -3 6 -16 10 -29 10 -32 0 -46 19 -46 61 0
33 -3 37 -21 34 -19 -4 -21 -1 -15 27 8 39 15 46 26 28 6 -9 10 -10 10 -3 0 7
-8 17 -17 23 -17 10 -17 10 0 20 11 8 17 24 17 50 0 33 3 40 20 40 11 0 20 5
20 10 0 6 9 10 20 10 11 0 20 6 21 13 0 6 5 2 11 -10 8 -16 20 -23 40 -23 15
0 28 -4 28 -10 0 -5 5 -10 11 -10 5 0 7 5 4 10 -4 6 7 10 24 10 17 0 31 5 31
10 0 6 -20 10 -45 10 -38 0 -45 3 -45 19 0 11 -6 22 -12 25 -7 3 6 4 30 1 40
-5 58 7 27 19 -18 6 -9 36 11 36 8 0 14 -8 14 -19 0 -10 9 -21 20 -24 16 -4
20 0 20 19 0 15 6 24 15 24 10 0 15 -10 15 -27 0 -21 3 -24 12 -15 7 7 24 12
40 12 20 0 26 4 22 15 -5 12 5 15 54 15 34 0 62 5 64 11 2 6 15 1 31 -11 15
-12 27 -17 27 -11 0 6 6 11 14 11 8 0 17 6 20 13 5 10 7 10 12 0 3 -7 10 -13
15 -13 13 0 59 46 59 60 0 5 7 10 15 10 9 0 15 -9 15 -25 0 -23 4 -25 43 -25
24 0 48 -5 55 -12 9 -9 12 -9 12 0 0 7 5 12 11 12 6 0 17 6 25 14 8 8 14 19
14 25 0 6 5 11 10 11 6 0 10 -7 10 -15 0 -8 7 -15 15 -15 9 0 15 10 15 26 0
14 4 23 10 19 6 -3 10 1 10 9 0 9 5 16 10 16 6 0 10 13 10 29 0 17 -4 33 -10
36 -20 12 -10 35 15 35 22 0 25 -4 25 -35z m830 25 c0 -10 -26 -20 -34 -13
-11 12 -6 19 14 20 11 1 20 -2 20 -7z m-690 -40 c0 -9 -7 -17 -15 -17 -8 0
-13 3 -10 5 3 3 -3 11 -12 17 -15 11 -14 13 10 13 19 0 27 -6 27 -18z m-190
-30 c0 -23 -36 -55 -45 -40 -4 6 -1 18 7 27 11 14 11 17 -1 21 -10 3 -11 6 -1
12 19 12 40 1 40 -20z m915 20 c-3 -5 -12 -10 -18 -10 -7 0 -6 4 3 10 19 12
23 12 15 0z m-1078 -116 c-3 -3 -12 -4 -19 -1 -8 3 -5 6 6 6 11 1 17 -2 13 -5z
m960 -10 c-3 -3 -12 -4 -19 -1 -8 3 -5 6 6 6 11 1 17 -2 13 -5z m72 -113 c9
-16 8 -18 -9 -14 -11 3 -20 12 -20 19 0 20 18 17 29 -5z m111 -26 c0 -8 -4
-15 -10 -15 -5 0 -7 7 -4 15 4 8 8 15 10 15 2 0 4 -7 4 -15z m-26 -40 c3 -8 1
-15 -4 -15 -6 0 -10 7 -10 15 0 8 2 15 4 15 2 0 6 -7 10 -15z m-184 1 c0 -3
-4 -8 -10 -11 -5 -3 -10 -1 -10 4 0 6 5 11 10 11 6 0 10 -2 10 -4z m-1790 -26
c0 -5 7 -10 16 -10 31 0 44 -27 44 -94 0 -37 -4 -66 -10 -66 -5 0 -10 -7 -10
-15 0 -9 -9 -15 -25 -15 -16 0 -25 6 -25 15 0 9 -9 15 -21 15 -11 0 -27 7 -35
15 -13 13 -12 14 15 9 20 -4 31 -2 31 5 0 6 -5 11 -11 11 -5 0 -7 5 -4 10 3 6
-1 13 -9 16 -24 9 -22 84 2 85 16 1 16 2 -1 6 -9 2 -15 9 -12 14 8 12 55 12
55 -1z m2030 -10 c0 -11 3 -20 8 -20 4 0 12 -11 18 -23 8 -17 7 -26 -2 -34
-16 -16 -24 -6 -24 29 0 18 -5 28 -15 28 -8 0 -15 9 -15 20 0 11 7 20 15 20 8
0 15 -9 15 -20z m-103 -21 c-4 -15 0 -23 14 -26 19 -5 27 -23 10 -23 -27 0
-41 15 -41 41 0 16 5 29 11 29 7 0 9 -9 6 -21z m-2057 -14 c0 -8 -4 -15 -10
-15 -5 0 -10 7 -10 15 0 8 5 15 10 15 6 0 10 -7 10 -15z m1735 5 c3 -5 -1 -10
-10 -10 -9 0 -13 5 -10 10 3 6 8 10 10 10 2 0 7 -4 10 -10z m31 -63 c-2 -7 -5
-4 -5 6 -1 9 -6 17 -12 17 -5 0 -7 5 -3 11 9 15 28 -16 20 -34z m44 -12 c0 -8
-7 -15 -15 -15 -8 0 -15 7 -15 15 0 8 7 15 15 15 8 0 15 -7 15 -15z m316 -12
c-3 -8 -6 -17 -6 -19 0 -9 -49 -3 -55 6 -3 6 1 10 9 10 9 0 16 6 16 14 0 9 7
12 21 9 12 -4 18 -11 15 -20z m-1286 -27 c0 -3 -4 -8 -10 -11 -5 -3 -10 -1
-10 4 0 6 5 11 10 11 6 0 10 -2 10 -4z m1340 -30 c0 -19 -9 -24 -30 -19 -28 7
-22 41 7 35 13 -2 23 -10 23 -16z m-411 -6 c1 9 10 16 21 16 25 0 21 -16 -6
-27 -26 -9 -49 4 -39 22 6 9 10 8 16 -7 5 -13 8 -14 8 -4z m76 -20 c3 -5 1
-10 -4 -10 -6 0 -11 -11 -11 -25 0 -14 -4 -25 -10 -25 -5 0 -10 16 -10 35 0
34 20 49 35 25z m-101 -26 c4 -9 4 -19 1 -22 -3 -3 -5 0 -5 6 0 7 -7 12 -15
12 -8 0 -15 5 -15 10 0 16 27 11 34 -6z m314 -19 c-3 -3 -9 2 -12 12 -6 14 -5
15 5 6 7 -7 10 -15 7 -18z m-278 -10 c0 -14 -4 -25 -10 -25 -11 0 -14 33 -3
43 11 11 13 8 13 -18z m-1360 -41 c0 -14 -4 -22 -10 -19 -5 3 -10 17 -10 31 0
14 4 22 10 19 6 -3 10 -17 10 -31z m1690 -64 c0 -5 -4 -10 -10 -10 -5 0 -10 5
-10 10 0 6 5 10 10 10 6 0 10 -4 10 -10z m50 -45 c0 -29 -4 -35 -20 -35 -24 0
-39 29 -20 40 7 4 9 13 6 19 -5 7 1 11 13 11 17 0 21 -6 21 -35z m-70 -40 c0
-15 -6 -25 -14 -25 -8 0 -13 10 -13 25 0 15 5 25 13 25 8 0 14 -10 14 -25z
m-1833 -11 c-3 -3 -12 -4 -19 -1 -8 3 -5 6 6 6 11 1 17 -2 13 -5z m53 -4 c0
-5 9 -10 20 -10 11 0 20 -4 20 -10 0 -5 -25 -10 -55 -10 -32 0 -55 4 -55 10 0
6 6 10 13 9 25 -3 38 1 32 11 -3 6 1 10 9 10 9 0 16 -4 16 -10z m1450 6 c0 -3
-4 -8 -10 -11 -5 -3 -10 -1 -10 4 0 6 5 11 10 11 6 0 10 -2 10 -4z m375 -26
c5 -8 11 -7 21 1 21 17 25 7 12 -29 -14 -35 -38 -43 -38 -13 0 11 -4 23 -10
26 -13 8 -13 25 -1 25 6 0 13 -5 16 -10z m-585 -20 c0 -5 -7 -10 -15 -10 -8 0
-15 5 -15 10 0 6 7 10 15 10 8 0 15 -4 15 -10z m20 -20 c0 -5 -5 -10 -11 -10
-5 0 -7 5 -4 10 3 6 8 10 11 10 2 0 4 -4 4 -10z m680 -5 c0 -8 -4 -15 -10 -15
-5 0 -10 7 -10 15 0 8 5 15 10 15 6 0 10 -7 10 -15z m-630 -95 c0 -5 -12 -10
-27 -10 -22 0 -25 2 -13 10 20 13 40 13 40 0z m465 -18 c0 -18 -20 -15 -23 4
-3 10 1 15 10 12 7 -3 13 -10 13 -16z m115 -7 c0 -8 -4 -15 -10 -15 -5 0 -10
7 -10 15 0 8 5 15 10 15 6 0 10 -7 10 -15z m-610 -32 c0 -7 3 -12 8 -12 20 3
32 -3 32 -16 0 -13 4 -14 20 -5 26 14 45 3 29 -16 -9 -11 -9 -18 -1 -26 15
-15 16 -48 2 -48 -5 0 -10 7 -10 15 0 8 -6 15 -13 15 -7 0 -19 9 -27 20 -8 11
-20 20 -27 20 -7 0 -13 7 -13 15 0 8 -4 15 -10 15 -5 0 -10 6 -10 14 0 8 -6
16 -12 19 -7 3 -3 4 10 4 12 -1 22 -7 22 -14z m328 -30 c3 -18 -2 -23 -17 -23
-12 0 -21 6 -21 15 0 8 -7 15 -15 15 -8 0 -15 5 -15 11 0 6 14 9 33 7 24 -2
33 -8 35 -25z m62 17 c0 -5 -7 -10 -15 -10 -8 0 -15 5 -15 10 0 6 7 10 15 10
8 0 15 -4 15 -10z m74 2 c2 -4 -4 -9 -15 -9 -10 -1 -19 2 -19 8 0 11 27 12 34
1z m-344 -52 c0 -5 -4 -10 -9 -10 -6 0 -13 5 -16 10 -3 6 1 10 9 10 9 0 16 -4
16 -10z m280 -31 c0 -11 -6 -27 -14 -35 -17 -16 -81 -20 -71 -4 4 6 11 8 16 5
19 -13 49 6 49 31 0 13 5 24 10 24 6 0 10 -9 10 -21z m-260 -14 c11 -13 10
-14 -4 -9 -9 3 -16 10 -16 15 0 13 6 11 20 -6z m170 0 c0 -8 -5 -15 -11 -15
-5 0 -7 6 -3 13 5 8 2 7 -9 -2 -10 -8 -21 -11 -24 -7 -8 8 16 26 35 26 6 0 12
-7 12 -15z m-250 -27 c0 -4 22 -8 49 -8 46 0 48 -1 43 -25 -3 -18 -11 -25 -28
-25 -14 0 -24 6 -24 14 0 9 -12 16 -32 18 -33 3 -54 35 -23 35 8 0 15 -4 15
-9z m160 -49 c0 -13 4 -18 12 -13 7 4 8 3 4 -4 -4 -7 -1 -12 8 -12 23 0 20
-17 -4 -23 -13 -3 -20 0 -20 9 0 8 -6 14 -14 14 -13 0 -26 20 -26 41 0 5 9 9
20 9 14 0 20 -7 20 -21z m-50 -54 c0 -20 -5 -25 -25 -25 -13 0 -28 6 -32 14
-4 7 -15 16 -23 19 -10 4 -8 6 7 6 12 1 25 -3 28 -9 10 -16 25 -12 19 5 -4 9
0 15 10 15 10 0 16 -9 16 -25z m-172 -20 c-3 -3 -9 2 -12 12 -6 14 -5 15 5 6
7 -7 10 -15 7 -18z m82 -25 c0 -11 -4 -19 -9 -17 -5 1 -17 -7 -25 -18 -14 -18
-15 -18 -16 -2 0 9 5 17 10 17 6 0 10 9 10 20 0 11 7 20 15 20 8 0 15 -9 15
-20z m160 10 c0 -5 -11 -10 -25 -10 -14 0 -25 5 -25 10 0 6 11 10 25 10 14 0
25 -4 25 -10z m-1082 -55 c0 -14 -4 -25 -9 -25 -5 0 -9 11 -9 25 0 14 4 25 9
25 5 0 9 -11 9 -25z m962 1 c0 -24 -23 -41 -41 -30 -14 8 -11 24 6 24 8 0 15
7 15 15 0 8 5 15 10 15 6 0 10 -11 10 -24z m-470 -101 c0 -8 -9 -15 -20 -15
-15 0 -20 -7 -20 -25 0 -14 4 -25 9 -25 5 0 11 -7 14 -14 4 -11 1 -13 -11 -9
-15 6 -15 4 -4 -9 11 -14 10 -16 -13 -14 -31 4 -28 -18 3 -22 22 -3 32 -22 12
-22 -5 0 -10 -7 -10 -15 0 -8 -7 -15 -15 -15 -8 0 -15 7 -15 15 0 8 -4 15 -10
15 -5 0 -10 -11 -10 -25 0 -14 -4 -25 -10 -25 -5 0 -10 5 -10 10 0 6 -5 10
-11 10 -5 0 -7 -5 -3 -12 4 -7 3 -8 -4 -4 -23 14 -13 44 16 51 27 6 28 7 24
60 -3 41 0 55 10 55 10 0 9 3 -2 10 -10 6 -11 10 -2 10 6 0 12 7 12 15 0 9 6
12 15 8 9 -3 15 -2 14 3 -3 20 2 24 21 14 11 -6 20 -17 20 -25z m-563 10 c0
-8 -4 -12 -9 -9 -5 3 -6 10 -3 15 9 13 12 11 12 -6z m-125 -47 c-7 -7 -12 -8
-12 -2 0 6 3 14 7 17 3 4 9 5 12 2 2 -3 -1 -11 -7 -17z m78 2 c0 -23 -45 -39
-63 -21 -8 8 -5 11 11 11 13 0 25 7 28 15 9 22 24 18 24 -5z m680 10 c0 -5 -4
-10 -10 -10 -5 0 -10 5 -10 10 0 6 5 10 10 10 6 0 10 -4 10 -10z m-317 -34 c9
-7 17 -21 17 -30 0 -24 24 -46 49 -46 18 0 21 -6 21 -45 0 -25 -2 -45 -4 -45
-25 0 -66 26 -66 41 0 10 -4 19 -9 19 -5 0 -11 10 -13 23 -2 12 -10 22 -18 22
-11 0 -14 -9 -12 -32 2 -19 -1 -33 -7 -33 -6 0 -11 21 -11 50 0 28 5 50 10 50
6 0 10 9 10 20 0 23 8 25 33 6z m-277 -20 c8 -8 14 -24 14 -35 0 -16 6 -21 25
-21 14 0 28 -1 32 -2 4 -2 9 6 11 16 3 15 0 18 -16 14 -12 -4 -26 2 -36 13
-22 26 -21 29 13 29 34 0 50 -16 24 -23 -10 -3 1 -3 25 0 l42 6 0 -37 c0 -22
4 -35 10 -31 6 3 10 -3 10 -14 0 -18 -6 -21 -49 -21 -30 0 -52 -5 -55 -12 -5
-10 -7 -10 -12 0 -3 6 -15 12 -27 13 -12 0 -16 3 -9 6 6 2 12 11 12 19 0 9 -4
12 -10 9 -5 -3 -10 -1 -10 4 0 6 -8 11 -17 12 -15 0 -15 2 2 9 15 7 10 9 -22
9 -39 1 -43 3 -43 26 0 22 4 25 36 25 19 0 42 -6 50 -14z m640 -33 c-11 -11
-19 6 -11 24 8 17 8 17 12 0 3 -10 2 -21 -1 -24z m-796 -13 c0 -5 7 -10 15
-10 9 0 15 -9 15 -23 0 -13 5 -28 12 -35 9 -9 7 -12 -11 -12 -26 0 -51 22 -51
44 0 8 -5 18 -10 21 -6 4 -8 11 -5 16 8 12 35 12 35 -1z m712 -7 c6 -28 -3
-53 -18 -53 -9 0 -14 12 -14 35 0 37 25 51 32 18z m485 -38 c0 -8 -4 -12 -9
-9 -5 3 -6 10 -3 15 9 13 12 11 12 -6z m-952 -43 c-3 -3 -11 0 -18 7 -9 10 -8
11 6 5 10 -3 15 -9 12 -12z m-265 -8 c0 -8 4 -13 9 -10 5 4 11 -18 13 -48 2
-40 0 -52 -9 -49 -7 3 -13 13 -13 23 0 11 -4 22 -10 25 -5 3 -10 22 -10 41 0
19 5 34 10 34 6 0 10 -7 10 -16z m417 -7 c12 5 15 2 10 -10 -3 -9 -2 -17 3
-17 6 0 10 7 10 15 0 8 7 15 15 15 8 0 15 -9 15 -20 0 -11 -6 -20 -12 -20 -9
0 -8 -4 2 -11 11 -8 12 -12 3 -16 -7 -2 -13 -20 -13 -39 0 -24 -5 -34 -15 -34
-8 0 -15 7 -15 16 0 9 -9 18 -20 21 -21 6 -27 37 -10 48 6 3 10 13 10 21 0 8
-4 13 -9 10 -5 -4 -7 4 -3 16 3 12 7 17 9 11 3 -7 12 -9 20 -6z m239 -4 c-2
-9 -8 -19 -14 -21 -14 -4 -15 0 -6 22 8 21 23 20 20 -1z m-348 -85 c-5 -15
-23 -11 -26 6 -2 11 2 14 13 10 9 -4 14 -11 13 -16z m72 -38 c0 -6 -11 -10
-25 -10 -14 0 -25 4 -25 8 0 4 11 9 25 10 14 1 25 -3 25 -8z m-210 -29 c0 -6
-4 -13 -10 -16 -5 -3 -10 1 -10 9 0 9 5 16 10 16 6 0 10 -4 10 -9z m-520 -256
c0 -8 6 -15 13 -15 8 0 7 -4 -3 -10 -23 -15 -30 -12 -30 15 0 14 5 25 10 25 6
0 10 -7 10 -15z m330 -26 c0 -5 5 -7 10 -4 6 3 10 -1 10 -9 0 -12 -10 -16 -35
-16 -38 0 -41 4 -22 25 14 17 37 19 37 4z m-760 -9 c18 -12 2 -12 -25 0 -13 6
-15 9 -5 9 8 0 22 -4 30 -9z m790 -40 c-19 -13 -30 -13 -30 0 0 6 10 10 23 10
18 0 19 -2 7 -10z m-790 -510 c0 -5 -9 -10 -19 -10 -11 0 -27 -3 -35 -6 -12
-5 -15 -2 -10 10 7 17 64 23 64 6z"/>
<path d="M3524 5024 c4 -23 35 -39 49 -24 9 9 7 15 -7 26 -26 19 -45 18 -42
-2z"/>
<path d="M3824 4745 c-3 -8 -3 -19 0 -24 9 -13 36 -2 36 14 0 19 -30 27 -36
10z"/>
<path d="M3688 4473 c7 -3 16 -2 19 1 4 3 -2 6 -13 5 -11 0 -14 -3 -6 -6z"/>
<path d="M3486 3994 c-4 -9 -4 -19 -2 -21 8 -8 26 8 26 23 0 19 -16 18 -24 -2z"/>
<path d="M5410 3441 c0 -29 15 -33 18 -5 1 13 -3 24 -8 24 -6 0 -10 -9 -10
-19z"/>
<path d="M4850 3400 c0 -5 5 -10 10 -10 6 0 10 5 10 10 0 6 -4 10 -10 10 -5 0
-10 -4 -10 -10z"/>
<path d="M5740 2860 c0 -5 5 -10 10 -10 6 0 10 5 10 10 0 6 -4 10 -10 10 -5 0
-10 -4 -10 -10z"/>
<path d="M5357 2807 c-4 -10 2 -13 19 -9 13 2 24 8 24 13 0 14 -37 10 -43 -4z"/>
<path d="M5128 2798 c12 -6 22 -19 22 -30 0 -11 7 -18 19 -18 11 0 27 -3 36
-6 13 -5 16 -2 13 12 -2 10 -9 19 -16 19 -7 0 -16 5 -20 11 -4 6 -23 14 -42
17 -30 5 -32 4 -12 -5z"/>
<path d="M5710 2774 c0 -15 3 -25 6 -21 4 3 13 0 21 -8 17 -17 33 -19 33 -5 0
6 -7 10 -15 10 -8 0 -15 5 -15 11 0 6 -7 17 -15 25 -13 14 -15 12 -15 -12z"/>
<path d="M5981 3094 c0 -11 3 -14 6 -6 3 7 2 16 -1 19 -3 4 -6 -2 -5 -13z"/>
<path d="M5345 2580 c3 -5 16 -10 28 -9 21 0 21 1 2 9 -28 12 -37 12 -30 0z"/>
<path d="M5110 2559 c0 -5 5 -7 10 -4 6 3 10 8 10 11 0 2 -4 4 -10 4 -5 0 -10
-5 -10 -11z"/>
<path d="M4810 7796 c0 -2 7 -6 15 -10 8 -3 15 -1 15 4 0 6 -7 10 -15 10 -8 0
-15 -2 -15 -4z"/>
<path d="M4607 7734 c-4 -4 -4 -10 -1 -15 6 -10 34 0 34 12 0 10 -24 12 -33 3z"/>
<path d="M4043 7693 c9 -2 23 -2 30 0 6 3 -1 5 -18 5 -16 0 -22 -2 -12 -5z"/>
<path d="M3932 7644 c4 -21 22 -23 26 -1 2 10 -3 17 -13 17 -10 0 -15 -6 -13
-16z"/>
<path d="M6345 7300 c3 -5 8 -10 11 -10 2 0 4 5 4 10 0 6 -5 10 -11 10 -5 0
-7 -4 -4 -10z"/>
<path d="M3760 7224 c0 -8 5 -12 10 -9 6 3 10 10 10 16 0 5 -4 9 -10 9 -5 0
-10 -7 -10 -16z"/>
<path d="M6370 7204 c0 -8 5 -12 10 -9 6 3 10 10 10 16 0 5 -4 9 -10 9 -5 0
-10 -7 -10 -16z"/>
<path d="M6397 7144 c-4 -4 -7 -14 -7 -21 0 -19 42 -13 48 6 3 10 0 12 -11 8
-9 -3 -17 -1 -19 4 -2 6 -7 7 -11 3z"/>
<path d="M6420 7020 c0 -22 5 -40 10 -40 6 0 10 18 10 40 0 22 -4 40 -10 40
-5 0 -10 -18 -10 -40z"/>
<path d="M6560 6860 c0 -5 5 -10 10 -10 6 0 10 5 10 10 0 6 -4 10 -10 10 -5 0
-10 -4 -10 -10z"/>
<path d="M6475 6742 c-18 -13 -15 -32 4 -32 14 0 18 5 14 20 -3 11 -6 20 -7
20 0 0 -5 -4 -11 -8z"/>
<path d="M6695 6740 c-3 -5 -1 -10 4 -10 6 0 11 5 11 10 0 6 -2 10 -4 10 -3 0
-8 -4 -11 -10z"/>
<path d="M6510 6685 c0 -14 5 -25 10 -25 6 0 10 11 10 25 0 14 -4 25 -10 25
-5 0 -10 -11 -10 -25z"/>
<path d="M6691 6682 c0 -7 -5 -10 -11 -7 -5 3 -10 -3 -10 -14 0 -11 5 -23 10
-26 13 -8 23 18 17 42 -3 10 -5 12 -6 5z"/>
<path d="M6502 6641 c-8 -4 -12 -19 -10 -32 3 -22 4 -22 15 9 7 17 11 32 10
32 -1 0 -8 -4 -15 -9z"/>
<path d="M6681 6594 c0 -11 3 -14 6 -6 3 7 2 16 -1 19 -3 4 -6 -2 -5 -13z"/>
<path d="M6607 6548 c3 -17 2 -19 -5 -9 -11 15 -27 -2 -17 -19 10 -16 35 -12
35 6 0 8 4 13 9 10 5 -4 7 3 4 14 -8 28 -32 26 -26 -2z"/>
<path d="M6650 6560 c0 -5 5 -10 10 -10 6 0 10 5 10 10 0 6 -4 10 -10 10 -5 0
-10 -4 -10 -10z"/>
<path d="M6510 6536 c0 -2 7 -6 15 -10 8 -3 15 -1 15 4 0 6 -7 10 -15 10 -8 0
-15 -2 -15 -4z"/>
<path d="M6720 6486 c0 -14 5 -26 10 -26 6 0 10 9 10 19 0 11 -4 23 -10 26 -6
4 -10 -5 -10 -19z"/>
<path d="M6650 6385 c0 -8 4 -15 10 -15 5 0 7 7 4 15 -4 8 -8 15 -10 15 -2 0
-4 -7 -4 -15z"/>
<path d="M6770 6370 c0 -5 5 -10 10 -10 6 0 10 5 10 10 0 6 -4 10 -10 10 -5 0
-10 -4 -10 -10z"/>
<path d="M6711 6334 c0 -11 3 -14 6 -6 3 7 2 16 -1 19 -3 4 -6 -2 -5 -13z"/>
<path d="M6721 6303 c0 -4 4 -17 9 -28 8 -19 9 -19 9 2 1 12 -3 25 -9 28 -5 3
-10 3 -9 -2z"/>
<path d="M5720 6250 c0 -6 -27 -10 -60 -10 -33 0 -60 -4 -60 -10 0 -15 -47
-12 -53 3 -4 10 -6 10 -6 0 -1 -9 -18 -13 -51 -13 -40 0 -48 -3 -44 -15 5 -12
-6 -15 -66 -15 -45 0 -69 -4 -65 -10 4 -6 -5 -10 -19 -10 -14 0 -26 -4 -26
-10 0 -5 -20 -10 -45 -10 -33 0 -45 -4 -45 -15 0 -12 -14 -15 -67 -15 -48 0
-64 -3 -53 -10 12 -8 12 -10 -5 -10 -17 0 -17 -2 -5 -10 12 -8 9 -10 -11 -10
-18 0 -28 -6 -32 -20 -5 -21 -33 -37 -45 -26 -3 4 0 12 8 17 12 9 12 10 -3 5
-10 -3 -25 -6 -33 -6 -9 0 -12 -4 -9 -10 3 -5 -4 -10 -17 -11 -23 -1 -23 -1 2
-9 24 -8 23 -8 -7 -9 -22 -1 -33 -6 -33 -16 0 -8 -4 -15 -10 -15 -5 0 -10 -6
-10 -12 0 -9 15 -12 52 -9 43 3 48 6 28 12 l-25 7 28 1 c15 1 27 -3 27 -9 0
-5 5 -10 11 -10 14 0 39 -25 39 -39 0 -6 21 -11 50 -11 40 0 48 3 44 15 -5 13
15 15 146 15 98 0 149 4 145 10 -4 6 15 10 49 10 31 0 56 5 56 10 0 6 9 10 19
10 11 0 22 6 24 13 4 10 6 10 6 0 1 -7 10 -13 21 -13 11 0 20 -4 20 -10 0 -5
7 -10 16 -10 8 0 12 5 9 10 -3 6 1 10 10 10 8 0 18 7 21 15 4 8 12 15 20 15 8
0 14 -7 14 -15 0 -12 15 -15 75 -15 60 0 75 3 75 15 0 11 12 15 45 15 31 0 44
-4 43 -12 -2 -9 15 -14 55 -16 55 -3 63 1 58 32 -1 4 4 14 10 22 9 11 15 11
25 3 7 -6 18 -8 25 -4 8 6 7 10 -2 16 -11 8 -11 12 4 23 16 12 16 14 2 20 -9
3 -14 9 -11 14 2 4 -9 9 -26 10 -23 2 -31 -2 -35 -18 -5 -20 -23 -28 -23 -10
0 6 -9 10 -20 10 -11 0 -20 5 -20 10 0 6 -9 10 -20 10 -11 0 -20 7 -20 15 0 8
-7 15 -15 15 -8 0 -15 5 -15 10 0 6 -9 10 -20 10 -11 0 -20 5 -20 10 0 6 -9
10 -20 10 -11 0 -20 7 -20 15 0 9 -9 15 -23 15 -12 0 -29 9 -37 20 -15 21 -30
26 -30 10z m365 -159 c3 -5 1 -12 -4 -15 -5 -4 -12 -2 -16 4 -4 6 -10 8 -15 5
-5 -3 -11 -1 -15 5 -4 6 4 10 19 10 14 0 27 -4 31 -9z m-470 -91 c3 -5 1 -10
-4 -10 -6 0 -11 5 -11 10 0 6 2 10 4 10 3 0 8 -4 11 -10z"/>
<path d="M6720 6201 c0 -25 6 -27 13 -6 4 8 2 17 -3 20 -6 4 -10 -3 -10 -14z"/>
<path d="M6790 6185 c-10 -12 -10 -15 4 -15 9 0 16 7 16 15 0 8 -2 15 -4 15
-2 0 -9 -7 -16 -15z"/>
<path d="M5970 6160 c0 -5 11 -9 25 -8 14 1 25 6 25 10 0 4 -11 8 -25 8 -14 0
-25 -4 -25 -10z"/>
<path d="M6727 6112 c7 -5 13 -39 15 -87 4 -104 22 -104 26 -1 3 81 -3 96 -38
96 -11 0 -12 -2 -3 -8z"/>
<path d="M6115 6070 c-4 -6 3 -10 14 -10 25 0 27 6 6 13 -8 4 -17 2 -20 -3z"/>
<path d="M6781 6064 c0 -11 3 -14 6 -6 3 7 2 16 -1 19 -3 4 -6 -2 -5 -13z"/>
<path d="M6070 5995 c0 -9 6 -12 15 -9 8 4 15 10 15 15 0 5 -7 9 -15 9 -8 0
-15 -7 -15 -15z"/>
<path d="M6719 5889 c-6 -80 1 -160 12 -154 11 8 12 175 0 194 -6 9 -10 -4
-12 -40z"/>
<path d="M4945 5920 c-3 -5 -1 -10 4 -10 6 0 11 5 11 10 0 6 -2 10 -4 10 -3 0
-8 -4 -11 -10z"/>
<path d="M4870 5901 c0 -12 29 -35 36 -28 4 3 -1 13 -9 22 -17 17 -27 19 -27
6z"/>
<path d="M5310 5900 c0 -5 -13 -10 -30 -10 -16 0 -30 -4 -30 -10 0 -5 -11 -10
-25 -10 -14 0 -25 -5 -25 -11 0 -15 -26 -39 -43 -39 -10 0 -13 -8 -9 -25 2
-15 0 -25 -7 -25 -6 0 -11 -19 -11 -45 0 -25 -4 -45 -10 -45 -5 0 -10 -16 -10
-35 0 -35 0 -35 45 -35 51 0 64 -25 20 -36 -56 -14 -56 -94 -1 -94 25 0 51
-22 39 -33 -3 -4 7 -8 23 -8 28 -2 28 -2 -6 -9 l-35 -7 43 -2 c29 -1 41 -5 36
-12 -5 -8 -1 -8 14 0 25 13 45 14 38 2 -3 -5 4 -11 15 -14 12 -3 18 -10 14
-16 -6 -11 23 -15 95 -12 27 1 31 -1 20 -8 -11 -8 -3 -11 33 -11 27 0 58 -5
70 -11 14 -8 22 -8 24 -2 3 7 17 8 41 2 51 -12 142 -11 142 1 0 6 14 10 30 10
17 0 30 5 30 10 0 6 6 10 14 10 13 0 26 28 26 58 0 8 -19 12 -60 12 -40 0 -60
-4 -60 -12 0 -9 -3 -9 -12 0 -19 19 -66 15 -71 -5 -4 -17 -5 -17 -6 0 -1 10
-9 17 -20 17 -14 0 -18 -5 -14 -20 5 -18 0 -20 -35 -20 -23 0 -44 5 -47 10 -4
6 6 10 24 10 16 0 33 5 36 10 3 6 -4 10 -17 10 -26 0 -55 46 -34 53 8 3 8 8
-1 18 -21 22 -15 29 27 29 22 0 40 5 40 10 0 6 -7 10 -16 10 -8 0 -12 5 -9 10
3 6 17 10 31 10 32 0 42 27 18 45 -11 7 -15 17 -11 22 5 4 13 1 17 -8 5 -9 20
-15 32 -14 13 1 36 3 51 4 16 0 26 5 22 11 -4 6 10 10 34 10 26 0 43 6 49 16
5 8 23 16 40 16 18 1 32 5 32 10 0 4 12 8 26 8 14 0 23 -4 19 -10 -4 -6 30
-10 94 -10 56 0 103 4 106 10 4 6 -7 10 -24 10 -24 0 -31 4 -31 20 0 12 7 20
16 20 13 0 13 2 2 14 -8 8 -23 16 -34 18 -10 2 -18 10 -16 16 1 7 -7 12 -18
12 -11 0 -20 5 -20 10 0 6 -9 10 -20 10 -11 0 -20 5 -20 10 0 6 -18 10 -40 10
-29 0 -40 4 -40 15 0 10 -10 15 -30 15 -16 0 -30 5 -30 10 0 6 -7 10 -15 10
-9 0 -15 -9 -15 -25 0 -21 5 -25 29 -25 17 0 33 -5 36 -10 4 -7 -6 -10 -29 -8
-20 1 -36 6 -36 10 0 4 -11 8 -24 8 -15 0 -26 7 -29 20 -4 16 0 20 21 22 54 3
-158 19 -320 24 -113 3 -168 2 -168 -6z m650 -91 c0 -5 -17 -9 -37 -8 -27 0
-32 3 -20 8 28 11 57 11 57 0z m-340 -59 c0 -27 -4 -50 -10 -50 -5 0 -10 7
-10 15 0 8 -7 15 -15 15 -10 0 -15 11 -15 35 0 31 3 35 25 35 23 0 25 -3 25
-50z m50 35 c0 -8 5 -15 10 -15 6 0 10 -9 10 -20 0 -15 -7 -20 -25 -20 -22 0
-25 4 -25 35 0 24 5 35 15 35 8 0 15 -7 15 -15z m90 -6 c0 -11 5 -17 10 -14 6
3 10 2 10 -3 0 -8 -22 -22 -36 -22 -2 0 -4 14 -4 30 0 17 5 30 10 30 6 0 10
-9 10 -21z m240 6 c0 -8 5 -15 11 -15 5 0 7 -5 3 -12 -6 -9 -9 -9 -12 0 -2 7
-10 12 -18 12 -8 0 -14 7 -14 15 0 8 7 15 15 15 8 0 15 -7 15 -15z m-270 -45
c0 -5 -5 -10 -11 -10 -5 0 -7 5 -4 10 3 6 8 10 11 10 2 0 4 -4 4 -10z"/>
<path d="M5836 5461 c-4 -5 3 -7 14 -4 23 6 26 13 6 13 -8 0 -17 -4 -20 -9z"/>
<path d="M6923 5376 l-22 -23 24 5 c29 5 41 20 29 32 -5 5 -19 -1 -31 -14z"/>
<path d="M5527 4714 c3 -8 0 -14 -7 -14 -9 0 -9 -4 1 -17 10 -11 10 -14 2 -9
-7 4 -13 3 -13 -1 0 -11 37 -43 50 -43 6 0 10 -7 10 -15 0 -8 7 -15 15 -15 8
0 15 -4 15 -10 0 -5 7 -10 15 -10 8 0 15 -4 15 -10 0 -5 7 -10 14 -10 8 0 27
-11 42 -25 15 -14 33 -25 40 -25 8 0 14 -7 14 -15 0 -16 16 -20 24 -6 7 11
-29 53 -38 44 -3 -3 -6 0 -6 8 0 16 -48 59 -67 59 -7 0 -13 7 -13 15 0 8 -9
15 -20 15 -25 0 -27 20 -2 21 11 0 7 4 -10 10 -15 6 -30 18 -33 27 -3 9 -16
22 -29 28 -20 9 -23 9 -19 -2z"/>
<path d="M4531 4704 c0 -11 3 -14 6 -6 3 7 2 16 -1 19 -3 4 -6 -2 -5 -13z"/>
<path d="M5010 4640 c0 -5 -11 -10 -25 -10 -15 0 -25 -6 -25 -14 0 -14 92 -29
117 -19 32 12 7 40 -29 34 -5 0 -8 4 -8 9 0 6 -7 10 -15 10 -8 0 -15 -4 -15
-10z"/>
<path d="M5101 4614 c0 -11 3 -14 6 -6 3 7 2 16 -1 19 -3 4 -6 -2 -5 -13z"/>
<path d="M4940 4590 c0 -5 7 -10 16 -10 8 0 12 5 9 10 -3 6 -10 10 -16 10 -5
0 -9 -4 -9 -10z"/>
<path d="M4920 4570 c0 -5 5 -10 11 -10 5 0 7 5 4 10 -3 6 -8 10 -11 10 -2 0
-4 -4 -4 -10z"/>
<path d="M6700 4501 c0 -5 3 -17 6 -25 6 -15 8 -15 19 1 10 13 10 20 2 25 -16
10 -27 10 -27 -1z"/>
<path d="M6515 4470 c3 -5 8 -10 11 -10 2 0 4 5 4 10 0 6 -5 10 -11 10 -5 0
-7 -4 -4 -10z"/>
<path d="M6650 4405 c0 -8 -4 -15 -10 -15 -14 0 -13 -37 2 -46 8 -5 9 -2 5 9
-4 11 -1 17 8 17 9 0 15 10 15 25 0 14 -4 25 -10 25 -5 0 -10 -7 -10 -15z"/>
<path d="M6463 4381 c1 -11 7 -17 14 -14 17 7 17 20 -1 26 -10 4 -14 0 -13
-12z"/>
<path d="M6507 4363 c-11 -10 24 -43 46 -43 13 0 17 5 13 16 -3 9 -6 20 -6 25
0 10 -43 12 -53 2z"/>
<path d="M6350 4304 c0 -8 5 -12 10 -9 6 3 10 10 10 16 0 5 -4 9 -10 9 -5 0
-10 -7 -10 -16z"/>
<path d="M6630 4309 c0 -5 5 -7 10 -4 6 3 10 8 10 11 0 2 -4 4 -10 4 -5 0 -10
-5 -10 -11z"/>
<path d="M6701 4293 c0 -4 4 -17 9 -28 8 -19 9 -19 9 2 1 12 -3 25 -9 28 -5 3
-10 3 -9 -2z"/>
<path d="M6325 4280 c3 -5 14 -10 23 -10 15 0 15 2 2 10 -20 13 -33 13 -25 0z"/>
<path d="M6600 4260 c0 -12 37 -14 44 -2 2 4 -6 9 -20 10 -13 1 -24 -3 -24 -8z"/>
<path d="M6182 4248 c5 -15 28 -23 28 -10 0 5 -7 13 -16 16 -10 4 -14 1 -12
-6z"/>
<path d="M6250 4190 c0 -5 7 -10 15 -10 8 0 15 5 15 10 0 6 -7 10 -15 10 -8 0
-15 -4 -15 -10z"/>
<path d="M6941 4174 c0 -11 3 -14 6 -6 3 7 2 16 -1 19 -3 4 -6 -2 -5 -13z"/>
<path d="M6579 4163 c-1 -4 0 -18 1 -30 1 -13 -3 -23 -9 -23 -6 0 -11 -16 -11
-35 0 -19 5 -35 10 -35 6 0 10 16 10 35 0 19 4 35 9 35 5 0 9 11 9 25 0 23
-17 47 -19 28z"/>
<path d="M6670 4147 c0 -20 4 -24 25 -19 23 4 37 32 16 32 -5 0 -16 3 -25 6
-12 5 -16 0 -16 -19z"/>
<path d="M6210 4144 c0 -8 5 -12 10 -9 6 4 8 11 5 16 -9 14 -15 11 -15 -7z"/>
<path d="M6288 4103 c7 -3 16 -2 19 1 4 3 -2 6 -13 5 -11 0 -14 -3 -6 -6z"/>
<path d="M6630 4075 c0 -8 9 -15 20 -15 11 0 20 7 20 15 0 8 -9 15 -20 15 -11
0 -20 -7 -20 -15z"/>
<path d="M6140 3930 c0 -5 5 -10 10 -10 6 0 10 5 10 10 0 6 -4 10 -10 10 -5 0
-10 -4 -10 -10z"/>
<path d="M6630 2792 c0 -5 7 -9 15 -9 8 0 15 4 15 9 0 4 -7 8 -15 8 -8 0 -15
-4 -15 -8z"/>
<path d="M6670 2770 c0 -16 7 -20 35 -20 19 0 35 -4 35 -10 0 -5 11 -10 25
-10 14 0 25 -4 25 -10 0 -5 13 -10 30 -10 22 0 28 -4 24 -15 -4 -10 0 -15 15
-15 12 0 21 -4 21 -10 0 -5 11 -10 24 -10 13 0 27 -6 29 -12 4 -9 6 -10 6 -1
1 6 -6 18 -14 27 -8 8 -15 19 -15 25 0 6 -7 11 -15 11 -8 0 -15 5 -15 10 0 6
-9 10 -20 10 -11 0 -20 5 -20 10 0 6 -7 10 -15 10 -8 0 -15 7 -15 15 0 11 -12
15 -47 16 -27 0 -58 2 -70 5 -18 3 -23 -1 -23 -16z"/>
<path d="M2088 2453 c7 -3 16 -2 19 1 4 3 -2 6 -13 5 -11 0 -14 -3 -6 -6z"/>
<path d="M5855 2320 c3 -5 10 -10 16 -10 5 0 9 5 9 10 0 6 -7 10 -16 10 -8 0
-12 -4 -9 -10z"/>
<path d="M5710 2275 c0 -8 7 -15 15 -15 8 0 15 7 15 15 0 8 -7 15 -15 15 -8 0
-15 -7 -15 -15z"/>
<path d="M5365 2160 c3 -5 8 -10 11 -10 2 0 4 5 4 10 0 6 -5 10 -11 10 -5 0
-7 -4 -4 -10z"/>
<path d="M5550 2139 c0 -5 5 -7 10 -4 6 3 10 8 10 11 0 2 -4 4 -10 4 -5 0 -10
-5 -10 -11z"/>
<path d="M5090 2009 c0 -5 5 -7 10 -4 6 3 10 8 10 11 0 2 -4 4 -10 4 -5 0 -10
-5 -10 -11z"/>
<path d="M4072 1996 c7 -8 15 -12 17 -11 5 6 -10 25 -20 25 -5 0 -4 -6 3 -14z"/>
<path d="M4400 1940 c0 -5 5 -10 11 -10 5 0 7 5 4 10 -3 6 -8 10 -11 10 -2 0
-4 -4 -4 -10z"/>
<path d="M4886 1922 c-2 -4 -1 -14 4 -21 11 -19 41 -6 34 14 -6 16 -29 20 -38
7z"/>
<path d="M4360 1906 c0 -9 5 -16 10 -16 6 0 10 4 10 9 0 6 -4 13 -10 16 -5 3
-10 -1 -10 -9z"/>
<path d="M4825 1910 c-4 -6 -3 -16 3 -22 6 -6 12 -6 17 2 4 6 3 16 -3 22 -6 6
-12 6 -17 -2z"/>
<path d="M4275 1900 c4 -6 11 -8 16 -5 14 9 11 15 -7 15 -8 0 -12 -5 -9 -10z"/>
<path d="M4393 1883 c-7 -2 -13 -9 -13 -15 0 -14 43 -6 48 10 4 12 -12 15 -35
5z"/>
<path d="M4920 1875 c0 -8 6 -15 14 -15 9 0 12 -7 9 -20 -3 -11 0 -20 6 -20 6
0 11 16 11 35 0 28 -4 35 -20 35 -11 0 -20 -7 -20 -15z"/>
<path d="M4826 1855 c-3 -10 -2 -14 5 -10 5 4 17 1 26 -6 13 -11 15 -11 12 6
-5 25 -34 31 -43 10z"/>
<path d="M4055 1850 c-3 -5 1 -10 9 -10 9 0 16 5 16 10 0 6 -4 10 -9 10 -6 0
-13 -4 -16 -10z"/>
<path d="M4125 1450 c-3 -5 -1 -10 4 -10 6 0 11 5 11 10 0 6 -2 10 -4 10 -3 0
-8 -4 -11 -10z"/>
</g>
</svg>
